<svg width="45" height="44" viewBox="0 0 45 44" fill="none" xmlns="http://www.w3.org/2000/svg">
<path d="M11.4659 6.39757C11.4659 6.39757 8.00987 6.66376 4.73288 9.76635C3.17631 11.2743 1.99037 13.1225 1.26811 15.1658C0.545855 17.2092 0.306934 19.3921 0.570103 21.5433C1.1025 25.6189 6.33007 33.8573 11.8193 38.2862C17.3084 42.7152 24.7528 44.6612 31.4812 42.7106C38.2096 40.76 41.4039 33.6783 42.1107 32.7053C42.8175 31.7323 45.8283 24.9029 43.3499 17.8257C40.8715 10.7485 37.948 6.13136 32.2798 3.03337C26.6116 -0.0646257 20.6772 -0.243611 17.2212 1.88138C13.7653 4.00638 12.7923 6.39757 12.7923 6.39757H11.4659Z" fill="white"/>
<path d="M44.3053 23.0392L43.8463 19.6062C43.7607 19.2298 43.6597 18.8489 43.5434 18.4634C43.5434 20.3405 43.4516 23.5487 42.7127 26.2382C41.5928 30.3184 40.4179 31.4474 34.4514 35.4496C28.4849 39.4517 26.9336 38.9055 24.4001 39.1993C21.8667 39.493 16.047 37.9188 10.5119 34.1736C7.19608 31.9091 4.55663 28.7874 2.87481 25.1413L0.497388 19.2941C0.463221 20.045 0.493931 20.7974 0.589179 21.543C1.12157 25.6186 6.34916 33.857 11.8383 38.2859C17.3275 42.7149 24.7719 44.6609 31.5003 42.7103C38.2286 40.7597 41.423 33.678 42.1298 32.705C42.6393 31.9752 44.4614 27.9777 44.3053 23.0392Z" fill="#362822"/>
<path d="M14.5636 7.54965C14.5636 7.54965 15.6284 7.37524 17.7534 11.8042C19.8784 16.2332 24.2202 19.6066 26.0147 23.2278C27.8092 26.849 29.2917 30.4014 29.8241 31.8195C30.3565 33.2377 31.5957 34.3852 32.0363 35.6289C32.4769 36.8727 32.5687 38.6397 33.0093 38.5479C33.4499 38.4561 32.1235 34.7431 32.3897 33.7656C32.6559 32.788 34.0741 30.8465 33.8079 29.869C33.5417 28.8914 31.8573 27.3034 32.2153 26.9454C32.5732 26.5874 37.2639 25.798 35.2261 25.798C33.1883 25.798 30.9715 26.4176 30.6364 25.5318C30.3014 24.646 30.283 22.778 30.283 22.778C30.283 22.778 30.9898 22.6036 30.104 21.8922C29.2182 21.1808 28.337 18.9732 28.337 18.9732C28.337 18.9732 25.7668 14.8976 23.9081 12.8598C22.0493 10.822 21.1543 9.93624 20.0987 9.40385C19.0431 8.87145 19.1257 9.14225 18.2399 8.16466C17.3541 7.18707 17.8819 6.57205 16.9089 6.83825C15.9359 7.10445 13.4162 5.77806 14.5636 7.54965Z" fill="#362822" stroke="#362822" stroke-width="0.93293" stroke-miterlimit="10"/>
<path d="M7.92285 32.2607C7.92285 32.2607 11.7322 34.9181 14.8073 36.8504C17.8823 38.7826 24.4455 39.1452 26.9422 38.8882" stroke="#1A3447" stroke-width="0.93293" stroke-miterlimit="10"/>
<path d="M29.1812 38.5478C29.1812 38.5478 31.3061 37.9282 31.9349 37.4004" stroke="#1A3447" stroke-width="0.93293" stroke-miterlimit="10"/>
<path d="M33.7842 36.0688C33.7842 36.0688 36.9969 34.1228 38.5666 32.5256C40.1362 30.9284 41.4029 30.5796 42.7293 26.2379C44.0557 21.8961 43.2617 19.5967 43.2617 19.5967" stroke="#1A3447" stroke-width="0.93293" stroke-miterlimit="10"/>
<path d="M11.4659 6.39757C11.4659 6.39757 8.00987 6.66376 4.73288 9.76635C3.17631 11.2743 1.99037 13.1225 1.26811 15.1658C0.545855 17.2092 0.306934 19.3921 0.570103 21.5433C1.1025 25.6189 6.33007 33.8573 11.8193 38.2862C17.3084 42.7152 24.7528 44.6612 31.4812 42.7106C38.2096 40.76 41.4039 33.6783 42.1107 32.7053C42.8175 31.7323 45.8283 24.9029 43.3499 17.8257C40.8715 10.7485 37.948 6.13136 32.2798 3.03337C26.6116 -0.0646257 20.6772 -0.243611 17.2212 1.88138C13.7653 4.00638 12.7923 6.39757 12.7923 6.39757H11.4659Z" stroke="#1A3447" stroke-width="0.93293" stroke-miterlimit="10"/>
<path d="M19.8181 35.3857C19.8181 35.6152 19.4188 35.7988 18.9277 35.7988C18.4366 35.7988 18.0327 35.6152 18.0327 35.3857C18.0327 35.1562 18.432 34.9727 18.9277 34.9727C19.4234 34.9727 19.8181 35.1608 19.8181 35.3857Z" stroke="#1A3447" stroke-width="0.93293" stroke-miterlimit="10"/>
<path d="M21.7419 2.96433C21.7419 3.19381 21.3426 3.3774 20.8515 3.3774C20.3604 3.3774 19.9565 3.19381 19.9565 2.96433C19.9565 2.73485 20.3558 2.55127 20.8515 2.55127C21.3472 2.55127 21.7419 2.73944 21.7419 2.96433Z" stroke="#1A3447" stroke-width="0.93293" stroke-miterlimit="10"/>
<path d="M26.6888 2.7397C26.6888 3.22161 26.0738 3.61632 25.3119 3.61632C24.5501 3.61632 23.9351 3.22161 23.9351 2.7397C23.9351 2.25779 24.5501 1.86768 25.3119 1.86768C26.0738 1.86768 26.6888 2.25779 26.6888 2.7397Z" stroke="#1A3447" stroke-width="0.93293" stroke-miterlimit="10"/>
</svg>
