<svg width="558" height="558" viewBox="0 0 558 558" fill="none" xmlns="http://www.w3.org/2000/svg">
<path d="M513.907 325.325C499.343 372.309 467.872 423.768 421.435 440.441C351.272 465.629 345.134 526.562 217.687 525.859C199.051 525.841 180.479 523.688 162.333 519.442C153.435 517.328 144.689 514.621 136.152 511.34C60.5988 482.324 19.1171 413.724 13.0572 340.469C5.04431 244.125 66.893 195.668 107.192 167.132C147.491 138.596 193.302 32.364 318.585 31.9622C337.753 31.8283 356.866 34.0319 375.501 38.5243C418.065 48.9478 461.89 73.9685 488.217 112.002C490.203 114.859 492.1 117.794 493.919 120.774C529.531 179.252 533.76 261.278 513.907 325.325Z" fill="#F0C376"/>
<path opacity="0.7" d="M513.907 325.325C499.343 372.309 467.872 423.768 421.435 440.441C351.272 465.629 345.134 526.562 217.687 525.859C199.051 525.841 180.479 523.688 162.333 519.442C153.435 517.328 144.689 514.621 136.152 511.34C60.5988 482.324 19.1171 413.724 13.0572 340.469C5.04431 244.125 66.893 195.668 107.192 167.132C147.491 138.596 193.302 32.364 318.585 31.9622C337.753 31.8283 356.866 34.0319 375.501 38.5243C418.065 48.9478 461.89 73.9685 488.217 112.002C490.203 114.859 492.1 117.794 493.919 120.774C529.531 179.252 533.76 261.278 513.907 325.325Z" fill="white"/>
<path d="M311.085 196.795C311.085 196.795 329.097 194.865 335.927 196.383C342.757 197.9 363.124 207.543 382.141 207.018C401.157 206.493 432.037 195.244 440.619 188.492C449.201 181.741 454.669 176.607 454.669 176.607C454.669 176.607 487.033 155.649 499.488 139.176C511.943 122.704 524.665 99.0896 526.216 92.0923C527.767 85.095 530.189 69.5157 532.912 64.2593C535.635 59.0029 540.825 52.4297 538.113 51.5034C535.401 50.5771 523.27 51.0235 523.27 51.0235C523.27 51.0235 500.76 44.428 484.21 43.6468C467.66 42.8656 443.677 48.6576 415.81 71.1673C387.944 93.6771 362.376 122.325 358.515 129.344C354.653 136.364 343.259 160.447 341.395 167.601C339.532 174.754 338.884 183.057 332.345 187.376C329.655 189.14 318.875 183.861 311.754 188.693C304.634 193.526 308.652 196.494 311.085 196.795Z" fill="#F0C376" stroke="#1A3447" stroke-width="1.24615" stroke-miterlimit="10"/>
<path d="M531.718 59.8288C531.718 59.8288 490.426 83.4098 460.149 109.111C434.809 130.754 408.385 151.095 380.98 170.056C359.932 184.397 338.996 192.856 334.365 193.693" stroke="#1A3447" stroke-width="1.24615" stroke-miterlimit="10"/>
<path d="M335.983 188.604C349.528 184.103 362.511 178.059 374.675 170.592C395.332 158.003 430.396 132.581 442.059 122.302" stroke="#1A3447" stroke-width="1.24615" stroke-miterlimit="10"/>
<path d="M415.04 179.219C400.532 176.306 380.98 170.056 380.98 170.056" stroke="#1A3447" stroke-width="1.24615" stroke-miterlimit="10"/>
<path d="M444.559 179.877C444.559 179.877 435.564 182.198 421.245 180.279C420.252 180.145 419.192 179.977 418.087 179.788" stroke="#1A3447" stroke-width="1.24615" stroke-miterlimit="10"/>
<path d="M377.744 191.762C367.89 188.258 357.89 185.39 355.881 185.702" stroke="#1A3447" stroke-width="1.24615" stroke-miterlimit="10"/>
<path d="M411.056 198.313C411.056 198.313 390.6 196.416 380.065 192.599" stroke="#1A3447" stroke-width="1.24615" stroke-miterlimit="10"/>
<path d="M463.631 161.909C453.674 163.398 443.511 162.69 433.856 159.833C418.299 155.079 409.215 152.792 409.215 152.792" stroke="#1A3447" stroke-width="1.24615" stroke-miterlimit="10"/>
<path d="M438.655 135.572C437.077 134.835 435.412 134.299 433.7 133.976" stroke="#1A3447" stroke-width="1.24615" stroke-miterlimit="10"/>
<path d="M486.944 148.35C486.944 148.35 477.057 146.866 463.419 143.83C456.061 142.026 448.847 139.68 441.836 136.81" stroke="#1A3447" stroke-width="1.24615" stroke-miterlimit="10"/>
<path d="M478.429 107.884C472.704 107.527 468.207 107.281 468.207 107.281" stroke="#1A3447" stroke-width="1.24615" stroke-miterlimit="10"/>
<path d="M508.293 117.984C508.293 117.984 491.553 108.788 483.63 108.241L482.045 108.129" stroke="#1A3447" stroke-width="1.24615" stroke-miterlimit="10"/>
<path d="M498.037 134.11C498.037 134.11 474.601 127.213 465.26 124.289C455.919 121.365 452.203 121.722 452.203 121.722" stroke="#1A3447" stroke-width="1.24615" stroke-miterlimit="10"/>
<path d="M514.175 100.63C514.175 100.63 495.281 91.7687 487.167 91.7017" stroke="#1A3447" stroke-width="1.24615" stroke-miterlimit="10"/>
<path d="M524.922 83.8563C524.922 83.8563 510.347 77.8187 505.079 78.9793" stroke="#1A3447" stroke-width="1.24615" stroke-miterlimit="10"/>
<path d="M372.063 170.748C373.848 160.634 374.64 150.37 374.429 140.103C373.96 124.077 377.889 115.473 379.92 111.321" stroke="#1A3447" stroke-width="1.24615" stroke-miterlimit="10"/>
<path d="M400.544 112.593C400.856 110.205 401.169 107.995 401.47 106.054C403.88 90.4295 411.19 81.6801 411.19 81.6801" stroke="#1A3447" stroke-width="1.24615" stroke-miterlimit="10"/>
<path d="M396.08 155.303C396.08 155.303 397.966 133.853 399.963 117.269" stroke="#1A3447" stroke-width="1.24615" stroke-miterlimit="10"/>
<path d="M438.588 67.1832C439.651 64.4913 441.058 61.9481 442.773 59.6168" stroke="#1A3447" stroke-width="1.24615" stroke-miterlimit="10"/>
<path d="M423.656 135.661C423.656 135.661 425.229 125.171 429.414 101.333C430.964 91.9187 433.202 82.631 436.11 73.5445" stroke="#1A3447" stroke-width="1.24615" stroke-miterlimit="10"/>
<path d="M454.212 101.556C454.904 97.2148 455.864 91.791 457.125 85.4968C459.577 73.4897 464.223 62.0378 470.829 51.7155" stroke="#1A3447" stroke-width="1.24615" stroke-miterlimit="10"/>
<path d="M452.616 112.995C452.616 112.995 452.895 110.272 453.62 105.395" stroke="#1A3447" stroke-width="1.24615" stroke-miterlimit="10"/>
<path d="M478.295 86.8583C479.411 81.3899 481.241 73.0199 483.083 64.7615C486.185 50.7669 489.087 47.7202 489.087 47.7202" stroke="#1A3447" stroke-width="1.24615" stroke-miterlimit="10"/>
<path d="M476.99 93.0744C476.99 93.0744 477.246 91.8803 477.67 89.8492" stroke="#1A3447" stroke-width="1.24615" stroke-miterlimit="10"/>
<path d="M503.427 75.185C503.427 75.185 504.454 69.605 506.63 62.3063C508.806 55.0077 510.637 52.1061 510.637 52.1061" stroke="#1A3447" stroke-width="1.24615" stroke-miterlimit="10"/>
<path d="M487.435 86.1441C487.435 86.1441 491.509 74.3591 494.968 62.8978C498.428 51.4365 500.827 49.0371 500.827 49.0371" stroke="#1A3447" stroke-width="1.24615" stroke-miterlimit="10"/>
<path d="M358.024 159.822C357.433 139.991 360.691 132.503 360.691 132.503" stroke="#1A3447" stroke-width="1.24615" stroke-miterlimit="10"/>
<path d="M354.084 181.595C354.084 181.595 357.879 179.966 358.068 164.498" stroke="#1A3447" stroke-width="1.24615" stroke-miterlimit="10"/>
<path d="M288.854 283.821C288.854 283.821 290.383 265.764 293.173 259.358C295.963 252.953 309.288 234.806 312.402 216.002C315.515 197.197 310.315 164.789 305.326 155.068C300.338 145.348 296.32 139.02 296.32 139.02C296.32 139.02 281.901 103.23 268.097 87.9073C254.292 72.5846 233.501 55.5433 226.95 52.7087C220.399 49.874 205.545 44.5172 200.88 40.8679C196.215 37.2186 190.836 30.8239 189.352 33.3461C187.867 35.8682 186.004 47.8541 186.004 47.8541C186.004 47.8541 175.245 68.701 171.339 84.7602C167.433 100.819 168.561 125.505 185.356 157.144C202.152 188.783 225.432 219.327 231.592 224.45C237.753 229.572 259.224 245.33 265.898 248.533C272.572 251.736 280.596 253.935 283.587 261.177C284.814 264.146 277.583 273.732 280.964 281.645C284.346 289.557 288.106 286.165 288.854 283.821Z" fill="#F0C376" stroke="#1A3447" stroke-width="1.24615" stroke-miterlimit="10"/>
<path d="M196.315 41.1804C196.315 41.1804 211.638 86.1552 231.101 120.807C247.533 149.79 262.484 179.589 275.897 210.087C285.941 233.523 290.305 255.631 290.249 260.307" stroke="#1A3447" stroke-width="1.24615" stroke-miterlimit="10"/>
<path d="M285.551 257.796C283.709 243.645 280.245 229.752 275.228 216.392C266.791 193.715 248.444 154.466 240.632 141.051" stroke="#1A3447" stroke-width="1.24615" stroke-miterlimit="10"/>
<path d="M291.354 178.415C285.774 192.119 275.897 210.12 275.897 210.12" stroke="#1A3447" stroke-width="1.24615" stroke-miterlimit="10"/>
<path d="M297.615 149.544C297.615 149.544 298.184 158.818 293.575 172.5C293.262 173.46 292.894 174.464 292.459 175.513" stroke="#1A3447" stroke-width="1.24615" stroke-miterlimit="10"/>
<path d="M296.577 217.43C291.276 226.425 286.533 235.71 286.533 237.73" stroke="#1A3447" stroke-width="1.24615" stroke-miterlimit="10"/>
<path d="M309.344 185.97C309.344 185.97 303.641 205.679 297.849 215.299" stroke="#1A3447" stroke-width="1.24615" stroke-miterlimit="10"/>
<path d="M283.609 127.425C283.176 137.484 280.547 147.326 275.909 156.262C268.275 170.636 264.302 179.118 264.302 179.118" stroke="#1A3447" stroke-width="1.24615" stroke-miterlimit="10"/>
<path d="M252.997 146.944C251.97 148.352 251.126 149.886 250.486 151.508" stroke="#1A3447" stroke-width="1.24615" stroke-miterlimit="10"/>
<path d="M274.715 101.958C274.715 101.958 271.367 111.388 265.787 124.2C262.617 131.08 258.943 137.715 254.794 144.053" stroke="#1A3447" stroke-width="1.24615" stroke-miterlimit="10"/>
<path d="M233.378 102.672C231.927 108.252 230.833 112.604 230.833 112.604" stroke="#1A3447" stroke-width="1.24615" stroke-miterlimit="10"/>
<path d="M248.957 75.2296C248.957 75.2296 236.759 89.905 234.706 97.5496C234.572 98.063 234.438 98.5763 234.293 99.0897" stroke="#1A3447" stroke-width="1.24615" stroke-miterlimit="10"/>
<path d="M262.851 88.3649C262.851 88.3649 251.624 110.049 246.982 118.687C242.339 127.324 241.982 130.963 241.982 130.963" stroke="#1A3447" stroke-width="1.24615" stroke-miterlimit="10"/>
<path d="M233.043 66.1566C233.043 66.1566 220.767 83.0193 219.138 90.9764" stroke="#1A3447" stroke-width="1.24615" stroke-miterlimit="10"/>
<path d="M218.613 52.4521C218.613 52.4521 209.92 65.6209 210.065 71" stroke="#1A3447" stroke-width="1.24615" stroke-miterlimit="10"/>
<path d="M274.904 219.015C265.314 215.336 255.386 212.607 245.263 210.868C229.45 208.279 221.749 202.788 218.066 200.01" stroke="#1A3447" stroke-width="1.24615" stroke-miterlimit="10"/>
<path d="M223.2 179.989C220.912 179.23 218.792 178.504 216.95 177.846C202.119 172.511 194.876 163.661 194.876 163.661" stroke="#1A3447" stroke-width="1.24615" stroke-miterlimit="10"/>
<path d="M264.28 192.499C264.28 192.499 243.578 186.562 227.675 181.45" stroke="#1A3447" stroke-width="1.24615" stroke-miterlimit="10"/>
<path d="M185.836 134.054C183.391 132.493 181.162 130.617 179.207 128.474" stroke="#1A3447" stroke-width="1.24615" stroke-miterlimit="10"/>
<path d="M250.241 161.686C250.241 161.686 240.197 158.148 217.62 149.499C208.669 146.189 199.978 142.216 191.617 137.614" stroke="#1A3447" stroke-width="1.24615" stroke-miterlimit="10"/>
<path d="M222.553 125.204C218.435 123.697 213.29 121.733 207.341 119.289C196.022 114.602 185.663 107.868 176.785 99.4245" stroke="#1A3447" stroke-width="1.24615" stroke-miterlimit="10"/>
<path d="M233.49 128.943C233.49 128.943 230.867 128.15 226.213 126.51" stroke="#1A3447" stroke-width="1.24615" stroke-miterlimit="10"/>
<path d="M212.71 98.766C207.554 96.534 199.675 93.186 191.919 89.838C178.772 84.1241 176.295 80.698 176.295 80.698" stroke="#1A3447" stroke-width="1.24615" stroke-miterlimit="10"/>
<path d="M218.557 101.221L215.522 99.949" stroke="#1A3447" stroke-width="1.24615" stroke-miterlimit="10"/>
<path d="M206.025 71.8816C206.025 71.8816 200.757 69.817 193.983 66.3016C187.209 62.7862 184.731 60.4314 184.731 60.4314" stroke="#1A3447" stroke-width="1.24615" stroke-miterlimit="10"/>
<path d="M213.736 89.6595C213.736 89.6595 202.945 83.4211 192.343 77.8522C181.741 72.2834 179.854 69.4599 179.854 69.4599" stroke="#1A3447" stroke-width="1.24615" stroke-miterlimit="10"/>
<path d="M261.479 230.711C241.893 227.53 235.163 222.899 235.163 222.899" stroke="#1A3447" stroke-width="1.24615" stroke-miterlimit="10"/>
<path d="M282.114 238.712C282.114 238.712 281.232 234.684 266.077 231.559" stroke="#1A3447" stroke-width="1.24615" stroke-miterlimit="10"/>
<path d="M395.142 137.268C395.142 137.268 486.509 93.1972 505.995 151.084C525.48 208.971 486.085 275.797 454.882 288.799C423.678 301.8 382.252 272.304 382.252 272.304L391.404 245.687C391.404 245.687 431.156 260.329 454.77 246.893C478.385 233.456 492.636 162.713 460.049 155.883C427.462 149.053 387.81 176.328 387.81 176.328L395.142 137.268Z" fill="white" stroke="#1A3447" stroke-width="1.24615" stroke-linecap="round" stroke-linejoin="round"/>
<path opacity="0.24" d="M457.404 153.115C464.1 154.142 472.671 159.622 475.74 165.257C472.95 156.898 468.497 147.301 457.884 145.627C431.803 141.498 397.508 156.229 386.951 162.702L385.522 170.324C386.806 171.708 426.759 148.428 457.404 153.115Z" fill="#362822"/>
<path opacity="0.24" d="M504.086 150.894C503.336 148.668 502.43 146.498 501.374 144.399C501.531 144.812 501.687 145.214 501.832 145.627C521.306 203.525 481.577 264.537 450.373 277.538C424.449 288.33 391.471 269.726 381.059 263.175L379.998 266.244C379.998 266.244 421.558 299.121 452.761 286.131C483.965 273.141 523.561 208.781 504.086 150.894Z" fill="#362822"/>
<g opacity="0.24">
<path d="M387.81 176.328C395.994 170.958 404.676 166.387 413.735 162.679C413.947 149.388 413.735 138.049 413.4 129.98C407.188 132.081 401.093 134.514 395.142 137.268L387.81 176.328Z" fill="#362822"/>
<path d="M405.041 249.526C400.424 248.498 395.87 247.201 391.404 245.643L382.253 272.304C386.807 275.419 391.564 278.226 396.493 280.708C400.029 270.514 402.885 260.098 405.041 249.526Z" fill="#362822"/>
</g>
<path d="M72.2944 122.76C73.3212 217.62 68.2099 344.074 235.688 344.074C411.146 344.018 398.066 217.62 399.082 122.76H72.2944Z" fill="white" stroke="#1A3447" stroke-width="1.24615" stroke-linecap="round" stroke-linejoin="round"/>
<g opacity="0.24">
<path d="M381.583 122.76C380.98 199.485 387.799 295.874 305.695 329.599C400.555 298.139 391.872 199.831 392.743 122.76H381.583Z" fill="#362822"/>
</g>
<path d="M72.4731 142.469V144.701H399.004V142.469H72.4731Z" fill="#1A3447" stroke="#1A3447" stroke-width="1.24615" stroke-miterlimit="10"/>
<path d="M398.926 164.264C398.981 159.476 398.992 154.711 399.004 149.99H72.5402C72.6071 154.707 72.7038 159.465 72.8303 164.264H398.926Z" fill="#1A3447" stroke="#1A3447" stroke-width="1.24615" stroke-miterlimit="10"/>
<path d="M354.977 344.308C354.977 344.308 332.903 336.318 325.693 330.838C318.484 325.359 299.579 303.485 277.058 293.385C254.537 283.285 212.643 278.23 199.128 280.752C185.613 283.274 176.607 285.808 176.607 285.808C176.607 285.808 127.961 290.439 104.993 301.376C82.026 312.313 54.9965 330.838 49.5839 337.579C44.1713 344.319 33.3684 359.899 27.5206 364.095C21.6727 368.291 12.1979 372.51 14.9098 375.032C17.6216 377.554 32.018 383.904 32.018 383.904C32.018 383.904 54.9965 403.691 73.9127 413.79C92.8289 423.89 123.909 431.044 168.047 422.205C212.185 413.366 256.78 396.537 264.894 391.058C273.007 385.578 298.675 365.814 304.534 359.073C310.393 352.332 315.393 343.683 325.247 342.657C329.298 342.244 339.208 354.029 350.022 352.756C360.836 351.484 357.678 345.96 354.977 344.308Z" fill="#F0C376" stroke="#1A3447" stroke-width="1.24615" stroke-miterlimit="10"/>
<path d="M339.398 344.096C338.952 341.957 338.617 339.797 338.393 337.623C333.36 335.391 328.45 332.925 325.693 330.838C318.495 325.37 299.579 303.485 277.058 293.385C254.537 283.285 212.643 278.23 199.128 280.752C185.613 283.274 176.607 285.808 176.607 285.808C176.607 285.808 138.094 289.479 113.419 297.994C123.898 307.179 137.536 316.219 155.124 324.321C195.612 342.98 241.759 355.625 251.747 356.037C261.735 356.45 295.014 355.814 304.076 353.928C305.974 353.538 307.904 353.058 309.835 352.589C313.908 347.723 318.406 343.337 325.247 342.623C328.305 342.311 334.711 348.94 342.311 351.674C341.103 349.245 340.128 346.708 339.398 344.096Z" fill="#1A3447" stroke="#1A3447" stroke-width="1.24615" stroke-miterlimit="10"/>
<path d="M26.6167 369.563C26.6167 369.563 86.97 367.041 135.616 356.093C184.263 345.145 227.508 337.992 259.492 334.209C291.477 330.425 320.303 332.947 326.162 334.633" stroke="#1A3447" stroke-width="1.24615" stroke-miterlimit="10"/>
<path d="M321.642 339.264C303.61 336.568 285.335 335.86 267.148 337.155C236.514 339.264 182.466 347.254 163.55 351.886" stroke="#1A3447" stroke-width="1.24615" stroke-miterlimit="10"/>
<path d="M224.316 305.17C239.817 316.464 259.481 334.186 259.481 334.186" stroke="#1A3447" stroke-width="1.24615" stroke-miterlimit="10"/>
<path d="M190.122 287.928C190.122 287.928 201.829 290.45 217.598 300.55C218.714 301.253 219.83 302.034 221.046 302.86" stroke="#1A3447" stroke-width="1.24615" stroke-miterlimit="10"/>
<path d="M274.391 312.48C284.123 321.799 294.367 330.526 296.867 331.307" stroke="#1A3447" stroke-width="1.24615" stroke-miterlimit="10"/>
<path d="M238.824 286.645C238.824 286.645 261.791 300.115 272.159 310.214" stroke="#1A3447" stroke-width="1.24615" stroke-miterlimit="10"/>
<path d="M158.595 296.756C171.021 300.733 182.513 307.187 192.376 315.728C208.134 329.611 217.598 337.188 217.598 337.188" stroke="#1A3447" stroke-width="1.24615" stroke-miterlimit="10"/>
<path d="M174.33 339.376C176.852 341.931 178.605 343.628 179.308 343.84" stroke="#1A3447" stroke-width="1.24615" stroke-miterlimit="10"/>
<path d="M124.356 298.43C124.356 298.43 135.17 305.594 149.578 316.531C157.245 322.595 164.483 329.184 171.239 336.251" stroke="#1A3447" stroke-width="1.24615" stroke-miterlimit="10"/>
<path d="M113.598 347.176C120.115 350.781 125.26 353.571 125.26 353.571" stroke="#1A3447" stroke-width="1.24615" stroke-miterlimit="10"/>
<path d="M83.8229 319.477C83.8229 319.477 98.688 338.84 107.694 343.884L109.491 344.9" stroke="#1A3447" stroke-width="1.24615" stroke-miterlimit="10"/>
<path d="M104.089 307.692C104.089 307.692 127.961 328.316 137.424 336.708C146.888 345.101 151.386 346.752 151.386 346.752" stroke="#1A3447" stroke-width="1.24615" stroke-miterlimit="10"/>
<path d="M68.076 335.045C68.076 335.045 85.6419 355.256 95.1056 359.888" stroke="#1A3447" stroke-width="1.24615" stroke-miterlimit="10"/>
<path d="M46.8722 347.255C46.8722 347.255 60.8334 361.986 67.5963 363.671" stroke="#1A3447" stroke-width="1.24615" stroke-miterlimit="10"/>
<path d="M270.295 338.416C263.029 348.397 256.838 359.118 251.826 370.4C244.17 388.078 235.164 395.231 230.622 398.602" stroke="#1A3447" stroke-width="1.24615" stroke-miterlimit="10"/>
<path d="M207.163 385.701C205.567 388.122 204.072 390.354 202.699 392.285C191.885 407.909 178.828 413.333 178.828 413.333" stroke="#1A3447" stroke-width="1.24615" stroke-miterlimit="10"/>
<path d="M234.26 341.786C234.26 341.786 221.057 364.039 210.232 380.947" stroke="#1A3447" stroke-width="1.24615" stroke-miterlimit="10"/>
<path d="M139.433 413.768C136.787 416.114 133.836 418.092 130.661 419.649" stroke="#1A3447" stroke-width="1.24615" stroke-miterlimit="10"/>
<path d="M191.952 347.679C191.952 347.679 184.754 358.202 167.634 381.772C160.979 391.155 153.586 399.992 145.526 408.199" stroke="#1A3447" stroke-width="1.24615" stroke-miterlimit="10"/>
<path d="M138.696 367.633C135.661 371.952 131.766 377.32 127.057 383.446C117.941 395.193 106.622 405.049 93.7328 412.462" stroke="#1A3447" stroke-width="1.24615" stroke-miterlimit="10"/>
<path d="M146.43 356.093C146.43 356.093 144.701 358.894 141.353 363.794" stroke="#1A3447" stroke-width="1.24615" stroke-miterlimit="10"/>
<path d="M102.985 370.11C98.8332 375.411 92.4497 383.502 86.0773 391.448C75.2633 404.918 70.3082 406.603 70.3082 406.603" stroke="#1A3447" stroke-width="1.24615" stroke-miterlimit="10"/>
<path d="M107.694 364.095L105.261 367.164" stroke="#1A3447" stroke-width="1.24615" stroke-miterlimit="10"/>
<path d="M67.6077 368.726C64.363 372.967 60.9025 377.039 57.24 380.924C50.9346 387.62 47.33 389.763 47.33 389.763" stroke="#1A3447" stroke-width="1.24615" stroke-miterlimit="10"/>
<path d="M91.9249 365.78C91.9249 365.78 81.122 376.293 71.2119 386.817C61.3019 397.341 57.2396 398.602 57.2396 398.602" stroke="#1A3447" stroke-width="1.24615" stroke-miterlimit="10"/>
<path d="M281.109 358.236C271.646 380.121 263.99 386.426 263.99 386.426" stroke="#1A3447" stroke-width="1.24615" stroke-miterlimit="10"/>
<path d="M296.856 336.731C296.856 336.731 291.577 336.385 283.464 353.091" stroke="#1A3447" stroke-width="1.24615" stroke-miterlimit="10"/>
<path d="M359.531 357.444C359.531 357.444 346.217 339.164 343.594 330.838C340.972 322.513 338.695 294.457 326.285 274.201C313.875 253.946 282.449 227.575 269.782 222.486C257.115 217.397 248.176 214.674 248.176 214.674C248.176 214.674 205.344 192.733 179.743 189.564C154.142 186.394 120.684 187.332 112.136 189.999C103.587 192.666 85.2402 199.775 77.8634 200.132C70.4867 200.489 60.1413 198.949 60.8333 202.465C61.5252 205.98 69.5604 218.814 69.5604 218.814C69.5604 218.814 76.4684 247.283 85.9321 265.608C95.3958 283.933 116.611 306.342 158.327 322.524C200.043 338.706 246.982 348.426 256.981 348.192C266.981 347.958 300.137 345.302 309.043 342.869C317.949 340.436 327.334 335.949 336.072 340.335C339.666 342.132 340.67 357.075 350.335 361.785C359.999 366.494 360.736 360.267 359.531 357.444Z" fill="#F0C376" stroke="#1A3447" stroke-width="1.24615" stroke-miterlimit="10"/>
<path d="M73.8013 204.161C73.8013 204.161 125.037 234.081 171.741 250.854C218.446 267.628 258.399 284.669 287.035 298.508C315.672 312.346 337.869 329.7 341.719 334.22" stroke="#1A3447" stroke-width="1.24615" stroke-miterlimit="10"/>
<path d="M335.146 335.615C321.835 323.767 307.205 313.492 291.544 304.992C265.05 290.484 215.656 268.42 197.298 262.204" stroke="#1A3447" stroke-width="1.24615" stroke-miterlimit="10"/>
<path d="M275.652 255.955C281.567 273.465 286.991 298.508 286.991 298.508" stroke="#1A3447" stroke-width="1.24615" stroke-miterlimit="10"/>
<path d="M258.019 223.602C258.019 223.602 266.133 231.894 272.985 248.567C273.465 249.738 273.945 250.988 274.424 252.294" stroke="#1A3447" stroke-width="1.24615" stroke-miterlimit="10"/>
<path d="M312.48 288.486C314.846 301.309 317.971 313.931 319.567 315.895" stroke="#1A3447" stroke-width="1.24615" stroke-miterlimit="10"/>
<path d="M298.843 248.355C298.843 248.355 309.59 271.623 311.978 285.439" stroke="#1A3447" stroke-width="1.24615" stroke-miterlimit="10"/>
<path d="M226.693 214.172C234.504 224.011 240.072 235.437 243.009 247.652C247.562 267.449 250.743 278.699 250.743 278.699" stroke="#1A3447" stroke-width="1.24615" stroke-miterlimit="10"/>
<path d="M213.759 257.617C214.294 261.055 214.707 263.387 215.131 263.967" stroke="#1A3447" stroke-width="1.24615" stroke-miterlimit="10"/>
<path d="M197.532 197.409C197.532 197.409 202.096 209.027 207.319 225.689C210.31 235.219 212.018 245.777 213.178 253.41" stroke="#1A3447" stroke-width="1.24615" stroke-miterlimit="10"/>
<path d="M159.019 231.838C162.199 238.266 164.744 243.288 164.744 243.288" stroke="#1A3447" stroke-width="1.24615" stroke-miterlimit="10"/>
<path d="M151.318 193.247C151.318 193.247 151.81 217.073 156.151 226.001L157.032 227.787" stroke="#1A3447" stroke-width="1.24615" stroke-miterlimit="10"/>
<path d="M175.212 194.284C175.212 194.284 182.343 223.925 185.022 235.867C187.7 247.808 190.39 251.591 190.39 251.591" stroke="#1A3447" stroke-width="1.24615" stroke-miterlimit="10"/>
<path d="M128.887 197.711C128.887 197.711 131.119 223.658 136.063 232.485" stroke="#1A3447" stroke-width="1.24615" stroke-miterlimit="10"/>
<path d="M104.034 196.539C104.034 196.539 106.589 216.069 111.131 221.091" stroke="#1A3447" stroke-width="1.24615" stroke-miterlimit="10"/>
<path d="M293.374 307.704C281.33 312.079 269.743 317.622 258.778 324.254C241.748 334.744 229.985 335.86 224.182 336.251" stroke="#1A3447" stroke-width="1.24615" stroke-miterlimit="10"/>
<path d="M212.676 313.161C209.897 314.277 207.308 315.393 205.032 316.241C186.673 323.339 172.589 320.917 172.589 320.917" stroke="#1A3447" stroke-width="1.24615" stroke-miterlimit="10"/>
<path d="M261.657 291.365C261.657 291.365 237.273 302.704 218.133 310.884" stroke="#1A3447" stroke-width="1.24615" stroke-miterlimit="10"/>
<path d="M139.857 300.371C136.287 300.905 132.663 300.969 129.077 300.561" stroke="#1A3447" stroke-width="1.24615" stroke-miterlimit="10"/>
<path d="M223.2 273.777C223.2 273.777 210.924 278.621 182.477 288.955C171.322 293.149 159.87 296.506 148.216 298.999" stroke="#1A3447" stroke-width="1.24615" stroke-miterlimit="10"/>
<path d="M167.266 261.992C162.144 263.945 155.682 266.3 148.082 268.856C133.569 273.691 118.288 275.806 103.007 275.094" stroke="#1A3447" stroke-width="1.24615" stroke-miterlimit="10"/>
<path d="M180.647 256.591C180.647 256.591 177.522 257.986 171.797 260.24" stroke="#1A3447" stroke-width="1.24615" stroke-miterlimit="10"/>
<path d="M136.364 245.096C129.668 247.261 119.546 250.542 109.48 253.7C92.3936 259.068 87.2935 257.83 87.2935 257.83" stroke="#1A3447" stroke-width="1.24615" stroke-miterlimit="10"/>
<path d="M143.886 242.641L139.991 243.913" stroke="#1A3447" stroke-width="1.24615" stroke-miterlimit="10"/>
<path d="M108.063 225.198C108.063 225.198 101.367 227.552 92.126 229.762C82.8855 231.972 78.6001 231.782 78.6001 231.782" stroke="#1A3447" stroke-width="1.24615" stroke-miterlimit="10"/>
<path d="M129.88 235.666C129.88 235.666 114.591 238.601 100.049 242.016C85.5079 245.431 81.3899 244.315 81.3899 244.315" stroke="#1A3447" stroke-width="1.24615" stroke-miterlimit="10"/>
<path d="M290.272 329.722C269.19 342.724 259.024 343.873 259.024 343.873" stroke="#1A3447" stroke-width="1.24615" stroke-miterlimit="10"/>
<path d="M316.286 320.404C316.286 320.404 312.145 317.312 295.305 326.754" stroke="#1A3447" stroke-width="1.24615" stroke-miterlimit="10"/>
<path d="M238.311 365.479C238.311 365.479 224.662 371.84 219.249 382.654C213.837 393.468 214.942 412.842 227.363 423.299C239.784 433.756 262.863 444.369 293.653 443.387C324.444 442.405 344.476 421.178 347.645 407.284C350.815 393.39 344.096 377.822 325.972 366.907C307.849 355.993 294.803 357.098 276.366 357.131C257.93 357.165 238.311 365.479 238.311 365.479Z" fill="#362822" stroke="#1A3447" stroke-width="1.24615" stroke-miterlimit="10"/>
<path d="M79.4702 380.924C79.4702 380.924 66.8482 389.149 63.0203 400.644C59.1925 412.139 63.0203 431.133 76.7918 439.704C90.5632 448.275 114.914 455.551 145.27 450.273C175.625 444.994 192.443 421.111 193.615 406.905C194.786 392.698 185.948 378.246 166.462 369.999C146.977 361.751 134.221 364.687 115.975 367.331C97.7279 369.976 79.4702 380.924 79.4702 380.924Z" fill="#362822" stroke="#1A3447" stroke-width="1.24615" stroke-miterlimit="10"/>
<path d="M471.655 378.112C471.655 378.112 479.735 380.478 485.985 389.484C488.94 393.853 490.84 398.849 491.538 404.077C492.235 409.306 491.709 414.625 490.002 419.616C486.654 429.046 470.149 446.032 454.87 453.821C439.592 461.611 420.911 462.537 405.867 454.536C390.823 446.534 386.772 428.075 385.578 425.397C384.384 422.718 380.623 404.996 390.042 389.372C399.461 373.748 408.746 364.251 423.779 359.709C438.811 355.167 453.029 357.711 460.183 364.497C467.336 371.282 468.463 377.465 468.463 377.465L471.655 378.112Z" fill="white"/>
<path d="M385.187 401.302L387.955 393.345C388.346 392.486 388.781 391.627 389.25 390.779C388.279 395.243 386.917 402.932 387.33 409.695C387.966 419.962 390.165 423.232 402.351 435.742C414.538 448.253 418.511 447.717 424.404 449.681C430.296 451.645 444.905 450.797 459.959 444.67C469.003 440.955 476.868 434.852 482.715 427.015L491.352 414.304C491.053 416.106 490.601 417.879 490.002 419.605C486.654 429.035 470.148 446.021 454.87 453.81C439.592 461.6 420.911 462.526 405.867 454.524C390.823 446.523 386.772 428.064 385.578 425.386C384.674 423.388 382.353 412.92 385.187 401.302Z" fill="#362822"/>
<path d="M463.698 379.306C463.698 379.306 461.254 378.358 453.989 387.832C446.723 397.307 434.704 403.144 428.667 410.9C422.629 418.656 417.283 426.334 415.275 429.437C413.266 432.539 409.784 434.66 408.11 437.394C406.436 440.128 405.331 444.291 404.327 443.856C403.322 443.42 408.333 435.24 408.188 432.785C408.043 430.33 405.655 424.973 406.771 422.808C407.887 420.643 412.685 417.674 412.027 416.648C411.369 415.621 400.588 411.38 405.431 412.407C410.275 413.433 415.241 416 416.525 414.07C417.808 412.139 418.757 407.72 418.757 407.72C418.757 407.72 417.161 406.938 419.616 405.7C422.071 404.461 425.296 399.629 425.296 399.629C425.296 399.629 433.443 391.214 438.889 387.353C444.335 383.491 446.88 381.773 449.681 381.036C452.482 380.299 452.125 380.891 454.725 379.016C457.325 377.141 456.366 375.4 458.553 376.527C460.74 377.655 467.325 375.668 463.698 379.306Z" fill="#362822" stroke="#362822" stroke-width="1.24615" stroke-miterlimit="10"/>
<path d="M467.146 441.434C467.146 441.434 456.756 445.842 448.409 448.933C440.061 452.025 424.281 449.592 418.511 447.717" stroke="#1A3447" stroke-width="1.24615" stroke-miterlimit="10"/>
<path d="M413.422 445.764C413.422 445.764 408.679 443.231 407.463 441.657" stroke="#1A3447" stroke-width="1.24615" stroke-miterlimit="10"/>
<path d="M403.702 437.561C403.702 437.561 397.095 431.334 394.093 426.736C391.091 422.138 388.368 420.732 387.33 409.695C386.292 398.658 389.383 393.624 389.383 393.624" stroke="#1A3447" stroke-width="1.24615" stroke-miterlimit="10"/>
<path d="M471.655 378.112C471.655 378.112 479.735 380.478 485.985 389.484C488.94 393.853 490.84 398.849 491.538 404.077C492.235 409.306 491.709 414.625 490.002 419.616C486.654 429.046 470.149 446.032 454.87 453.821C439.592 461.611 420.911 462.537 405.867 454.536C390.823 446.534 386.772 428.075 385.578 425.397C384.384 422.719 380.623 404.996 390.042 389.372C399.461 373.748 408.746 364.251 423.779 359.709C438.811 355.167 453.029 357.711 460.183 364.497C467.336 371.282 468.463 377.465 468.463 377.465L471.655 378.112Z" stroke="#1A3447" stroke-width="1.24615" stroke-miterlimit="10"/>
<path d="M437.282 442.918C437.16 443.454 438.019 444.101 439.191 444.347C440.363 444.592 441.423 444.347 441.523 443.811C441.624 443.275 440.787 442.628 439.604 442.382C438.421 442.137 437.394 442.371 437.282 442.918Z" stroke="#1A3447" stroke-width="1.24615" stroke-miterlimit="10"/>
<path d="M453.197 365.74C453.311 365.197 452.45 364.557 451.274 364.309C450.097 364.062 449.051 364.302 448.937 364.845C448.823 365.388 449.684 366.028 450.86 366.275C452.037 366.523 453.083 366.283 453.197 365.74Z" stroke="#1A3447" stroke-width="1.24615" stroke-miterlimit="10"/>
<path d="M437.249 361.796C437.003 362.912 438.275 364.184 440.083 364.564C441.891 364.943 443.554 364.318 443.788 363.169C444.023 362.019 442.762 360.78 440.954 360.401C439.146 360.022 437.472 360.647 437.249 361.796Z" stroke="#1A3447" stroke-width="1.24615" stroke-miterlimit="10"/>
<path d="M302.927 333.584C302.927 333.584 287.984 335.514 279.558 344.186C271.132 352.857 266.311 371.65 274.982 385.377C283.654 399.104 302.436 416.268 332.066 424.638C361.696 433.008 387.23 418.857 394.45 406.57C401.671 394.283 400.03 377.431 386.024 361.528C372.019 345.625 359.24 342.735 341.708 337.199C324.176 331.664 302.927 333.584 302.927 333.584Z" fill="white"/>
<path d="M394.45 406.57C398.21 400.097 399.52 392.489 398.144 385.132C392.743 390.232 377.23 400.231 338.851 399.807C309.523 399.472 285.372 379.953 270.664 364.274C269.635 371.595 271.16 379.048 274.982 385.377C283.654 399.104 302.436 416.212 332.066 424.638C361.696 433.064 387.252 418.857 394.45 406.57Z" fill="#362822"/>
<path d="M302.927 333.584C302.927 333.584 287.984 335.514 279.558 344.186C271.132 352.857 266.311 371.65 274.982 385.377C283.654 399.104 302.436 416.268 332.066 424.638C361.696 433.008 387.23 418.857 394.45 406.57C401.671 394.283 400.03 377.431 386.024 361.528C372.019 345.625 359.24 342.735 341.708 337.199C324.176 331.664 302.927 333.584 302.927 333.584Z" stroke="#1A3447" stroke-width="1.24615" stroke-miterlimit="10"/>
<path d="M304.534 340.514C304.534 341.251 303.641 341.853 302.537 341.853C301.432 341.853 300.528 341.251 300.528 340.514C300.528 339.777 301.432 339.175 302.537 339.175C303.641 339.175 304.534 339.777 304.534 340.514Z" stroke="#1A3447" stroke-width="1.24615" stroke-miterlimit="10"/>
<path d="M320.571 345.123C320.571 346.083 319.277 346.864 317.681 346.864C316.085 346.864 314.779 346.083 314.779 345.123C314.779 344.163 316.074 343.382 317.681 343.382C319.288 343.382 320.571 344.152 320.571 345.123Z" stroke="#1A3447" stroke-width="1.24615" stroke-miterlimit="10"/>
<path d="M308.886 348.527C308.886 349.263 307.982 349.866 306.878 349.866C305.773 349.866 304.869 349.263 304.869 348.527C304.869 347.79 305.773 347.199 306.878 347.199C307.982 347.199 308.886 347.79 308.886 348.527Z" stroke="#1A3447" stroke-width="1.24615" stroke-miterlimit="10"/>
<path d="M424.225 437.617C424.225 437.617 420.341 433.309 402.474 426.636C384.607 419.962 363.492 417.161 357.678 417.808C351.864 418.455 348.203 417.161 341.741 419.103C335.28 421.045 332.479 421.469 331.619 422.54C330.76 423.611 328.383 425.776 328.171 426.424C327.959 427.071 318.049 429.225 317.837 447.315C317.625 465.406 328.171 478.106 348.203 487.58C368.235 497.055 378.134 502.01 399.885 501.363C421.636 500.716 431.981 489.522 438.655 480.472C445.329 471.421 443.61 456.143 438.655 449.034C435.306 444.551 430.75 441.114 425.52 439.124L424.225 437.617Z" fill="white"/>
<path d="M440.82 463.899C440.195 472.191 434.604 478.608 429.838 481.922C425.073 485.237 412.697 487.692 409.572 487.926C406.447 488.161 384.919 487.101 375.4 485.449C365.88 483.797 355.937 478.541 347.846 475.293C339.755 472.046 329.41 464.312 323.193 455.205C318.997 449.034 319.053 440.987 319.533 436.412C318.37 439.928 317.793 443.612 317.825 447.315C317.602 465.406 328.16 478.106 348.192 487.58C368.224 497.055 378.123 502.01 399.874 501.363C421.625 500.716 431.97 489.522 438.644 480.472C443.744 473.552 443.933 462.995 441.523 455.228C441.356 457.426 441.132 460.361 440.82 463.899Z" fill="#362822"/>
<path d="M333.338 430.508C333.338 430.508 342.601 437.204 344.107 438.264C345.614 439.325 351.428 441.713 356.383 444.079C361.338 446.445 372.967 450.775 385.455 454.636C397.943 458.498 412.808 464.323 415.397 465.182C417.987 466.042 421.212 468.196 421.636 471.22C422.06 474.244 414.75 482.849 417.763 483.496C420.777 484.143 424.649 478.753 425.296 476.599C425.944 474.445 424.649 472.291 426.591 471.644C428.533 470.997 432.84 473.151 432.84 471.644C432.84 470.137 427.26 466.912 427.26 466.912C423.052 464.178 418.664 461.733 414.125 459.591C407.876 456.79 405.074 457.437 397.541 453.342C390.008 449.246 383.524 444.726 377.063 441.936C372.267 440.048 367.284 438.675 362.198 437.84C361.338 437.628 365.423 441.289 358.749 435.91C352.076 430.531 343.895 430.519 341.741 430.095C339.588 429.671 327.736 424.917 333.338 430.508Z" fill="#362822" stroke="#362822" stroke-width="1.24615" stroke-miterlimit="10"/>
<path d="M319.991 445.797C319.991 445.797 317.837 454.848 330.325 463.653C342.813 472.459 348.415 476.365 355.993 478.519" stroke="#1A3447" stroke-width="1.24615" stroke-miterlimit="10"/>
<path d="M360.044 480.047C368.623 483.496 377.592 485.883 386.75 487.156C400.744 488.875 417.998 486.933 417.998 486.933" stroke="#1A3447" stroke-width="1.24615" stroke-miterlimit="10"/>
<path d="M425.52 483.92C428.08 482.929 430.474 481.552 432.617 479.835C436.143 476.951 438.701 473.056 439.949 468.675" stroke="#1A3447" stroke-width="1.24615" stroke-miterlimit="10"/>
<path d="M424.225 437.617C424.225 437.617 420.341 433.309 402.474 426.636C384.607 419.962 363.492 417.161 357.678 417.808C351.864 418.455 348.203 417.161 341.741 419.103C335.28 421.045 332.479 421.469 331.619 422.54C330.76 423.611 328.383 425.776 328.171 426.424C327.959 427.071 318.049 429.225 317.837 447.315C317.625 465.406 328.171 478.106 348.203 487.58C368.235 497.055 378.134 502.01 399.885 501.363C421.636 500.716 431.981 489.522 438.655 480.472C445.329 471.421 443.61 456.143 438.655 449.034C435.306 444.551 430.75 441.114 425.52 439.124L424.225 437.617Z" stroke="#1A3447" stroke-width="1.24615" stroke-miterlimit="10"/>
<path d="M348.382 466.901C349.762 466.901 350.882 466.152 350.882 465.227C350.882 464.302 349.762 463.553 348.382 463.553C347.001 463.553 345.882 464.302 345.882 465.227C345.882 466.152 347.001 466.901 348.382 466.901Z" stroke="#1A3447" stroke-width="1.24615" stroke-miterlimit="10"/>
<path d="M360.233 472.247C360.233 472.793 359.486 473.251 358.571 473.251C357.655 473.251 356.897 472.793 356.897 472.247C356.897 471.7 357.644 471.242 358.571 471.242C359.497 471.242 360.233 471.689 360.233 472.247Z" stroke="#1A3447" stroke-width="1.24615" stroke-miterlimit="10"/>
<path d="M383.457 469.579C384.105 469.579 384.629 469.279 384.629 468.91C384.629 468.54 384.105 468.24 383.457 468.24C382.81 468.24 382.286 468.54 382.286 468.91C382.286 469.279 382.81 469.579 383.457 469.579Z" stroke="#1A3447" stroke-width="1.24615" stroke-miterlimit="10"/>
<path d="M431.055 446.858C431.055 447.416 430.084 447.862 428.879 447.862C427.673 447.862 426.714 447.416 426.714 446.858C426.714 446.3 427.685 445.853 428.879 445.853C430.073 445.853 431.055 446.3 431.055 446.858Z" stroke="#1A3447" stroke-width="1.24615" stroke-miterlimit="10"/>
<path d="M220.008 405.387C219.514 404.772 218.957 404.211 218.345 403.713C214.127 400.186 196.941 387.263 173.382 388.87C149.298 390.522 123.586 398.836 116.689 414.918C109.792 430.999 118.028 453.487 132.558 460.953C159.834 474.981 177.198 467.392 196.36 460.116C229.952 447.349 231.179 419.46 220.008 405.387Z" fill="white"/>
<path d="M115.696 424.85C115.696 424.85 119.836 434.794 122.113 437.483C124.389 440.173 134.132 446.188 136.409 447.427C138.685 448.665 151.274 453.23 153.885 453.442C156.497 453.654 175.558 450.094 175.558 450.094C175.558 450.094 187.99 448.654 190.892 447.404C193.793 446.154 202.487 442.639 202.487 442.639C205.463 441.099 208.298 439.299 210.958 437.26C213.881 434.771 220.432 428.22 220.432 428.22C220.432 428.22 219.06 440.362 215.745 446.991C212.431 453.62 192.956 461.499 191.517 462.113C190.077 462.727 175.77 468.53 163.963 468.329C152.156 468.128 139.065 465.372 132.559 460.908C126.052 456.444 118.385 446.768 116.734 442.003C115.082 437.238 115.696 424.85 115.696 424.85Z" fill="#362822"/>
<path d="M125.929 427.807C125.929 427.807 135.873 427.807 138.931 425.765C141.989 423.723 146.832 411.257 157.032 408.434C167.232 405.61 176.919 406.135 186.048 403.847C195.177 401.559 201.605 397.977 201.349 401.035C201.092 404.092 203.904 399.762 201.092 404.104C198.28 408.445 196.505 407.92 178.66 412.764C160.815 417.607 156.474 420.163 147.557 425.765C138.641 431.368 138.886 434.693 132.77 434.95C126.655 435.207 117.727 428.578 118.486 425.263C119.244 421.948 123.63 425.52 125.929 427.807Z" fill="#362822" stroke="#362822" stroke-width="1.24615" stroke-miterlimit="10"/>
<path d="M118.787 431.691C118.787 431.691 122.872 440.943 129.333 443.744C135.795 446.545 142.044 452.795 153.885 453.442C165.726 454.089 176.283 449.346 182.098 448.487C187.912 447.628 189.91 448.052 192.655 446.545C195.4 445.039 197.61 443.32 199.117 442.449" stroke="#1A3447" stroke-width="1.24615" stroke-miterlimit="10"/>
<path d="M203.849 439.436C203.849 439.436 208.157 439.659 210.958 437.282C212.8 435.674 214.461 433.871 215.913 431.903L220.433 428.243L223.881 424.147" stroke="#1A3447" stroke-width="1.24615" stroke-miterlimit="10"/>
<path d="M220.008 405.387C219.514 404.772 218.957 404.211 218.345 403.713C214.127 400.186 196.941 387.263 173.382 388.87C149.298 390.522 123.586 398.836 116.689 414.918C109.792 430.999 118.028 453.487 132.558 460.953C159.834 474.981 177.198 467.392 196.36 460.116C229.952 447.349 231.179 419.46 220.008 405.387Z" stroke="#1A3447" stroke-width="1.24615" stroke-miterlimit="10"/>
<path d="M182.365 444.492C183.746 444.492 184.865 443.742 184.865 442.818C184.865 441.893 183.746 441.144 182.365 441.144C180.985 441.144 179.866 441.893 179.866 442.818C179.866 443.742 180.985 444.492 182.365 444.492Z" stroke="#1A3447" stroke-width="1.24615" stroke-miterlimit="10"/>
<path d="M151.631 444.313C151.631 444.782 151.073 445.15 150.381 445.15C149.689 445.15 149.131 444.782 149.131 444.313C149.131 443.844 149.689 443.476 150.381 443.476C151.073 443.476 151.631 443.856 151.631 444.313Z" stroke="#1A3447" stroke-width="1.24615" stroke-miterlimit="10"/>
<path d="M203.246 424.437C203.246 424.906 202.677 425.274 201.985 425.274C201.293 425.274 200.735 424.906 200.735 424.437C200.735 423.969 201.293 423.611 201.985 423.611C202.677 423.611 203.246 423.98 203.246 424.437Z" stroke="#1A3447" stroke-width="1.24615" stroke-miterlimit="10"/>
<path d="M126.499 415.922C126.499 416.38 125.929 416.759 125.237 416.759C124.546 416.759 123.988 416.38 123.988 415.922C123.988 415.464 124.546 415.085 125.237 415.085C125.929 415.085 126.499 415.464 126.499 415.922Z" stroke="#1A3447" stroke-width="1.24615" stroke-miterlimit="10"/>
<path d="M244.292 422.027C244.292 422.027 235.889 422.674 227.921 430.218C224.136 433.885 221.252 438.379 219.496 443.347C217.74 448.316 217.159 453.624 217.799 458.855C219.093 468.765 231.804 488.797 245.152 499.566C258.499 510.336 276.601 515.067 292.961 510.324C309.322 505.581 317.089 488.362 318.808 485.996C320.526 483.63 327.847 467.024 321.821 449.815C315.795 432.606 308.686 421.379 294.903 413.846C281.12 406.313 266.691 405.878 258.287 411.045C249.884 416.212 247.518 422.027 247.518 422.027H244.292Z" fill="white"/>
<path d="M324.142 462.493L323.026 454.145C322.818 453.23 322.572 452.304 322.29 451.366C322.29 455.931 322.066 463.732 320.27 470.271C317.547 480.193 314.69 482.938 300.182 492.669C285.674 502.401 281.901 501.073 275.741 501.787C269.581 502.501 255.43 498.674 241.971 489.567C233.908 484.061 227.49 476.47 223.401 467.604L217.62 453.386C217.537 455.212 217.611 457.042 217.843 458.855C219.138 468.765 231.849 488.797 245.196 499.566C258.544 510.336 276.645 515.068 293.006 510.325C309.366 505.582 317.134 488.362 318.852 485.996C320.091 484.221 324.522 474.501 324.142 462.493Z" fill="#362822"/>
<path d="M251.825 424.828C251.825 424.828 254.414 424.404 259.581 435.173C264.749 445.942 275.306 454.145 279.669 462.95C284.033 471.756 287.638 480.393 288.932 483.842C290.227 487.29 293.24 490.08 294.311 493.105C295.383 496.129 295.606 500.426 296.677 500.202C297.749 499.979 294.523 490.951 295.171 488.574C295.818 486.197 299.266 481.476 298.619 479.099C297.972 476.722 293.876 472.86 294.747 471.99C295.617 471.119 307.023 469.2 302.068 469.2C297.113 469.2 291.722 470.706 290.908 468.553C290.093 466.399 290.048 461.857 290.048 461.857C290.048 461.857 291.767 461.433 289.613 459.703C287.459 457.973 285.316 452.605 285.316 452.605C285.316 452.605 279.067 442.695 274.547 437.74C270.027 432.785 267.851 430.631 265.284 429.336C262.717 428.042 262.918 428.7 260.764 426.323C258.611 423.946 259.894 422.451 257.528 423.098C255.162 423.745 249.035 420.52 251.825 424.828Z" fill="#362822" stroke="#362822" stroke-width="1.24615" stroke-miterlimit="10"/>
<path d="M235.677 484.913C235.677 484.913 244.94 491.375 252.417 496.073C259.894 500.772 275.853 501.653 281.924 501.028" stroke="#1A3447" stroke-width="1.24615" stroke-miterlimit="10"/>
<path d="M287.37 500.202C287.37 500.202 292.537 498.696 294.066 497.412" stroke="#1A3447" stroke-width="1.24615" stroke-miterlimit="10"/>
<path d="M298.563 494.176C298.563 494.176 306.375 489.444 310.192 485.56C314.009 481.677 317.089 480.829 320.314 470.271C323.54 459.714 321.609 454.123 321.609 454.123" stroke="#1A3447" stroke-width="1.24615" stroke-miterlimit="10"/>
<path d="M244.292 422.027C244.292 422.027 235.889 422.674 227.921 430.218C224.136 433.885 221.252 438.379 219.496 443.347C217.74 448.316 217.159 453.624 217.799 458.855C219.093 468.765 231.804 488.797 245.152 499.566C258.499 510.336 276.601 515.067 292.961 510.324C309.322 505.581 317.089 488.362 318.808 485.996C320.526 483.63 327.847 467.024 321.821 449.815C315.795 432.606 308.686 421.379 294.903 413.846C281.12 406.313 266.691 405.878 258.287 411.045C249.884 416.212 247.518 422.027 247.518 422.027H244.292Z" stroke="#1A3447" stroke-width="1.24615" stroke-miterlimit="10"/>
<path d="M264.604 492.513C264.604 493.071 263.633 493.518 262.439 493.518C261.244 493.518 260.262 493.071 260.262 492.513C260.262 491.955 261.233 491.509 262.439 491.509C263.644 491.509 264.604 491.966 264.604 492.513Z" stroke="#1A3447" stroke-width="1.24615" stroke-miterlimit="10"/>
<path d="M269.279 413.679C269.279 414.237 268.309 414.683 267.114 414.683C265.92 414.683 264.938 414.237 264.938 413.679C264.938 413.121 265.909 412.674 267.114 412.674C268.32 412.674 269.279 413.132 269.279 413.679Z" stroke="#1A3447" stroke-width="1.24615" stroke-miterlimit="10"/>
<path d="M281.31 413.132C281.31 414.304 279.815 415.264 277.962 415.264C276.109 415.264 274.614 414.304 274.614 413.132C274.614 411.96 276.109 411.012 277.962 411.012C279.815 411.012 281.31 411.96 281.31 413.132Z" stroke="#1A3447" stroke-width="1.24615" stroke-miterlimit="10"/>
<path d="M118.196 454C118.196 454 122.068 449.748 139.946 443.052C157.825 436.356 178.928 433.566 184.743 434.213C190.557 434.861 194.217 433.566 200.679 435.508C207.141 437.45 209.942 437.874 210.801 438.956C211.661 440.039 214.026 442.181 214.25 442.829C214.473 443.476 224.372 445.63 224.584 463.72C224.796 481.811 214.272 494.488 194.184 503.963C174.096 513.438 164.253 518.393 142.502 517.746C120.751 517.099 110.484 505.905 103.788 496.854C97.0919 487.804 98.8106 472.514 103.788 465.372C107.137 460.889 111.693 457.452 116.923 455.462L118.196 454Z" fill="white"/>
<path d="M101.556 480.282C102.17 488.562 107.761 494.991 112.526 498.305C117.292 501.62 129.724 504.097 132.826 504.309C135.929 504.521 157.479 503.483 167.009 501.821C176.54 500.158 186.461 494.913 194.563 491.676C202.665 488.44 213 480.695 219.216 471.588C223.412 465.428 223.356 457.37 222.876 452.806C224.039 456.318 224.616 459.998 224.584 463.698C224.796 481.788 214.25 494.5 194.217 503.974C174.185 513.449 164.286 518.404 142.535 517.757C120.785 517.11 110.484 505.905 103.788 496.854C98.6766 489.935 98.4981 479.367 100.909 471.599C101.054 473.809 101.288 476.733 101.556 480.282Z" fill="#362822"/>
<path d="M209.083 446.891L198.313 454.647C196.807 455.763 190.992 458.085 186.037 460.462C181.082 462.839 169.453 467.158 156.954 471.008C144.455 474.858 129.612 480.706 127.023 481.565C124.434 482.425 121.209 484.578 120.773 487.592C120.338 490.605 127.67 499.22 124.657 499.868C121.644 500.515 117.76 495.136 117.113 492.982C116.466 490.828 117.76 488.674 115.83 488.027C113.899 487.38 109.58 489.533 109.58 488.027C109.58 486.52 115.16 483.284 115.16 483.284C119.384 480.55 123.787 478.104 128.34 475.963C134.578 473.162 137.38 473.809 144.924 469.724C152.468 465.64 158.918 461.109 165.38 458.308C170.166 456.414 175.143 455.041 180.223 454.212C181.082 454 176.986 457.661 183.66 452.27C190.334 446.88 198.525 446.891 200.679 446.456C202.833 446.021 214.674 441.289 209.083 446.891Z" fill="#362822" stroke="#362822" stroke-width="1.24615" stroke-miterlimit="10"/>
<path d="M222.43 462.18C222.43 462.18 224.584 471.231 212.096 480.036C199.608 488.842 194.005 492.736 186.428 494.89" stroke="#1A3447" stroke-width="1.24615" stroke-miterlimit="10"/>
<path d="M182.376 496.419C173.799 499.873 164.83 502.261 155.671 503.528C141.665 505.258 124.423 503.316 124.423 503.316" stroke="#1A3447" stroke-width="1.24615" stroke-miterlimit="10"/>
<path d="M116.901 500.303C114.336 499.31 111.938 497.928 109.792 496.207C106.262 493.328 103.706 489.431 102.471 485.047" stroke="#1A3447" stroke-width="1.24615" stroke-miterlimit="10"/>
<path d="M118.196 454C118.196 454 122.068 449.748 139.946 443.052C157.825 436.356 178.928 433.566 184.743 434.213C190.557 434.861 194.217 433.566 200.679 435.508C207.141 437.45 209.942 437.874 210.801 438.956C211.661 440.039 214.026 442.181 214.25 442.829C214.473 443.476 224.372 445.63 224.584 463.72C224.796 481.811 214.272 494.488 194.184 503.963C174.096 513.438 164.253 518.393 142.502 517.746C120.751 517.099 110.484 505.905 103.788 496.854C97.0919 487.804 98.8106 472.514 103.788 465.372C107.137 460.889 111.693 457.452 116.923 455.462L118.196 454Z" stroke="#1A3447" stroke-width="1.24615" stroke-miterlimit="10"/>
<path d="M194.039 483.284C195.42 483.284 196.539 482.534 196.539 481.61C196.539 480.685 195.42 479.936 194.039 479.936C192.658 479.936 191.539 480.685 191.539 481.61C191.539 482.534 192.658 483.284 194.039 483.284Z" stroke="#1A3447" stroke-width="1.24615" stroke-miterlimit="10"/>
<path d="M182.176 488.618C182.176 489.176 182.924 489.623 183.85 489.623C184.776 489.623 185.524 489.176 185.524 488.618C185.524 488.06 184.776 487.625 183.85 487.625C182.924 487.625 182.176 488.072 182.176 488.618Z" stroke="#1A3447" stroke-width="1.24615" stroke-miterlimit="10"/>
<path d="M157.791 485.282C157.791 485.65 158.316 485.951 158.963 485.951C159.61 485.951 160.135 485.65 160.135 485.282C160.135 484.913 159.61 484.612 158.963 484.612C158.316 484.612 157.791 484.913 157.791 485.282Z" stroke="#1A3447" stroke-width="1.24615" stroke-miterlimit="10"/>
<path d="M111.366 463.241C111.366 463.787 112.337 464.234 113.531 464.234C114.725 464.234 115.763 463.787 115.763 463.241C115.763 462.694 114.792 462.236 113.531 462.236C112.27 462.236 111.366 462.683 111.366 463.241Z" stroke="#1A3447" stroke-width="1.24615" stroke-miterlimit="10"/>
</svg>
