<svg width="52" height="35" viewBox="0 0 52 35" fill="none" xmlns="http://www.w3.org/2000/svg">
<path d="M7.89401 8.32837C7.89401 8.32837 9.46724 6.60099 16.7304 3.8807C23.9936 1.16041 32.567 0.0269499 34.9291 0.289911C37.2913 0.552872 38.7784 0.0269515 41.4034 0.815835C44.0285 1.60472 45.1665 1.777 45.5156 2.21678C45.8647 2.65656 46.8259 3.52706 46.9166 3.79002C47.0072 4.05298 51.0287 4.92801 51.1149 12.2773C51.201 19.6266 46.9256 24.777 38.7648 28.6263C30.6039 32.4755 26.6051 34.4885 17.7687 34.2255C8.93225 33.9626 4.76114 29.4151 2.04085 25.7382C-0.679435 22.0613 0.0187722 15.85 2.04085 12.9483C3.40153 11.1271 5.25238 9.73073 7.37715 8.9223L7.89401 8.32837Z" fill="white"/>
<path d="M1.13414 19.0055C1.3835 22.3696 3.65494 24.9811 5.59088 26.3276C7.52681 27.6742 12.5775 28.6807 13.8379 28.7668C15.0983 28.853 23.8531 28.4313 27.725 27.7558C31.5968 27.0802 35.6274 24.9494 38.9189 23.6345C42.2105 22.3197 46.4088 19.1733 48.9341 15.4737C50.6389 12.971 50.6162 9.69759 50.4212 7.84326C50.8937 9.27021 51.1281 10.7652 51.1149 12.2683C51.2011 19.6176 46.9166 24.7816 38.7784 28.6308C30.6402 32.48 26.6187 34.493 17.7823 34.2301C8.9459 33.9671 4.76119 29.4152 2.0409 25.7382C-0.0355885 22.9273 -0.108131 18.6337 0.871173 15.4782C0.930113 16.3759 1.02532 17.5638 1.13414 19.0055Z" fill="#362822"/>
<path d="M44.8171 5.44043L40.4419 8.59143C39.8299 9.04482 37.4677 9.98785 35.4547 10.9535C33.4417 11.9193 28.7175 13.6738 23.6396 15.238C18.5617 16.8022 12.5318 19.1779 11.4799 19.527C10.4281 19.8761 9.11779 20.7511 8.94097 21.9753C8.76415 23.1994 11.7429 26.6995 10.5187 26.9624C9.29461 27.2254 7.71684 25.0401 7.45388 24.1651C7.19092 23.2901 7.71684 22.415 6.93249 22.1521C6.14814 21.8891 4.39355 22.7641 4.39355 22.1521C4.39355 21.54 6.66046 20.2252 6.66046 20.2252C8.37645 19.1147 10.1653 18.121 12.0149 17.251C14.5493 16.113 15.6873 16.376 18.7521 14.7166C21.817 13.0572 24.4376 11.2165 27.0626 10.0785C29.0071 9.30926 31.0288 8.75141 33.0926 8.41461C33.4417 8.32847 31.7778 9.81556 34.489 7.62573C37.2002 5.4359 40.5281 5.44042 41.4031 5.2636C42.2781 5.08678 47.0885 3.16445 44.8171 5.44043Z" fill="#362822" stroke="#362822" stroke-width="0.506257" stroke-miterlimit="10"/>
<path d="M50.2403 11.6516C50.2403 11.6516 51.1154 15.3285 46.042 18.9057C40.9687 22.4829 38.6927 24.0652 35.6143 24.9402" stroke="#1A3447" stroke-width="0.506257" stroke-miterlimit="10"/>
<path d="M33.9679 25.5613C30.4833 26.9646 26.8396 27.9345 23.1185 28.4493C17.4286 29.1521 10.4238 28.3632 10.4238 28.3632" stroke="#1A3447" stroke-width="0.506257" stroke-miterlimit="10"/>
<path d="M7.36808 27.1394C6.32588 26.7359 5.35184 26.1747 4.48004 25.4755C3.04612 24.3059 2.00758 22.7227 1.50586 20.9417" stroke="#1A3447" stroke-width="0.506257" stroke-miterlimit="10"/>
<path d="M7.89401 8.32837C7.89401 8.32837 9.46724 6.60099 16.7304 3.8807C23.9936 1.16041 32.567 0.0269499 34.9291 0.289911C37.2913 0.552872 38.7784 0.0269515 41.4034 0.815835C44.0285 1.60472 45.1665 1.777 45.5156 2.21678C45.8647 2.65656 46.8259 3.52706 46.9166 3.79002C47.0072 4.05298 51.0287 4.92801 51.1149 12.2773C51.201 19.6266 46.9256 24.777 38.7648 28.6263C30.6039 32.4755 26.6051 34.4885 17.7687 34.2255C8.93225 33.9626 4.76114 29.4151 2.04085 25.7382C-0.679435 22.0613 0.0187722 15.85 2.04085 12.9483C3.40153 11.1271 5.25238 9.73073 7.37715 8.9223L7.89401 8.32837Z" stroke="#1A3447" stroke-width="0.506257" stroke-miterlimit="10"/>
</svg>
