<svg width="252" height="252" viewBox="0 0 252 252" fill="none" xmlns="http://www.w3.org/2000/svg">
<path d="M228.676 167.111C218.567 187.584 200.638 208.802 178.819 212.885C145.857 219.048 138.373 246.577 82.1414 236.421C73.9132 234.972 65.8849 232.55 58.2243 229.204C54.4507 227.542 50.7948 225.622 47.2821 223.458C16.1622 204.306 3.23735 169.566 6.30417 135.43C10.3197 90.5385 41.4396 73.0396 61.4718 63.0352C81.504 53.0308 110.059 7.71619 165.422 17.2216C173.897 18.6443 182.16 21.13 190.017 24.6203C207.997 32.6843 225.394 47.5775 234.062 67.0924C234.714 68.5607 235.325 70.0526 235.894 71.5679C247.022 101.188 242.459 139.21 228.676 167.111Z" fill="#F0C376"/>
<path opacity="0.8" d="M228.676 167.111C218.567 187.584 200.638 208.802 178.819 212.885C145.857 219.048 138.373 246.577 82.1414 236.421C73.9132 234.972 65.8849 232.55 58.2243 229.204C54.4507 227.542 50.7948 225.622 47.2821 223.458C16.1622 204.306 3.23735 169.566 6.30417 135.43C10.3197 90.5385 41.4396 73.0396 61.4718 63.0352C81.504 53.0308 110.059 7.71619 165.422 17.2216C173.897 18.6443 182.16 21.13 190.017 24.6203C207.997 32.6843 225.394 47.5775 234.062 67.0924C234.714 68.5607 235.325 70.0526 235.894 71.5679C247.022 101.188 242.459 139.21 228.676 167.111Z" fill="white"/>
<path d="M222.929 94.1523C227.52 94.1523 231.241 90.4155 231.241 85.806C231.241 81.1965 227.52 77.4598 222.929 77.4598C218.339 77.4598 214.617 81.1965 214.617 85.806C214.617 90.4155 218.339 94.1523 222.929 94.1523Z" stroke="#1A3447" stroke-width="0.815869" stroke-miterlimit="10"/>
<path d="M201.734 235.828C202.796 231.344 200.037 226.844 195.571 225.777C191.105 224.711 186.623 227.481 185.561 231.966C184.498 236.45 187.258 240.95 191.724 242.017C196.19 243.083 200.671 240.313 201.734 235.828Z" stroke="#1A3447" stroke-width="0.815869" stroke-miterlimit="10"/>
<path d="M58.4326 225.02C61.5411 221.628 61.3225 216.348 57.9445 213.226C54.5664 210.105 49.3081 210.325 46.1996 213.717C43.0912 217.109 43.3097 222.389 46.6878 225.51C50.0658 228.631 55.3242 228.412 58.4326 225.02Z" stroke="#1A3447" stroke-width="0.815869" stroke-miterlimit="10"/>
<path d="M132.586 26.1288C134.4 24.4098 134.484 21.5389 132.772 19.7166C131.06 17.8944 128.201 17.8107 126.386 19.5297C124.571 21.2487 124.488 24.1196 126.2 25.9419C127.912 27.7641 130.771 27.8478 132.586 26.1288Z" stroke="#1A3447" stroke-width="0.815869" stroke-miterlimit="10"/>
<path d="M28.9422 82.8457C30.7064 81.0743 30.7064 78.2023 28.9422 76.4309C27.1781 74.6595 24.3178 74.6595 22.5537 76.4309C20.7895 78.2023 20.7895 81.0743 22.5537 82.8457C24.3178 84.6172 27.1781 84.6172 28.9422 82.8457Z" stroke="#1A3447" stroke-width="0.815869" stroke-miterlimit="10"/>
<path d="M127.371 152.532C127.946 150.094 126.444 147.65 124.016 147.072C121.589 146.494 119.154 148.002 118.579 150.44C118.004 152.878 119.506 155.322 121.933 155.9C124.361 156.477 126.795 154.969 127.371 152.532Z" stroke="#1A3447" stroke-width="0.815869" stroke-miterlimit="10"/>
<path d="M40.1429 26.9446C41.9071 25.1732 41.9071 22.3011 40.1429 20.5297C38.3788 18.7583 35.5185 18.7583 33.7543 20.5297C31.9902 22.3011 31.9902 25.1732 33.7543 26.9446C35.5185 28.716 38.3788 28.716 40.1429 26.9446Z" stroke="#1A3447" stroke-width="0.815869" stroke-miterlimit="10"/>
<path d="M228.411 127.547C228.411 128.206 228.216 128.851 227.851 129.399C227.487 129.947 226.968 130.374 226.362 130.626C225.755 130.878 225.088 130.943 224.444 130.814C223.8 130.685 223.209 130.368 222.745 129.901C222.282 129.435 221.966 128.841 221.839 128.194C221.711 127.548 221.778 126.878 222.029 126.269C222.281 125.66 222.707 125.14 223.254 124.775C223.8 124.409 224.442 124.215 225.098 124.216C225.977 124.217 226.82 124.569 227.441 125.193C228.062 125.818 228.411 126.665 228.411 127.547Z" stroke="#1A3447" stroke-width="0.815869" stroke-miterlimit="10"/>
<path d="M229.796 220.828C229.796 221.487 229.601 222.131 229.236 222.679C228.872 223.227 228.353 223.654 227.747 223.906C227.14 224.158 226.473 224.224 225.829 224.095C225.185 223.966 224.594 223.648 224.13 223.181C223.667 222.715 223.351 222.121 223.224 221.474C223.096 220.828 223.163 220.158 223.414 219.549C223.666 218.941 224.092 218.421 224.639 218.055C225.185 217.69 225.827 217.495 226.483 217.496C227.362 217.497 228.205 217.849 228.826 218.474C229.447 219.098 229.796 219.945 229.796 220.828Z" stroke="#1A3447" stroke-width="0.815869" stroke-miterlimit="10"/>
<path d="M169.398 23.9097C167.268 24.174 165.124 24.3154 162.978 24.3331H147.157C147.157 24.3331 159.023 34.5895 163.304 38.561C167.586 42.5325 182.423 52.4613 191.648 56.7655C200.874 61.0697 203.514 61.7249 210.105 64.3759C216.695 67.0269 218.858 69.4159 218.858 69.4159L220.982 62.0676C220.982 62.0676 223.622 53.1317 219.335 41.9076C218.683 40.1887 217.863 38.5392 216.886 36.9835" stroke="#1A3447" stroke-width="0.815869" stroke-miterlimit="10"/>
<path d="M215.41 34.8364C208.292 25.6284 195.98 22.0953 184.29 22.2969C180.34 22.3624 176.43 22.9773 172.52 23.5116" stroke="#1A3447" stroke-width="0.815869" stroke-miterlimit="10"/>
<path d="M158.611 27.0244C158.611 27.0244 167.214 31.6209 182.594 34.3778C192.632 36.1821 202.42 40.5215 209.819 47.7035C214.933 52.673 217.067 59.6181 218.106 66.5431" stroke="#1A3447" stroke-width="0.815869" stroke-miterlimit="10"/>
<path d="M175.612 25.1546C178.291 27.939 180.628 31.0354 182.574 34.3778" stroke="#1A3447" stroke-width="0.815869" stroke-miterlimit="10"/>
<path d="M188.25 25.5528C188.25 25.5528 193.009 32.1703 194.655 37.6841C194.655 37.6841 191.543 43.7321 183.306 46.3277" stroke="#1A3447" stroke-width="0.815869" stroke-miterlimit="10"/>
<path d="M204.543 29.5999C204.543 29.5999 206.922 37.8705 207.103 44.488" stroke="#1A3447" stroke-width="0.815869" stroke-miterlimit="10"/>
<path d="M181.841 35.663C181.841 35.663 175.617 38.4199 169.027 38.4199" stroke="#1A3447" stroke-width="0.815869" stroke-miterlimit="10"/>
<path d="M206.004 45.7733C202.351 48.203 198.417 50.178 194.289 51.6549" stroke="#1A3447" stroke-width="0.815869" stroke-miterlimit="10"/>
<path d="M202.525 58.2725C202.525 58.2725 210.215 58.4589 214.973 55.1476C215.645 50.8258 216.074 46.4694 216.258 42.0991" stroke="#1A3447" stroke-width="0.815869" stroke-miterlimit="10"/>
<path d="M19.7459 101.092C21.5434 98.9227 23.5621 96.9481 25.7691 95.2006C30.1611 91.7179 35.3511 89.3945 39.6627 85.8514C43.2565 82.908 49.2396 77.994 49.2396 77.994C49.2396 77.994 47.1114 90.09 46.4739 94.626C45.8365 99.162 41.7507 112.533 38.2824 119.72C34.814 126.907 33.5441 128.621 30.8588 133.5C28.1734 138.378 28.0429 140.888 28.0429 140.888L23.134 137.496C23.134 137.496 17.1108 133.399 14.1895 124.458C11.8204 117.281 13.4968 110.376 17.2011 104.504" stroke="#1A3447" stroke-width="0.815869" stroke-miterlimit="10"/>
<path d="M43.6681 85.3071C43.6681 85.3071 40.7267 92.3631 32.7761 101.667C27.576 107.755 23.8015 115.235 22.8579 123.258C22.2104 128.802 24.3637 134.069 27.1243 138.781" stroke="#1A3447" stroke-width="0.815869" stroke-miterlimit="10"/>
<path d="M32.4447 92.6301C32.1963 95.6449 32.3075 98.6786 32.776 101.667" stroke="#1A3447" stroke-width="0.815869" stroke-miterlimit="10"/>
<path d="M24.9912 99.1469C24.9912 99.1469 25.3727 105.517 27.0893 109.67C27.0893 109.67 31.9631 111.797 38.2172 109.267" stroke="#1A3447" stroke-width="0.815869" stroke-miterlimit="10"/>
<path d="M17.1206 109.685C17.1206 109.685 19.7558 115.875 22.9029 119.952" stroke="#1A3447" stroke-width="0.815869" stroke-miterlimit="10"/>
<path d="M33.8503 102.085C33.8503 102.085 38.9801 100.664 42.9655 97.3879" stroke="#1A3447" stroke-width="0.815869" stroke-miterlimit="10"/>
<path d="M31.7271 118.757C32.5352 118.526 33.3634 118.253 34.1916 117.946" stroke="#1A3447" stroke-width="0.815869" stroke-miterlimit="10"/>
<path d="M24.2031 120.204C25.9066 120.036 27.598 119.761 29.2676 119.382" stroke="#1A3447" stroke-width="0.815869" stroke-miterlimit="10"/>
<path d="M32.4655 126.045C32.4655 126.045 27.9029 129.977 23.3905 130.334C20.8559 128.051 18.4512 125.626 16.1877 123.072" stroke="#1A3447" stroke-width="0.815869" stroke-miterlimit="10"/>
<path d="M106.014 214.271C105.253 215.757 104.6 217.296 104.061 218.877C102.555 223.227 102.194 227.873 100.643 232.178L97.1997 241.723C97.1997 241.723 105.923 236.794 109.246 235.076C111.881 233.7 118.236 229.113 123.034 224.96" stroke="#1A3447" stroke-width="0.815869" stroke-miterlimit="10"/>
<path d="M124.931 223.272C125.433 222.813 125.88 222.37 126.302 221.946C130.884 217.31 131.853 215.863 134.875 212.461C137.896 209.059 139.789 208.273 139.789 208.273L135.854 205.39C135.854 205.39 131.075 201.862 123.411 201.993C116.66 202.114 111.48 205.909 107.931 211.065" stroke="#1A3447" stroke-width="0.815869" stroke-miterlimit="10"/>
<path d="M118.677 213.071C120.55 211.462 122.616 210.094 124.826 208.999C128.912 206.983 133.535 207.215 137.911 208.097" stroke="#1A3447" stroke-width="0.815869" stroke-miterlimit="10"/>
<path d="M101.301 235.408C101.301 235.408 105.908 231.215 110.928 222.531C112.528 219.73 114.487 217.151 116.755 214.86" stroke="#1A3447" stroke-width="0.815869" stroke-miterlimit="10"/>
<path d="M103.9 224.729C106.148 223.718 108.507 222.981 110.927 222.531" stroke="#1A3447" stroke-width="0.815869" stroke-miterlimit="10"/>
<path d="M106.877 217.189C106.877 217.189 111.871 215.752 115.535 215.959C115.535 215.959 118.487 219.159 118.236 224.688" stroke="#1A3447" stroke-width="0.815869" stroke-miterlimit="10"/>
<path d="M112.84 208.233C112.84 208.233 118.311 208.596 122.311 209.926" stroke="#1A3447" stroke-width="0.815869" stroke-miterlimit="10"/>
<path d="M111.535 223.272C111.664 226.095 111.278 228.919 110.395 231.603" stroke="#1A3447" stroke-width="0.815869" stroke-miterlimit="10"/>
<path d="M122.844 210.869C123.505 213.609 123.832 216.42 123.817 219.24" stroke="#1A3447" stroke-width="0.815869" stroke-miterlimit="10"/>
<path d="M129.569 215.712C129.569 215.712 131.356 211.11 130.407 207.517C127.967 206.171 125.454 204.965 122.878 203.903" stroke="#1A3447" stroke-width="0.815869" stroke-miterlimit="10"/>
<path d="M113.979 196.62L114.577 196.802C123.787 199.508 126.342 199.755 132.862 201.293C139.382 202.83 141.726 204.75 141.726 204.75L142.68 197.598C142.68 197.598 143.89 188.889 138.318 179.001C137.01 176.667 135.349 174.552 133.394 172.731" stroke="#1A3447" stroke-width="0.815869" stroke-miterlimit="10"/>
<path d="M131.19 170.906C123.37 165.136 112.674 164.032 102.866 165.69C96.2104 166.819 89.9362 169.591 83.2906 170.599L68.5337 172.832C68.5337 172.832 81.0419 180.724 85.5995 183.824C89.6852 186.606 102.359 192.659 111.575 195.834" stroke="#1A3447" stroke-width="0.815869" stroke-miterlimit="10"/>
<path d="M79.5767 173.729C79.5767 173.729 88.2451 176.803 102.977 177.201C112.609 177.463 122.331 180.13 130.237 185.769C135.703 189.68 138.669 195.849 140.607 202.17" stroke="#1A3447" stroke-width="0.815869" stroke-miterlimit="10"/>
<path d="M95.1919 169.581C98.0803 171.8 100.694 174.358 102.977 177.201" stroke="#1A3447" stroke-width="0.815869" stroke-miterlimit="10"/>
<path d="M107.032 168.17C107.032 168.17 112.398 173.668 114.707 178.582C114.707 178.582 112.654 184.681 105.331 188.244" stroke="#1A3447" stroke-width="0.815869" stroke-miterlimit="10"/>
<path d="M122.798 169.641C122.798 169.641 126.176 177.02 127.276 183.169" stroke="#1A3447" stroke-width="0.815869" stroke-miterlimit="10"/>
<path d="M102.475 178.507C102.475 178.507 97.054 181.954 90.9304 182.886" stroke="#1A3447" stroke-width="0.815869" stroke-miterlimit="10"/>
<path d="M126.427 184.524C123.358 187.305 119.966 189.703 116.323 191.666" stroke="#1A3447" stroke-width="0.815869" stroke-miterlimit="10"/>
<path d="M129.032 195.749C131.326 195.048 134.122 193.879 136.109 191.999C136.129 187.872 135.918 183.748 135.477 179.646" stroke="#1A3447" stroke-width="0.815869" stroke-miterlimit="10"/>
<path d="M124.936 196.671C125.764 196.544 126.585 196.376 127.396 196.167" stroke="#1A3447" stroke-width="0.815869" stroke-miterlimit="10"/>
<path d="M40.9022 57.1082L40.064 187.271C39.6524 191.016 53.7066 199.297 71.3245 201.298C88.9424 203.298 103.378 198.243 103.8 194.514L131.958 67.4553L40.9022 57.1082Z" fill="#F0C376" stroke="#1A3447" stroke-width="0.815869" stroke-miterlimit="10"/>
<path d="M40.2952 151.512C77.7746 139.82 104.041 125.41 121.99 112.442L131.376 70.1064C127.622 74.7281 120.509 82.3637 108.709 91.0627C87.9639 106.349 63.2938 117.271 40.4457 124.972L40.2952 151.512Z" fill="#1A3447"/>
<path d="M114.682 145.399C110.456 149.349 105.999 153.044 101.336 156.462C82.7038 170.186 60.9099 180.387 40.1248 187.901C41.1286 191.868 54.6809 199.403 71.325 201.298C72.0478 201.383 72.7655 201.449 73.4783 201.504C84.8099 196.351 95.7511 190.373 106.214 183.617L114.682 145.399Z" fill="#1A3447"/>
<path d="M44.4258 57.5064C43.2412 57.9449 42.0667 58.3733 40.9122 58.7966L40.7366 85.5338C61.7024 78.5988 78.9639 70.8271 93.0833 63.0353L44.4258 57.5064Z" fill="#1A3447"/>
<path d="M36.1691 51.912L35.7274 55.823C35.0197 62.1281 57.1751 69.8241 85.2182 73.0094C113.261 76.1947 136.571 73.6697 137.284 67.3646L137.721 63.4536L36.1691 51.912Z" fill="#1A3447" stroke="#1A3447" stroke-width="0.815869" stroke-miterlimit="10"/>
<path d="M137.729 63.476C138.44 57.1699 116.282 49.473 88.2386 46.2846C60.195 43.0962 36.8847 45.6236 36.1736 51.9298C35.4625 58.2359 57.6198 65.9327 85.6635 69.1211C113.707 72.3095 137.017 69.7821 137.729 63.476Z" fill="white" stroke="#1A3447" stroke-width="0.815869" stroke-miterlimit="10"/>
<path d="M37.7651 46.0102L37.3334 49.8506C36.6358 56.0448 58.4147 63.5998 85.9257 66.7296C113.437 69.8594 136.35 67.3798 137.048 61.1856L137.484 57.3451L37.7651 46.0102Z" fill="#1A3447" stroke="#1A3447" stroke-width="0.815869" stroke-miterlimit="10"/>
<path d="M137.487 57.3515C138.185 51.1588 116.428 43.6006 88.8915 40.4698C61.3548 37.339 38.4657 39.8212 37.7673 46.0139C37.069 52.2066 58.8259 59.7648 86.3627 62.8956C113.9 66.0264 136.789 63.5442 137.487 57.3515Z" fill="white" stroke="#1A3447" stroke-width="0.815869" stroke-miterlimit="10"/>
<path d="M44.702 31.3034L43.1159 45.36C42.5186 50.6923 62.0188 57.2846 86.6738 60.0868C111.329 62.8891 131.808 60.8378 132.405 55.5055L134.016 41.454L44.702 31.3034Z" fill="#1A3447" stroke="#1A3447" stroke-width="0.815869" stroke-miterlimit="10"/>
<path d="M133.997 41.4549C134.598 36.1251 115.098 29.5321 90.4421 26.7289C65.7866 23.9257 45.312 25.9739 44.711 31.3036C44.11 36.6334 63.6101 43.2265 88.2657 46.0297C112.921 48.8329 133.396 46.7847 133.997 41.4549Z" fill="white" stroke="#1A3447" stroke-width="0.815869" stroke-miterlimit="10"/>
<path d="M126.55 40.6084C127.051 36.1664 110.804 30.6721 90.2607 28.3365C69.7176 26.0008 52.6581 27.7083 52.1572 32.1503C51.6563 36.5922 67.9037 42.0865 88.4468 44.4222C108.99 46.7578 126.049 45.0503 126.55 40.6084Z" fill="#1A3447" stroke="#1A3447" stroke-width="0.815869" stroke-miterlimit="10"/>
<path d="M125.891 41.878C126.309 38.169 110.222 33.2948 89.9603 30.9911C69.6981 28.6874 52.9334 29.8266 52.5151 33.5356C52.0969 37.2446 68.1835 42.1189 88.4457 44.4225C108.708 46.7262 125.473 45.587 125.891 41.878Z" fill="white" stroke="#1A3447" stroke-width="0.815869" stroke-miterlimit="10"/>
<path d="M112.167 36.8302C112.365 35.0767 106.518 32.9722 99.1087 32.1298C91.6991 31.2873 85.5321 32.0259 85.3344 33.7795C85.1366 35.533 90.983 37.6375 98.3926 38.4799C105.802 39.3224 111.969 38.5837 112.167 36.8302Z" fill="#1A3447"/>
<path d="M83.0733 150.452C98.4092 148.556 109.311 134.535 107.422 119.136C105.534 103.737 91.5705 92.791 76.2346 94.6872C60.8987 96.5834 49.9974 110.604 51.8859 126.003C53.7743 141.402 67.7374 152.348 83.0733 150.452Z" fill="white"/>
<path d="M94.2679 124.241C93.0532 134.986 87.1404 143.141 77.3025 142.022C67.4646 140.903 63.8206 131.665 65.0302 120.915C66.2399 110.164 71.8515 101.979 81.6894 103.098C91.5273 104.217 95.4776 113.491 94.2679 124.241Z" fill="#1A3447"/>
<path d="M80.3594 138.645C80.6556 135.682 80.7259 132.985 79.983 130.43C79.2401 127.875 77.9753 125.294 77.1922 122.321C76.9915 121.59 76.8459 120.834 76.6903 120.083C76.5809 119.322 76.5189 118.554 76.5046 117.785C76.4749 116.27 76.6283 114.757 76.9613 113.279C77.2936 111.746 77.8789 110.279 78.693 108.94C79.5915 107.599 80.7008 106.213 82.4575 105.512C81.6767 106.711 81.193 108.08 81.0471 109.504C80.864 110.84 80.7968 112.189 80.8463 113.536C80.9116 114.882 80.9567 116.278 81.1525 117.568C81.32 118.897 81.5817 120.213 81.9355 121.504C82.583 124.115 83.6521 126.968 83.6873 130.103C83.7004 133.271 82.5103 136.326 80.3594 138.645Z" fill="white"/>
<path d="M120.108 96.768L167.104 218.076C168.083 221.7 184.22 224.204 201.316 219.547C218.412 214.891 229.997 204.846 229.018 201.222L208.549 72.702L120.108 96.768Z" fill="#F0C376" stroke="#1A3447" stroke-width="0.815869" stroke-miterlimit="10"/>
<path d="M164.966 212.552L219.797 143.328L208.549 72.6819L191.905 77.2128L138.604 144.502L164.966 212.552Z" fill="white"/>
<path d="M210.541 135.012L212.65 130.042L207.695 127.94L208.554 122.613L203.243 121.777L202.797 116.394L197.441 116.857L195.729 111.737L190.64 113.471L187.764 108.904L183.231 111.812L179.346 108.078L175.647 111.994L170.984 109.303L168.314 113.99L163.149 112.488L161.673 117.679L156.297 117.472L156.117 122.87L150.846 123.959L151.951 129.246L147.092 131.559L149.416 136.428L145.25 139.845L148.678 144.013L145.456 148.337L149.772 151.553L147.664 156.527L152.623 158.624L151.76 163.956L157.075 164.788L157.517 170.171L162.878 169.707L164.584 174.828L169.679 173.094L172.555 177.66L177.087 174.752L180.972 178.492L184.672 174.571L189.335 177.262L192.005 172.575L197.17 174.077L198.641 168.885L204.016 169.092L204.202 163.694L209.467 162.606L208.368 157.324L213.227 155.005L210.898 150.137L215.064 146.719L211.641 142.556L214.863 138.232L210.541 135.012Z" fill="#1A3447"/>
<path d="M208.213 151.597C212.792 136.037 203.941 119.696 188.445 115.099C172.948 110.502 156.674 119.389 152.096 134.949C147.517 150.509 156.368 166.85 171.865 171.447C187.361 176.045 203.635 167.158 208.213 151.597Z" fill="white"/>
<path d="M186.67 167.394C181.92 168.687 176.895 168.537 172.231 166.963C167.566 165.388 163.471 162.46 160.464 158.549C157.456 154.638 155.671 149.919 155.335 144.989C154.999 140.059 156.126 135.14 158.574 130.853C161.022 126.567 164.681 123.105 169.088 120.907C173.495 118.708 178.453 117.872 183.333 118.502C188.214 119.133 192.799 121.203 196.508 124.45C200.218 127.697 202.885 131.976 204.172 136.745C205.891 143.14 205.014 149.958 201.733 155.704C198.452 161.45 193.034 165.654 186.67 167.394Z" fill="#1A3447"/>
<path d="M120.108 96.768L167.104 218.076C168.083 221.7 184.22 224.204 201.316 219.547C218.412 214.891 229.997 204.846 229.018 201.222L208.549 72.702L120.108 96.768Z" stroke="#1A3447" stroke-width="0.815869" stroke-miterlimit="10"/>
<path d="M195.754 139.316C195.662 139.202 195.54 139.117 195.401 139.071C195.262 139.025 195.113 139.021 194.971 139.059L192.145 139.83C192.115 139.724 192.095 139.618 192.065 139.512C191.93 138.998 191.762 138.493 191.563 138L164.584 145.339C164.658 145.869 164.764 146.394 164.9 146.911C166.291 152.047 170.678 155.605 175.843 156.401C175.75 156.538 175.686 156.692 175.654 156.854C175.622 157.016 175.623 157.182 175.657 157.344C176.003 158.634 179.06 158.921 182.478 157.994C185.896 157.067 188.391 155.262 188.045 153.962C187.991 153.806 187.908 153.662 187.798 153.539C187.689 153.416 187.556 153.317 187.407 153.246C188.477 152.378 189.417 151.359 190.198 150.222C190.444 150.177 190.7 150.116 190.971 150.046C192.018 149.792 193.002 149.323 193.861 148.669C194.719 148.015 195.434 147.19 195.96 146.246C198.103 142.31 195.86 139.437 195.754 139.316ZM194.63 145.515C193.887 146.84 192.685 147.845 191.252 148.337C192.29 146.155 192.692 143.723 192.411 141.322L194.831 140.666C195.252 141.428 195.885 143.227 194.64 145.515H194.63Z" fill="#F0C376"/>
<path d="M169.895 142.884C169.796 142.912 169.691 142.908 169.594 142.874C169.497 142.84 169.413 142.776 169.353 142.693C168.41 141.191 167.982 139.421 168.133 137.653C168.301 136.141 168.683 134.661 169.268 133.258C169.652 132.358 169.921 131.413 170.066 130.445C170.206 128.616 169.257 126.499 169.247 126.479C169.22 126.419 169.205 126.354 169.203 126.287C169.2 126.221 169.211 126.155 169.234 126.093C169.257 126.031 169.292 125.974 169.337 125.926C169.382 125.878 169.436 125.839 169.496 125.811C169.556 125.784 169.621 125.768 169.687 125.766C169.752 125.764 169.818 125.774 169.88 125.797C169.942 125.821 169.998 125.856 170.046 125.901C170.095 125.946 170.134 126 170.161 126.061C170.786 127.464 171.095 128.989 171.064 130.526C170.917 131.588 170.63 132.625 170.211 133.61C169.657 134.922 169.294 136.307 169.132 137.723C168.997 139.264 169.355 140.807 170.156 142.128C170.195 142.182 170.223 142.243 170.238 142.308C170.253 142.372 170.255 142.439 170.244 142.505C170.234 142.571 170.21 142.633 170.175 142.69C170.14 142.746 170.094 142.795 170.04 142.834C169.995 142.858 169.946 142.875 169.895 142.884Z" fill="#F0C376"/>
<path d="M177.118 140.918C177.019 140.945 176.915 140.941 176.82 140.907C176.724 140.872 176.64 140.81 176.581 140.727C175.636 139.226 175.206 137.456 175.356 135.687C175.524 134.175 175.908 132.695 176.495 131.292C176.88 130.393 177.149 129.448 177.293 128.48C177.434 126.645 176.485 124.533 176.475 124.513C176.448 124.453 176.432 124.388 176.429 124.322C176.427 124.255 176.437 124.189 176.46 124.127C176.483 124.065 176.518 124.008 176.562 123.959C176.607 123.91 176.661 123.871 176.721 123.843C176.781 123.815 176.846 123.799 176.912 123.797C176.978 123.794 177.044 123.805 177.106 123.828C177.168 123.851 177.225 123.885 177.273 123.93C177.322 123.976 177.361 124.03 177.389 124.09C177.429 124.186 178.458 126.464 178.292 128.555C178.144 129.617 177.857 130.654 177.439 131.64C176.882 132.953 176.519 134.34 176.36 135.757C176.234 137.288 176.598 138.819 177.399 140.127C177.475 140.236 177.505 140.371 177.483 140.502C177.46 140.634 177.387 140.751 177.278 140.828C177.232 140.869 177.177 140.9 177.118 140.918Z" fill="#F0C376"/>
<path d="M184.712 138.842C184.613 138.868 184.509 138.864 184.413 138.83C184.318 138.796 184.234 138.733 184.175 138.65C183.225 137.152 182.794 135.38 182.95 133.61C183.116 132.099 183.5 130.621 184.089 129.221C184.472 128.319 184.739 127.372 184.882 126.403C185.028 124.574 184.074 122.462 184.064 122.437C184.01 122.315 184.006 122.177 184.053 122.052C184.1 121.927 184.194 121.826 184.315 121.771C184.436 121.717 184.573 121.712 184.697 121.758C184.821 121.804 184.922 121.898 184.978 122.018C185.603 123.422 185.913 124.946 185.886 126.484C185.739 127.546 185.45 128.583 185.028 129.568C184.475 130.882 184.113 132.269 183.954 133.686C183.828 135.216 184.19 136.746 184.988 138.056C185.064 138.164 185.095 138.299 185.074 138.43C185.052 138.561 184.98 138.678 184.872 138.756C184.824 138.794 184.77 138.823 184.712 138.842Z" fill="#F0C376"/>
<path d="M113.804 93.6987L114.833 97.4989C116.484 103.622 139.93 102.574 167.145 95.1603C194.359 87.7465 215.124 76.7643 213.473 70.6407L212.444 66.8405L113.804 93.6987Z" fill="#1A3447"/>
<path d="M166.119 91.3608C193.358 83.9449 214.099 72.9677 212.446 66.8424C210.792 60.7171 187.369 61.7634 160.13 69.1792C132.89 76.5951 112.149 87.5723 113.803 93.6976C115.457 99.8228 138.88 98.7766 166.119 91.3608Z" fill="white" stroke="#1A3447" stroke-width="0.815869" stroke-miterlimit="10"/>
<path d="M113.121 87.6104L114.125 91.34C115.751 97.3527 138.75 96.3245 165.493 89.0417C192.236 81.7589 212.604 70.9834 210.983 64.9707L209.979 61.2411L113.121 87.6104Z" fill="#1A3447"/>
<path d="M164.487 85.3177C191.234 78.0359 211.6 67.2566 209.976 61.2415C208.352 55.2263 185.352 56.2532 158.605 63.535C131.858 70.8169 111.492 81.5962 113.116 87.6113C114.741 93.6264 137.74 92.5995 164.487 85.3177Z" fill="white" stroke="#1A3447" stroke-width="0.815869" stroke-miterlimit="10"/>
<path d="M114.17 71.3665L117.859 85.035C119.26 90.211 139.809 89.1224 163.756 82.6057C187.704 76.089 205.984 66.5986 204.589 61.4377L200.899 47.7692L114.17 71.3665Z" fill="#1A3447"/>
<path d="M160.063 68.9376C184.011 62.4177 202.292 52.9356 200.894 47.7586C199.497 42.5817 178.949 43.6704 155.001 50.1903C131.052 56.7103 112.771 66.1924 114.169 71.3693C115.567 76.5463 136.114 75.4576 160.063 68.9376Z" fill="white" stroke="#1A3447" stroke-width="0.815869" stroke-miterlimit="10"/>
<path d="M193.661 49.7247C194.826 54.0389 179.607 61.9417 159.645 67.3647C139.683 72.7877 122.567 73.705 121.403 69.3807C120.238 65.0564 135.457 57.1637 155.424 51.7407C175.391 46.3177 192.497 45.4105 193.661 49.7247Z" fill="#1A3447"/>
<path d="M159.643 67.3764C179.356 62.0095 194.539 54.7035 193.554 51.0579C192.57 47.4123 175.791 48.8076 156.078 54.1745C136.365 59.5413 121.182 66.8474 122.167 70.493C123.151 74.1386 139.93 72.7432 159.643 67.3764Z" fill="white" stroke="#1A3447" stroke-width="0.815869" stroke-miterlimit="10"/>
<path d="M178.91 51.5341C179.371 53.2376 173.89 56.2062 166.713 58.1667C159.535 60.1273 153.306 60.3339 152.844 58.6304C152.382 56.9269 157.863 53.9583 165.046 51.9978C172.229 50.0372 178.453 49.8306 178.91 51.5341Z" fill="#1A3447"/>
</svg>
