<svg width="270" height="270" viewBox="0 0 270 270" fill="none" xmlns="http://www.w3.org/2000/svg">
<path d="M177.66 18.6732C177.66 18.6732 135.864 3.81242 94.8402 27.4752C53.8164 51.138 33.102 98.1018 15.3252 135.724C-2.45156 173.345 7.76524 211.621 39.0852 229.068C70.4052 246.515 91.6974 220.795 135.632 219.542C179.566 218.29 191.398 224.57 227.88 199.751C264.362 174.933 270.923 116.316 242.168 72.9486C213.413 29.5812 177.66 18.6732 177.66 18.6732Z" fill="#F0C376"/>
<path opacity="0.7" d="M177.66 18.6732C177.66 18.6732 135.864 3.81242 94.8402 27.4752C53.8164 51.138 33.102 98.1018 15.3252 135.724C-2.45156 173.345 7.76524 211.621 39.0852 229.068C70.4052 246.515 91.6974 220.795 135.632 219.542C179.566 218.29 191.398 224.57 227.88 199.751C264.362 174.933 270.923 116.316 242.168 72.9486C213.413 29.5812 177.66 18.6732 177.66 18.6732Z" fill="white"/>
<path d="M88.6461 150.282H27.6855" stroke="#1A3447" stroke-width="0.703125" stroke-linecap="round" stroke-linejoin="round"/>
<path d="M100.256 143.521V150.287H91.4922" stroke="#1A3447" stroke-width="0.703125" stroke-linecap="round" stroke-linejoin="round"/>
<path d="M100.256 151.735V158.501H27.6855" stroke="#1A3447" stroke-width="0.703125" stroke-linecap="round" stroke-linejoin="round"/>
<path d="M100.256 159.948V166.714H27.6855" stroke="#1A3447" stroke-width="0.703125" stroke-linecap="round" stroke-linejoin="round"/>
<path d="M46.1967 174.928H27.6855" stroke="#1A3447" stroke-width="0.703125" stroke-linecap="round" stroke-linejoin="round"/>
<path d="M100.256 168.167V174.928H49.8203" stroke="#1A3447" stroke-width="0.703125" stroke-linecap="round" stroke-linejoin="round"/>
<path d="M100.256 176.38V183.146H27.6855" stroke="#1A3447" stroke-width="0.703125" stroke-linecap="round" stroke-linejoin="round"/>
<path d="M100.256 184.594V191.36H27.6855" stroke="#1A3447" stroke-width="0.703125" stroke-linecap="round" stroke-linejoin="round"/>
<path d="M30.9255 199.573H27.6855" stroke="#1A3447" stroke-width="0.703125" stroke-linecap="round" stroke-linejoin="round"/>
<path d="M100.256 192.812V199.573H34.29" stroke="#1A3447" stroke-width="0.703125" stroke-linecap="round" stroke-linejoin="round"/>
<path d="M100.256 201.026V207.792H27.6855" stroke="#1A3447" stroke-width="0.703125" stroke-linecap="round" stroke-linejoin="round"/>
<path d="M100.256 209.239V216.005H27.6855" stroke="#1A3447" stroke-width="0.703125" stroke-linecap="round" stroke-linejoin="round"/>
<path d="M59.6589 224.224H27.6855" stroke="#1A3447" stroke-width="0.703125" stroke-linecap="round" stroke-linejoin="round"/>
<path d="M100.256 217.458V224.224H62.7637" stroke="#1A3447" stroke-width="0.703125" stroke-linecap="round" stroke-linejoin="round"/>
<path d="M31.9623 232.438H27.6855" stroke="#1A3447" stroke-width="0.703125" stroke-linecap="round" stroke-linejoin="round"/>
<path d="M100.256 225.671V232.438H35.3262" stroke="#1A3447" stroke-width="0.703125" stroke-linecap="round" stroke-linejoin="round"/>
<path d="M167.07 150.282H102.459" stroke="#1A3447" stroke-width="0.703125" stroke-linecap="round" stroke-linejoin="round"/>
<path d="M175.025 143.521V150.287H169.663" stroke="#1A3447" stroke-width="0.703125" stroke-linecap="round" stroke-linejoin="round"/>
<path d="M175.024 151.735V158.501H102.459" stroke="#1A3447" stroke-width="0.703125" stroke-linecap="round" stroke-linejoin="round"/>
<path d="M175.024 159.948V166.714H102.459" stroke="#1A3447" stroke-width="0.703125" stroke-linecap="round" stroke-linejoin="round"/>
<path d="M175.024 168.167V174.928H102.459" stroke="#1A3447" stroke-width="0.703125" stroke-linecap="round" stroke-linejoin="round"/>
<path d="M175.024 176.38V183.146H102.459" stroke="#1A3447" stroke-width="0.703125" stroke-linecap="round" stroke-linejoin="round"/>
<path d="M175.024 184.594V191.36H102.459" stroke="#1A3447" stroke-width="0.703125" stroke-linecap="round" stroke-linejoin="round"/>
<path d="M175.024 192.812V199.573H102.459" stroke="#1A3447" stroke-width="0.703125" stroke-linecap="round" stroke-linejoin="round"/>
<path d="M175.024 201.026V207.792H102.459" stroke="#1A3447" stroke-width="0.703125" stroke-linecap="round" stroke-linejoin="round"/>
<path d="M175.024 209.239V216.005H102.459" stroke="#1A3447" stroke-width="0.703125" stroke-linecap="round" stroke-linejoin="round"/>
<path d="M175.024 217.458V224.224H102.459" stroke="#1A3447" stroke-width="0.703125" stroke-linecap="round" stroke-linejoin="round"/>
<path d="M175.024 225.671V232.438H102.459" stroke="#1A3447" stroke-width="0.703125" stroke-linecap="round" stroke-linejoin="round"/>
<path d="M28.0908 252.364H248.789" stroke="#1A3447" stroke-width="0.703125" stroke-linecap="round" stroke-linejoin="round"/>
<path d="M28.0908 125.204H248.789" stroke="#1A3447" stroke-width="0.703125" stroke-linecap="round" stroke-linejoin="round"/>
<path d="M123.358 141.799C123.358 141.799 119.157 143.419 118.979 146.356C118.8 149.294 120.496 150.201 120.599 151.276C120.701 152.35 117.828 164.684 117.024 171.477C116.219 178.27 118.719 182.817 122.564 184.259C126.409 185.701 139.461 185.69 145.536 185.339C151.611 184.988 156.336 184.086 158.496 180.149C160.656 176.213 161.536 171.661 159.3 165.494C157.065 159.327 155.817 155.304 155.461 153.247C155.105 151.189 152.685 142.787 146.432 139.482C140.179 136.177 133.559 135.907 130.697 138.051C127.835 140.195 123.358 141.799 123.358 141.799Z" fill="#1A3447" stroke="#1A3447" stroke-width="0.703125" stroke-linecap="round" stroke-linejoin="round"/>
<path d="M122.131 151.88C122.131 151.88 122.611 163.22 122.611 167.567C122.611 171.914 123.94 175.667 125.268 177.46C126.597 179.253 131.057 183.13 131.057 183.13C131.057 183.13 131.3 186.867 130.814 187.952C130.328 189.038 127.677 189.643 127.677 189.643C127.677 189.643 128.519 192.661 138.779 192.78C144.821 192.903 150.786 191.412 156.059 188.46C156.059 188.46 151.35 188.336 149.422 186.889C148.518 186.288 147.771 185.48 147.241 184.532C146.711 183.585 146.415 182.525 146.377 181.44C146.258 179.145 146.258 175.408 146.258 175.408C146.68 174.508 147.041 173.581 147.338 172.633C147.581 171.666 147.819 169.738 147.819 169.738C147.819 169.738 151.059 167.578 151.561 165.753C152.063 163.928 151.318 160.445 150.837 159.964C150.357 159.484 150.114 161.897 148.785 162.259C147.457 162.621 147.095 160.931 145.545 159.019C143.995 157.108 141.312 158.728 137.688 154.024C134.065 149.321 136.495 148.041 134.324 146.956C132.153 145.87 122.73 148.986 122.131 151.88Z" fill="white" stroke="#1A3447" stroke-width="0.703125" stroke-linecap="round" stroke-linejoin="round"/>
<path d="M131.377 147.42C131.377 147.42 131.966 154.105 135.697 156.06C139.428 158.015 145.336 157.043 145.336 157.043C145.336 157.043 136.291 156.843 134.32 152.318C132.349 147.793 132.16 145.039 132.16 145.039L131.377 147.42Z" fill="#1A3447" stroke="#1A3447" stroke-width="0.703125" stroke-linecap="round" stroke-linejoin="round"/>
<path d="M128.207 162C128.207 162 129.757 163.55 129.951 165.299" stroke="#1A3447" stroke-width="0.703125" stroke-linecap="round" stroke-linejoin="round"/>
<path d="M129.244 172.152C129.616 172.572 130.063 172.92 130.562 173.178C131.075 173.324 132.76 172.589 132.76 172.589" stroke="#1A3447" stroke-width="0.703125" stroke-linecap="round" stroke-linejoin="round"/>
<path d="M128.876 174.566C128.876 174.566 131.371 175.446 132.543 175.3C133.714 175.154 137.23 173.907 138.034 173.324" stroke="#1A3447" stroke-width="0.703125" stroke-linecap="round" stroke-linejoin="round"/>
<path d="M127.267 164.894C127.267 165.704 126.856 166.363 126.349 166.363C125.841 166.363 125.431 165.704 125.431 164.894C125.431 164.084 125.841 163.431 126.349 163.431C126.856 163.431 127.267 164.09 127.267 164.894Z" fill="#1A3447"/>
<path d="M137.414 164.894C137.414 165.704 137.003 166.363 136.496 166.363C135.988 166.363 135.583 165.704 135.583 164.894C135.583 164.084 135.993 163.431 136.496 163.431C136.998 163.431 137.414 164.09 137.414 164.894Z" fill="#1A3447"/>
<path d="M123.233 160.796C123.233 160.796 125.874 158.814 127.705 161.087" stroke="#1A3447" stroke-width="0.703125" stroke-linecap="round" stroke-linejoin="round"/>
<path d="M134.52 160.645C134.52 160.645 137.965 158.598 140.967 161.158" stroke="#1A3447" stroke-width="0.703125" stroke-linecap="round" stroke-linejoin="round"/>
<path d="M131.059 183.13C131.059 183.13 132.614 184.313 134.153 183.8C135.692 183.287 140.892 180.209 140.892 180.209L131.075 187.461L131.059 183.13Z" fill="#1A3447" stroke="#1A3447" stroke-width="0.703125" stroke-linecap="round" stroke-linejoin="round"/>
<path d="M128.094 188.206C128.094 188.206 131.874 192.823 137.933 192.942C143.991 193.061 155.056 187.38 155.056 187.38C155.056 187.38 163.08 185.76 166.86 187.115C170.64 188.471 173.178 193.185 173.054 198.045C172.93 202.905 172.568 216.745 172.568 216.745C172.568 216.745 172.811 220.271 173.54 222.091C174.269 223.911 172.692 225.369 172.692 225.369C172.879 226.658 173 227.956 173.054 229.257C173.054 230.591 172.325 231.201 172.082 231.687C171.839 232.173 171.477 239.096 171.477 239.096H122.505L110.117 215.876C110.117 215.876 112.185 200.453 112.185 198.266C112.185 196.079 113.363 190.814 115.825 188.795C118.498 186.629 125.545 187.477 128.094 188.206Z" fill="#F0C376" stroke="#1A3447" stroke-width="0.703125" stroke-linecap="round" stroke-linejoin="round"/>
<path d="M119.508 207.128L118.644 222.809" stroke="#1A3447" stroke-width="0.703125" stroke-linecap="round" stroke-linejoin="round"/>
<path d="M165.833 221.659C165.833 221.659 168.133 220.655 171.584 221.945" stroke="#1A3447" stroke-width="0.703125" stroke-linecap="round" stroke-linejoin="round"/>
<path d="M171.72 225.256C171.72 225.256 169.56 222.809 166.974 222.377" stroke="#1A3447" stroke-width="0.703125" stroke-linecap="round" stroke-linejoin="round"/>
<path d="M105.003 185.852L111.575 203.969C111.637 204.132 111.75 204.272 111.896 204.369C112.042 204.466 112.215 204.515 112.39 204.509L122.434 204.196C122.566 204.191 122.695 204.156 122.81 204.093C122.926 204.029 123.025 203.939 123.099 203.83C123.173 203.721 123.22 203.596 123.237 203.466C123.254 203.335 123.24 203.202 123.195 203.078L116.683 184.961C116.622 184.797 116.511 184.657 116.365 184.56C116.22 184.463 116.048 184.414 115.873 184.421L105.764 184.729C105.632 184.733 105.502 184.768 105.386 184.832C105.27 184.895 105.171 184.986 105.096 185.096C105.022 185.205 104.975 185.331 104.958 185.462C104.942 185.594 104.957 185.727 105.003 185.852Z" fill="white" stroke="#1A3447" stroke-width="0.703125" stroke-linecap="round" stroke-linejoin="round"/>
<path d="M108.076 190.21C108.076 190.21 104.987 192.121 105.052 193.174C105.117 194.227 106.348 206.825 106.672 207.878C107.112 209.043 107.671 210.16 108.34 211.21C108.524 211.459 110.565 212.63 110.997 212.387C111.429 212.144 111.861 212.074 111.926 211.399C111.991 210.724 112.234 206.885 112.234 206.086C112.234 205.286 111.985 202.932 111.985 202.932C111.985 202.932 118.465 201.452 118.843 201.204C119.026 201.1 119.165 200.933 119.234 200.734C119.302 200.536 119.296 200.319 119.216 200.124C119.092 199.633 118.595 199.881 118.595 199.881C118.595 199.881 119.459 199.201 119.027 198.396C118.595 197.591 109.512 198.461 109.512 198.461C109.512 198.461 114.766 195.863 116.187 195.248C117.607 194.632 118.536 193.39 118.471 192.899C118.406 192.407 117.547 192.402 116.683 192.775C115.819 193.147 109.636 196.112 109.393 196.171C109.15 196.231 107.293 196.916 107.293 196.916C107.293 196.916 107.044 194.94 107.476 194.011C107.908 193.082 112.11 190.49 112.914 189.626C113.719 188.762 114.086 187.585 113.038 187.958C111.991 188.33 108.697 189.589 108.076 190.21Z" fill="white" stroke="#1A3447" stroke-width="0.703125" stroke-linecap="round" stroke-linejoin="round"/>
<path d="M118.578 199.908C118.578 199.908 110.797 200.648 110.3 200.831C109.803 201.015 108.199 201.371 108.199 202.009" stroke="#1A3447" stroke-width="0.703125" stroke-linecap="round" stroke-linejoin="round"/>
<path d="M111.97 202.932L110.177 203.796" stroke="#1A3447" stroke-width="0.703125" stroke-linecap="round" stroke-linejoin="round"/>
<path d="M132.3 252.364L127.791 240.403C127.791 240.403 122.267 229.603 119.821 224.818C117.375 220.034 113.022 210.136 107.401 208.413C101.779 206.69 95.9852 209.412 93.4472 212.495C90.9092 215.579 90.2072 222.188 89.5538 224.726C88.9004 227.264 85.385 245.473 84.2942 248.373C83.576 250.301 83.0522 251.662 82.7822 252.364H132.3Z" fill="#1A3447" stroke="#1A3447" stroke-width="0.703125" stroke-linecap="round" stroke-linejoin="round"/>
<path d="M108.539 221.4C113.799 229.975 109.9 240.381 108.048 249.48" stroke="#362822" stroke-width="0.703125" stroke-linecap="round" stroke-linejoin="round"/>
<path d="M106.207 219.742L109.107 226.989" stroke="#362822" stroke-width="0.703125" stroke-linecap="round" stroke-linejoin="round"/>
<path d="M163.432 252.364C163.091 250.247 160.732 235.769 158.307 228.895C158.307 228.895 151.152 215.303 145.887 212.695C140.622 210.087 133.931 208.618 130.578 213.419C127.225 218.219 127.041 227.826 126.679 233.086C126.344 237.919 126.015 250.42 125.961 252.385L163.432 252.364Z" fill="#1A3447" stroke="#1A3447" stroke-width="0.703125" stroke-linecap="round" stroke-linejoin="round"/>
<path d="M148.883 225.634C148.948 233.415 148.516 241.655 149.202 249.464" stroke="#362822" stroke-width="0.703125" stroke-linecap="round" stroke-linejoin="round"/>
<path d="M129.945 219.197C128.568 229.079 126.835 239.49 125.274 249.512" stroke="#362822" stroke-width="0.703125" stroke-linecap="round" stroke-linejoin="round"/>
<path d="M153.937 196.987C153.937 196.987 150.287 195.496 149.261 194.875C148.235 194.254 147.219 193.795 147.295 195.01C147.371 196.225 149.601 197.602 151.21 198.596C152.414 199.268 153.706 199.768 155.049 200.081L153.937 196.987Z" fill="white" stroke="#1A3447" stroke-width="0.703125" stroke-linecap="round" stroke-linejoin="round"/>
<path d="M140.108 191.16C140.248 190.249 140.542 189.369 140.978 188.557C141.545 187.671 141.882 186.658 141.961 185.609" stroke="#1A3447" stroke-width="0.703125" stroke-linecap="round" stroke-linejoin="round"/>
<path d="M142.425 191.16C142.53 190.113 142.824 189.094 143.294 188.152C144.213 186.387 144.407 184.334 143.834 182.428" stroke="#1A3447" stroke-width="0.703125" stroke-linecap="round" stroke-linejoin="round"/>
<path d="M129.665 192.029H149.332V200.713C149.332 203.321 148.296 205.822 146.452 207.666C144.608 209.51 142.106 210.546 139.498 210.546C136.89 210.546 134.389 209.51 132.545 207.666C130.701 205.822 129.665 203.321 129.665 200.713V192.029Z" fill="white" stroke="#1A3447" stroke-width="0.703125" stroke-linecap="round" stroke-linejoin="round"/>
<path d="M159.03 211.016C159.03 211.016 158.279 206.696 157.874 203.148C157.469 199.6 154.553 192.888 153.263 192.029C151.972 191.171 148.721 188.028 147.771 188.789C146.82 189.551 147.836 190.145 148.311 190.62C148.786 191.095 150.822 192.721 150.822 192.721L153.057 196.857C153.057 196.857 147.96 195.394 146.88 194.94C145.8 194.486 145.8 195.696 146.086 196.241C146.372 196.787 147.387 197.068 148.332 197.613C149.277 198.158 150.303 198.628 150.303 198.628C150.303 198.628 145.983 198.358 145.281 198.423C144.579 198.488 144.671 199.309 145.487 199.778C146.302 200.248 148.133 200.594 149.148 200.858C150.163 201.123 152.334 201.938 152.334 201.938L153.079 202.619C153.079 202.619 150.843 204.779 150.773 206.215C150.703 207.652 153.894 214.078 154.37 214.963C154.845 215.849 157.896 234.403 158.506 237.816C159.116 241.229 161.206 244.463 163.253 245.414C165.299 246.364 169.29 246.769 170.24 245.684C171.191 244.598 172.476 241.547 171.731 237.411C170.985 233.275 166.374 224.797 163.593 220.131C160.812 215.465 159.91 214.207 159.03 211.016Z" fill="white" stroke="#1A3447" stroke-width="0.703125" stroke-linecap="round" stroke-linejoin="round"/>
<path d="M152.247 204.239C152.247 204.239 148.111 204.309 146.345 204.379C144.579 204.449 144.585 205.189 145.195 205.6C145.805 206.01 152.247 206.75 152.787 206.82" fill="white"/>
<path d="M152.247 204.239C152.247 204.239 148.111 204.309 146.345 204.379C144.579 204.449 144.585 205.189 145.195 205.6C145.805 206.01 152.247 206.75 152.787 206.82" stroke="#1A3447" stroke-width="0.703125" stroke-linecap="round" stroke-linejoin="round"/>
<path d="M149.332 193.32C149.332 193.32 152.248 192.24 154.348 192.575C156.449 192.91 156.654 195.766 156.508 197.867C156.362 199.967 155.558 201.868 153.997 202.954C152.437 204.039 148.775 204.104 148.775 204.104L149.186 202.748C149.186 202.748 151.826 202.954 153.187 201.323C154.548 199.692 154.807 196.036 153.727 195.221C152.647 194.405 149.251 194.881 149.251 194.881L149.332 193.32Z" fill="white" stroke="#1A3447" stroke-width="0.703125" stroke-linecap="round" stroke-linejoin="round"/>
<path d="M150.282 198.607L154.003 199.681" stroke="#1A3447" stroke-width="0.703125" stroke-linecap="round" stroke-linejoin="round"/>
<path d="M178.297 258.541L160.585 252.936L239.906 257.218V258.541H178.297Z" fill="white" stroke="#1A3447" stroke-width="0.703125" stroke-linecap="round" stroke-linejoin="round"/>
<path d="M178.297 257.218L160.585 252.315H224.386L239.906 257.218H178.297Z" fill="#1A3447" stroke="#1A3447" stroke-width="0.703125" stroke-linecap="round" stroke-linejoin="round"/>
<path d="M160.585 253.638V252.315L178.297 257.218V258.541L160.585 253.638Z" fill="#1A3447" stroke="#1A3447" stroke-width="0.703125" stroke-linecap="round" stroke-linejoin="round"/>
<path d="M238.556 257.391L178.297 257.839L176.947 257.391L183.67 220.736H244.755L246.629 221.189L238.556 257.391Z" fill="#1A3447" stroke="#1A3447" stroke-width="0.703125" stroke-linecap="round" stroke-linejoin="round"/>
<path d="M239.905 257.839H178.297L185.02 221.189H246.628L239.905 257.839Z" fill="#1A3447" stroke="#1A3447" stroke-width="0.703125" stroke-linecap="round" stroke-linejoin="round"/>
<path d="M217.42 242.296C218.672 239.925 217.799 237.006 215.47 235.777C213.141 234.547 210.239 235.473 208.987 237.844C207.735 240.215 208.609 243.133 210.937 244.363C213.266 245.592 216.169 244.667 217.42 242.296Z" fill="white" stroke="#1A3447" stroke-width="0.703125" stroke-linecap="round" stroke-linejoin="round"/>
<path d="M105.301 63.3312C105.301 63.3312 98.0273 66.7278 97.5413 67.9428C97.0553 69.1578 94.3877 125.069 94.3877 125.069H165.846L161.115 73.035C161.115 73.035 160.149 64.5462 159.539 64.0602C158.929 63.5742 135.779 59.8158 135.779 59.8158L108.719 62.1L107.515 62.2728L105.301 63.3312Z" fill="#F0C376" stroke="#1A3447" stroke-width="0.703125" stroke-linecap="round" stroke-linejoin="round"/>
<path d="M152.351 90.8928C153.36 94.9374 154.943 101.596 155.31 105.003C155.85 110.101 154.581 118.843 154.581 118.843" stroke="#1A3447" stroke-width="0.703125" stroke-linecap="round" stroke-linejoin="round"/>
<path d="M151.486 87.5179C151.486 87.5179 151.632 88.0579 151.864 88.9921" stroke="#1A3447" stroke-width="0.703125" stroke-linecap="round" stroke-linejoin="round"/>
<path d="M160.035 29.2356C160.017 29.1972 159.989 29.1646 159.954 29.1417C159.918 29.1187 159.877 29.1064 159.835 29.106C159.943 28.1394 161.455 27.8694 161.79 25.2882C162.135 22.5234 155.456 17.9118 155.456 17.9118C155.456 17.9118 149.462 13.9968 147.275 16.2918C145.088 18.5868 150.153 26.0874 150.153 27.5886C150.153 29.0898 133.559 42.336 131.253 47.9844C128.947 53.6328 137.479 56.6244 137.479 56.6244L135.06 65.4966C135.06 65.4966 138.516 70.686 138.629 73.332C138.743 75.978 141.626 81.6318 145.082 83.3598C148.538 85.0878 153.36 83.7 153.36 83.7C152.762 83.5236 152.236 83.1602 151.859 82.6632C151.287 81.8586 151.978 79.8984 153.706 76.5558C155.434 73.2132 164.42 57.1968 163.383 48.5514C162.508 41.2722 160.65 33.4314 160.024 30.4344C161.471 34.2144 166.196 47.7144 164.544 58.6278C164.538 58.6559 164.539 58.6848 164.545 58.7128C164.551 58.7407 164.563 58.7671 164.58 58.7904C164.596 58.8136 164.617 58.8332 164.642 58.848C164.666 58.8627 164.694 58.8724 164.722 58.8762H164.754C164.807 58.8755 164.858 58.8561 164.897 58.8215C164.937 58.7869 164.963 58.7393 164.97 58.6872C166.947 45.8082 160.1 29.403 160.035 29.2356Z" fill="#1A3447" stroke="#1A3447" stroke-width="0.703125" stroke-linecap="round" stroke-linejoin="round"/>
<path d="M136.815 63.1801C136.815 63.1801 142.35 65.8801 142.258 66.6847C142.166 67.4893 141.977 67.7647 141.518 68.8069C141.059 69.8491 139.304 75.4435 138.278 76.2751C137.252 77.1067 129.703 74.1529 127.305 72.8623C124.908 71.5717 121.219 70.1893 121.036 65.6695C120.852 61.1497 123.736 56.3599 124.449 55.8037C124.756 55.5985 125.125 55.5048 125.493 55.5382C125.862 55.5716 126.208 55.7301 126.474 55.9873C126.857 56.3707 133.683 61.5601 136.815 63.1801Z" fill="#F0C376" stroke="#1A3447" stroke-width="0.703125" stroke-linecap="round" stroke-linejoin="round"/>
<path d="M141.151 66.5118C139.729 66.1473 138.364 65.5876 137.096 64.8486" stroke="#1A3447" stroke-width="0.703125" stroke-linecap="round" stroke-linejoin="round"/>
<path d="M139.676 58.212L137.095 64.8486C134.418 63.7205 131.828 62.3957 129.346 60.885C126.927 59.3568 125.847 56.4624 125.847 56.4624L128.055 48.7188C128.055 48.7188 136.906 56.3706 139.676 58.212Z" fill="white" stroke="#1A3447" stroke-width="0.703125" stroke-linecap="round" stroke-linejoin="round"/>
<path d="M150.724 23.6412C150.724 23.6412 155.617 28.5336 156.34 31.266C157.064 33.9984 154.18 43.4916 154.18 43.4916C154.18 43.4916 153.899 47.52 153.17 49.8258C152.441 52.1316 145.546 60.7608 145.546 60.7608C145.546 60.7608 144.687 63.2016 141.377 61.7652C138.067 60.3288 129.578 54.7452 128.573 52.9902C127.569 51.2352 127.439 50.3982 127.439 49.3938C127.542 48.1107 127.833 46.8497 128.303 45.6516C128.595 45.0738 137.224 35.0082 141.971 30.9798C146.717 26.9514 150.724 23.6412 150.724 23.6412Z" fill="white" stroke="#1A3447" stroke-width="0.703125" stroke-linecap="round" stroke-linejoin="round"/>
<path d="M144.612 39.4794C144.612 39.4794 142.327 37.9566 140.551 37.7838C139.365 37.7148 138.179 37.918 137.084 38.3778" stroke="#1A3447" stroke-width="1.40625" stroke-linecap="round" stroke-linejoin="round"/>
<path d="M150.19 39.4794C150.19 39.4794 152.221 38.2914 153.403 38.2914C153.945 38.2738 154.487 38.3027 155.023 38.3778" stroke="#1A3447" stroke-width="1.40625" stroke-linecap="round" stroke-linejoin="round"/>
<path d="M153.323 43.2C152.759 43.6075 152.085 43.8336 151.389 43.848C150.693 43.8625 150.01 43.6647 149.43 43.281" stroke="#1A3447" stroke-width="0.703125" stroke-linecap="round" stroke-linejoin="round"/>
<path d="M143.003 43.2811C143.003 43.2811 139.622 44.6365 136.744 42.5197" stroke="#1A3447" stroke-width="0.703125" stroke-linecap="round" stroke-linejoin="round"/>
<path d="M148.753 47.3418C148.753 47.3418 149.515 49.7934 148.84 50.3874C148.165 50.9814 146.723 51.57 145.794 50.895" stroke="#1A3447" stroke-width="0.703125" stroke-linecap="round" stroke-linejoin="round"/>
<path d="M158.112 54.8316C158.112 54.8316 161.849 52.3962 162.432 52.3962C163.016 52.3962 165.921 55.89 167.465 58.1634C169.01 60.4368 169.253 61.4034 169.172 62.3052C169.091 63.207 168.939 66.9978 168.453 68.2938C167.967 69.5898 164.868 77.6628 164.868 77.6628L166.32 85.4604L157.302 89.4402C157.302 89.4402 155.515 74.817 155.434 74.3202C155.353 73.8234 154.133 71.4744 153.971 69.4602C153.809 67.446 153.809 65.5614 153.809 63.045C153.809 60.5286 154.7 54.108 154.7 54.108L158.112 54.8316Z" fill="white" stroke="#1A3447" stroke-width="0.703125" stroke-linecap="round" stroke-linejoin="round"/>
<path d="M167.616 60.0318C167.616 60.0318 164.376 56.7 163.798 56.619C163.22 56.538 157.626 58.4064 157.626 58.4064" stroke="#1A3447" stroke-width="0.703125" stroke-linecap="round" stroke-linejoin="round"/>
<path d="M167.4 62.9586C167.4 62.9586 163.582 60.5178 162.934 60.4368C162.286 60.3558 157.248 62.4672 156.994 62.3862" stroke="#1A3447" stroke-width="0.703125" stroke-linecap="round" stroke-linejoin="round"/>
<path d="M167.211 65.718C167.211 65.718 162.664 63.3636 162.092 63.4446C161.519 63.5256 158.598 66.042 158.274 66.5334C157.95 67.0248 156.405 70.0218 156.81 70.5132C157.215 71.0046 158.355 70.5132 158.355 70.5132L160.553 67.5864L163.307 68.6988" stroke="#1A3447" stroke-width="0.703125" stroke-linecap="round" stroke-linejoin="round"/>
<path d="M156.979 65.8801L157.303 67.6675" stroke="#1A3447" stroke-width="0.703125" stroke-linecap="round" stroke-linejoin="round"/>
<path d="M160.38 70.8589C160.38 70.8589 157.81 74.7361 158.296 75.7945C158.597 76.4309 159.077 76.9657 159.678 77.3335" stroke="#1A3447" stroke-width="0.703125" stroke-linecap="round" stroke-linejoin="round"/>
<path d="M157.972 52.164C157.972 52.164 158.836 60.7608 156.551 66.4254C154.592 66.9626 152.567 67.2243 150.536 67.203C147.404 67.1166 144.272 67.203 143.764 66.285C143.257 65.367 141.647 57.8286 141.566 52.5042C141.566 52.5042 150.444 49.3722 157.972 52.164Z" fill="white" stroke="#1A3447" stroke-width="0.703125" stroke-linecap="round" stroke-linejoin="round"/>
<path d="M144.354 66.285C144.354 66.6414 146.989 66.9222 150.234 66.9222C153.48 66.9222 156.115 66.6414 156.115 66.285C156.115 65.9286 153.485 65.6532 150.234 65.6532C146.983 65.6532 144.354 65.934 144.354 66.285Z" stroke="#1A3447" stroke-width="0.703125" stroke-linecap="round" stroke-linejoin="round"/>
<path d="M154.624 125.059H178.546C178.303 118.638 175.139 105.964 175.355 104.679C175.63 103.021 175.171 98.226 174.34 97.0272C173.508 95.8284 170.193 95.8284 170.193 95.8284C170.193 95.8284 157.287 99.0684 156.73 99.333C155.84 99.8491 155.062 100.538 154.441 101.358C153.426 102.557 153.706 103.113 153.798 107.627C153.841 110.662 154.322 119.54 154.624 125.059Z" fill="#F0C376" stroke="#1A3447" stroke-width="0.703125" stroke-linecap="round" stroke-linejoin="round"/>
<path d="M166.596 81.8154C166.596 81.8154 155.04 84.024 154.673 84.672C154.37 85.3412 154.337 86.1014 154.581 86.7942C154.764 87.3342 156.914 99.5166 156.914 100.159C156.914 100.802 157.005 101.731 161.342 101.822C164.306 101.882 169.809 101.029 170.948 97.7454C171.488 96.1956 170.408 94.3164 169.96 92.8368C169.29 90.72 168.637 88.5924 168.048 86.4486C167.778 85.4712 167.557 85.1688 167.633 84.132C167.724 82.8414 167.238 81.8154 166.596 81.8154Z" fill="#F0C376" stroke="#1A3447" stroke-width="0.703125" stroke-linecap="round" stroke-linejoin="round"/>
<path d="M150.217 17.2098C150.217 17.2098 147.685 12.5172 143.143 12.1662C138.602 11.8152 127.408 12.8196 120.96 20.4174C114.512 28.0152 112.779 38.61 110.7 43.2702C106.888 51.9102 102.881 64.9242 102.881 64.9242L107.492 62.2944C107.492 62.2944 107.924 63.5148 108.189 64.4544C108.454 65.394 112.99 74.412 117.909 77.6412C122.828 80.8704 123.584 83.5812 124.022 83.4084C124.459 83.2356 127.429 80.7084 128.212 72.8406C128.995 64.9728 126.819 60.0048 126.819 57.645C126.819 55.6254 127.84 47.3418 129.67 43.902C145.406 36.342 149.65 27.4752 150.665 24.6078C151.265 24.0201 151.817 23.3864 152.318 22.7124C154.057 20.0286 150.217 17.2098 150.217 17.2098ZM130.091 43.2324C130.257 43.0127 130.456 42.8197 130.68 42.66C132.673 41.2398 144.596 30.78 149.915 25.4286C148.424 28.8252 143.791 36.4716 130.091 43.2324Z" fill="#1A3447"/>
<path d="M100.981 73.6398C100.981 73.6398 109.713 88.074 109.837 90.4986C109.961 92.9232 102.774 110.754 102.774 110.754C102.774 110.754 109.227 111.364 110.075 112.088C110.922 112.811 112.019 113.546 112.019 113.546C112.019 113.546 114.324 113.789 118.083 113.908C121.841 114.026 123.175 114.637 123.299 114.988C123.423 115.339 123.785 116.44 123.785 116.44C123.785 116.44 121.965 128.45 120.993 128.812C120.021 129.173 95.3757 130.75 91.9791 130.27C88.5825 129.789 81.4275 127.235 78.5169 127.116C75.6063 126.997 75.3633 125.296 75.4821 123.233C75.6009 121.171 86.0607 93.5334 89.3385 87.0912C92.6163 80.649 96.1263 68.2884 97.5843 67.9266C99.0423 67.5648 100.981 69.2604 100.981 69.2604" fill="#F0C376"/>
<path d="M100.981 73.6398C100.981 73.6398 109.713 88.074 109.837 90.4986C109.961 92.9232 102.774 110.754 102.774 110.754C102.774 110.754 109.227 111.364 110.075 112.088C110.922 112.811 112.019 113.546 112.019 113.546C112.019 113.546 114.324 113.789 118.083 113.908C121.841 114.026 123.175 114.637 123.299 114.988C123.423 115.339 123.785 116.44 123.785 116.44C123.785 116.44 121.965 128.45 120.993 128.812C120.021 129.173 95.3757 130.75 91.9791 130.27C88.5825 129.789 81.4275 127.235 78.5169 127.116C75.6063 126.997 75.3633 125.296 75.4821 123.233C75.6009 121.171 86.0607 93.5334 89.3385 87.0912C92.6163 80.649 96.1263 68.2884 97.5843 67.9266C99.0423 67.5648 100.981 69.2604 100.981 69.2604" stroke="#1A3447" stroke-width="0.703125" stroke-linecap="round" stroke-linejoin="round"/>
<path d="M85.7795 115.733C84.6131 116.57 83.8301 117.185 83.8301 117.185" stroke="#1A3447" stroke-width="0.703125" stroke-linecap="round" stroke-linejoin="round"/>
<path d="M102.752 110.754C102.752 110.754 95.3538 110.273 91.8384 111.969C90.4515 112.664 89.1113 113.449 87.8262 114.318" stroke="#1A3447" stroke-width="0.703125" stroke-linecap="round" stroke-linejoin="round"/>
<path d="M110.015 85.0932C110.015 85.0932 111.635 89.8992 111.446 91.9458C111.257 93.9924 109.604 96.8544 109.604 96.8544" stroke="#1A3447" stroke-width="0.703125" stroke-linecap="round" stroke-linejoin="round"/>
<path d="M132.299 116.98C132.299 116.98 136.079 116.143 138.309 114.928C140.54 113.713 143.537 112.973 145.4 113.438C147.263 113.902 153.051 114.275 154.45 114.372C155.849 114.469 157.436 114.372 157.253 114.653C157.069 114.934 164.526 114.275 166.303 113.902C168.08 113.53 173.323 112.374 173.323 113.027C173.323 113.681 172.394 115.079 170.715 115.727C169.035 116.375 161.999 117.823 161.999 117.823C161.999 117.823 154.067 121.462 151.923 122.024C149.779 122.585 143.429 122.564 142.964 122.564C142.5 122.564 131.219 125.82 131.219 125.82C131.219 125.82 131.16 120.058 132.299 116.98Z" fill="white" stroke="#1A3447" stroke-width="0.703125" stroke-linecap="round" stroke-linejoin="round"/>
<path d="M157.237 114.653C157.237 114.653 158.166 115.193 156.114 116.235C154.062 117.277 152.102 118.012 151.167 117.914C149.943 117.732 148.73 117.483 147.533 117.169C147.252 117.077 145.292 117.709 143.985 118.195" stroke="#1A3447" stroke-width="0.703125" stroke-linecap="round" stroke-linejoin="round"/>
<path d="M134.147 116.284C134.147 116.284 133.332 122.315 133.434 124.978C133.537 127.64 133.634 128.25 132.819 128.45C132.003 128.65 120.939 129.168 120.037 129.168C119.135 129.168 117.477 128.552 117.277 127.121C117.078 125.69 117.38 117.817 118.606 117.002C119.832 116.186 120.037 116.078 120.647 116.181C121.257 116.284 126.047 116.078 128.747 116.078C131.447 116.078 133.839 115.668 134.147 116.284Z" fill="#F0C376" stroke="#1A3447" stroke-width="0.703125" stroke-linecap="round" stroke-linejoin="round"/>
<path d="M139.142 111.915C139.142 113.389 147.852 115.614 157.367 115.614C166.881 115.614 175.592 113.389 175.592 111.915C175.592 110.441 166.881 110.263 157.367 110.263C147.852 110.263 139.142 110.441 139.142 111.915Z" fill="white" stroke="#1A3447" stroke-width="0.703125" stroke-linecap="round" stroke-linejoin="round"/>
<path d="M139.142 111.915C139.142 113.389 147.301 114.588 157.367 114.588C167.432 114.588 175.592 113.389 175.592 111.915C175.592 110.441 167.432 109.242 157.367 109.242C147.301 109.242 139.142 110.441 139.142 111.915Z" fill="white" stroke="#1A3447" stroke-width="0.703125" stroke-linecap="round" stroke-linejoin="round"/>
<path d="M157.367 113.335C163.904 113.335 169.204 112.699 169.204 111.915C169.204 111.131 163.904 110.495 157.367 110.495C150.83 110.495 145.53 111.131 145.53 111.915C145.53 112.699 150.83 113.335 157.367 113.335Z" fill="white" stroke="#1A3447" stroke-width="0.703125" stroke-linecap="round" stroke-linejoin="round"/>
<path d="M236.152 122.413H180.635V126.203H236.152V122.413Z" fill="white" stroke="#1A3447" stroke-width="0.703125" stroke-linecap="round" stroke-linejoin="round"/>
<path d="M238.458 122.413H214.472V126.203H238.458V122.413Z" fill="white" stroke="#1A3447" stroke-width="0.703125" stroke-linecap="round" stroke-linejoin="round"/>
<path d="M233.242 110.792H177.725V114.583H233.242V110.792Z" fill="#F0C376" stroke="#1A3447" stroke-width="0.703125" stroke-linecap="round" stroke-linejoin="round"/>
<path d="M235.553 110.792H211.566V114.583H235.553V110.792Z" fill="white" stroke="#1A3447" stroke-width="0.703125" stroke-linecap="round" stroke-linejoin="round"/>
<path d="M211.566 110.792L235.407 108.891H197.71L177.725 110.792H211.566Z" fill="#F0C376" stroke="#1A3447" stroke-width="0.703125" stroke-linecap="round" stroke-linejoin="round"/>
<path d="M211.767 112.163H218.193" stroke="#1A3447" stroke-width="0.351562" stroke-linecap="round" stroke-linejoin="round"/>
<path d="M215.249 113.249H219.607" stroke="#1A3447" stroke-width="0.351562" stroke-linecap="round" stroke-linejoin="round"/>
<path d="M235.407 112.379H227.998" stroke="#1A3447" stroke-width="0.351562" stroke-linecap="round" stroke-linejoin="round"/>
<path d="M231.158 113.033H223.555" stroke="#1A3447" stroke-width="0.351562" stroke-linecap="round" stroke-linejoin="round"/>
<path d="M189.895 117.731H185.667" stroke="#1A3447" stroke-width="0.351562" stroke-linecap="round" stroke-linejoin="round"/>
<path d="M236.152 114.669H180.635V118.46H236.152V114.669Z" fill="white" stroke="#1A3447" stroke-width="0.703125" stroke-linecap="round" stroke-linejoin="round"/>
<path d="M238.458 114.669H214.472V118.46H238.458V114.669Z" fill="white" stroke="#1A3447" stroke-width="0.703125" stroke-linecap="round" stroke-linejoin="round"/>
<path d="M180.613 115.533H186.159" stroke="#1A3447" stroke-width="0.351562" stroke-linecap="round" stroke-linejoin="round"/>
<path d="M181.716 116.3H193.736" stroke="#1A3447" stroke-width="0.351562" stroke-linecap="round" stroke-linejoin="round"/>
<path d="M214.271 115.916H204.605" stroke="#1A3447" stroke-width="0.351562" stroke-linecap="round" stroke-linejoin="round"/>
<path d="M210.373 117.072H220.86" stroke="#1A3447" stroke-width="0.351562" stroke-linecap="round" stroke-linejoin="round"/>
<path d="M221.848 117.018H223.932" stroke="#1A3447" stroke-width="0.351562" stroke-linecap="round" stroke-linejoin="round"/>
<path d="M237.799 118.541H182.281V122.332H237.799V118.541Z" fill="#F0C376" stroke="#1A3447" stroke-width="0.703125" stroke-linecap="round" stroke-linejoin="round"/>
<path d="M240.111 118.541H216.124V122.332H240.111V118.541Z" fill="white" stroke="#1A3447" stroke-width="0.703125" stroke-linecap="round" stroke-linejoin="round"/>
<path d="M216.194 119.983H223.609" stroke="#1A3447" stroke-width="0.351562" stroke-linecap="round" stroke-linejoin="round"/>
<path d="M224.758 120.091H228.219" stroke="#1A3447" stroke-width="0.351562" stroke-linecap="round" stroke-linejoin="round"/>
<path d="M217.566 120.857H228.161" stroke="#1A3447" stroke-width="0.351562" stroke-linecap="round" stroke-linejoin="round"/>
<path d="M239.911 121.079H236.233" stroke="#1A3447" stroke-width="0.351562" stroke-linecap="round" stroke-linejoin="round"/>
<path d="M238.371 124.427H229.202" stroke="#1A3447" stroke-width="0.351562" stroke-linecap="round" stroke-linejoin="round"/>
<path d="M222.837 124.648H226.293" stroke="#1A3447" stroke-width="0.351562" stroke-linecap="round" stroke-linejoin="round"/>
<path d="M225.687 123.989H233.209" stroke="#1A3447" stroke-width="0.351562" stroke-linecap="round" stroke-linejoin="round"/>
<path d="M218.991 125.415H238.318" stroke="#1A3447" stroke-width="0.351562" stroke-linecap="round" stroke-linejoin="round"/>
<path d="M214.655 127.391H218.171" stroke="#1A3447" stroke-width="0.351562" stroke-linecap="round" stroke-linejoin="round"/>
<path d="M234.381 126.29H178.863V130.081H234.381V126.29Z" fill="#1A3447" stroke="#1A3447" stroke-width="0.703125" stroke-linecap="round" stroke-linejoin="round"/>
<path d="M236.692 126.29H212.705V130.081H236.692V126.29Z" fill="white" stroke="#1A3447" stroke-width="0.703125" stroke-linecap="round" stroke-linejoin="round"/>
<path d="M236.384 127.505H233.312" stroke="#1A3447" stroke-width="0.351562" stroke-linecap="round" stroke-linejoin="round"/>
<path d="M236.66 128.38H229.575" stroke="#1A3447" stroke-width="0.351562" stroke-linecap="round" stroke-linejoin="round"/>
<path d="M236.492 129.152H233.911" stroke="#1A3447" stroke-width="0.351562" stroke-linecap="round" stroke-linejoin="round"/>
<path d="M213.105 128.493H215.579" stroke="#1A3447" stroke-width="0.351562" stroke-linecap="round" stroke-linejoin="round"/>
<path d="M214.04 129.206H228.755" stroke="#1A3447" stroke-width="0.351562" stroke-linecap="round" stroke-linejoin="round"/>
<path d="M198.957 124.362H215.562" stroke="#1A3447" stroke-width="0.351562" stroke-linecap="round" stroke-linejoin="round"/>
<path d="M192.262 124.265H196.339" stroke="#1A3447" stroke-width="0.351562" stroke-linecap="round" stroke-linejoin="round"/>
<path d="M181.094 123.779H184.976" stroke="#1A3447" stroke-width="0.351562" stroke-linecap="round" stroke-linejoin="round"/>
<path d="M182.649 124.945H188.087" stroke="#1A3447" stroke-width="0.351562" stroke-linecap="round" stroke-linejoin="round"/>
<path d="M37.0875 59.2056C37.0875 59.2056 35.6241 63.234 32.5137 63.7794C29.4033 64.3248 23.9169 58.32 27.3945 55.1826C30.8721 52.0452 35.6403 57.0132 37.0875 59.2056Z" fill="#F0C376" stroke="#1A3447" stroke-width="0.527344" stroke-linecap="round" stroke-linejoin="round"/>
<path d="M41.8444 39.4524C41.8444 39.4524 37.2598 50.6088 39.1012 56.0952C40.9426 61.5816 52.2718 65.61 55.5604 58.4766C58.849 51.3432 51.5374 41.283 48.7942 39.0852C46.051 36.8874 42.757 37.6218 41.8444 39.4524Z" fill="#F0C376" stroke="#1A3447" stroke-width="0.527344" stroke-linecap="round" stroke-linejoin="round"/>
<path d="M68.5476 44.2098C68.5476 44.2098 60.6852 51.3432 59.7672 58.4766C58.8492 65.61 64.1574 68.1696 69.6492 67.257C75.141 66.3444 77.8788 52.4394 76.2318 46.035C74.5848 39.6306 68.5476 44.2098 68.5476 44.2098Z" fill="#F0C376" stroke="#1A3447" stroke-width="0.527344" stroke-linecap="round" stroke-linejoin="round"/>
<path d="M70.0117 83.7C70.0117 83.7 61.2313 84.0672 60.8695 88.2738C60.5077 92.4804 64.7089 93.3984 68.9155 89.7372C73.1221 86.076 73.6729 83.8998 70.0117 83.7Z" fill="#F0C376" stroke="#1A3447" stroke-width="0.527344" stroke-linecap="round" stroke-linejoin="round"/>
<path d="M61.0205 89.2944C61.0205 89.2944 67.9433 86.13 71.0591 85.5792" stroke="#1A3447" stroke-width="0.527344" stroke-miterlimit="10"/>
<path d="M71.9706 111.24C71.9706 111.24 65.4906 105.3 62.2506 108C59.0106 110.7 61.3272 114.334 66.8892 114.739C72.4512 115.144 74.4168 113.972 71.9706 111.24Z" fill="#F0C376" stroke="#1A3447" stroke-width="0.527344" stroke-linecap="round" stroke-linejoin="round"/>
<path d="M61.6689 108.794C61.6689 108.794 68.7969 111.494 71.3889 113.292" stroke="#1A3447" stroke-width="0.527344" stroke-miterlimit="10"/>
<path d="M37.9504 109.49C37.9504 109.49 46.8388 101.261 51.2992 104.992C55.7596 108.724 52.5736 113.724 44.9056 114.28C37.2376 114.836 34.5592 113.243 37.9504 109.49Z" fill="#F0C376" stroke="#1A3447" stroke-width="0.527344" stroke-linecap="round" stroke-linejoin="round"/>
<path d="M52.1483 106.11C52.1483 106.11 42.3311 109.798 38.7617 112.32" stroke="#1A3447" stroke-width="0.527344" stroke-miterlimit="10"/>
<path d="M48.2436 92.4966C48.2436 92.4966 47.331 96.8868 44.037 98.5338C40.743 100.181 34.8948 96.7032 37.9998 91.4004C41.1048 86.0976 46.5966 90.3042 48.2436 92.4966Z" fill="#F0C376" stroke="#1A3447" stroke-width="0.527344" stroke-linecap="round" stroke-linejoin="round"/>
<path d="M40.565 78.7806C40.565 78.7806 38.918 75.1194 32.5136 77.5008C26.1092 79.8822 23.5496 83.5326 27.578 84.8178C31.6064 86.103 40.565 78.7806 40.565 78.7806Z" fill="#F0C376" stroke="#1A3447" stroke-width="0.527344" stroke-linecap="round" stroke-linejoin="round"/>
<path d="M39.3386 78.6132C39.3386 78.6132 32.5562 79.3476 28.8896 82.4634" stroke="#1A3447" stroke-width="0.527344" stroke-miterlimit="10"/>
<path d="M58.8594 34.8786C58.8594 34.8786 59.9394 37.4382 62.1534 36.8928C64.3674 36.3474 64.8966 33.048 68.3688 33.966C71.841 34.884 74.7732 38.9016 74.7732 37.0764C74.7732 35.2512 70.383 30.4884 65.442 30.4884C60.501 30.4884 59.0376 32.5026 58.8594 34.8786Z" fill="#F0C376" stroke="#1A3447" stroke-width="0.527344" stroke-linecap="round" stroke-linejoin="round"/>
<path d="M40.5654 78.7806C40.5654 78.7806 48.4386 77.2686 51.7218 86.0112C52.0463 86.8949 52.3203 87.7964 52.5426 88.7112" stroke="#1A3447" stroke-width="0.527344" stroke-miterlimit="10"/>
<path d="M73.4395 70.308C73.4395 70.308 75.0595 66.6468 81.4854 69.0282C87.9115 71.4096 90.4441 75.06 86.3995 76.3452C82.3549 77.6304 73.4395 70.308 73.4395 70.308Z" fill="#F0C376" stroke="#1A3447" stroke-width="0.527344" stroke-linecap="round" stroke-linejoin="round"/>
<path d="M74.8984 70.5456C74.8984 70.5456 81.4972 70.1784 84.6184 74.0286" stroke="#1A3447" stroke-width="0.527344" stroke-miterlimit="10"/>
<path d="M73.4403 70.308C71.5889 70.0476 69.7015 70.3037 67.9863 71.0478" stroke="#1A3447" stroke-width="0.527344" stroke-miterlimit="10"/>
<path d="M44.7612 63.747C40.9002 59.805 37.0878 59.2056 37.0878 59.2056C37.0878 59.2056 31.4556 57.7152 29.2578 59.7456" stroke="#1A3447" stroke-width="0.527344" stroke-miterlimit="10"/>
<path d="M45.5433 43.4808L45.2031 41.9526" stroke="#1A3447" stroke-width="0.527344" stroke-miterlimit="10"/>
<path d="M54.454 124.346C54.454 124.346 55.2748 92.8476 54.454 83.2788C53.6332 73.71 49.8046 62.5104 49.8046 62.5104L45.9004 45.1008" stroke="#1A3447" stroke-width="0.527344" stroke-miterlimit="10"/>
<path d="M70.708 50.247L71.4154 48.735" stroke="#1A3447" stroke-width="0.527344" stroke-miterlimit="10"/>
<path d="M56.3652 124.313C56.3652 124.313 56.6406 95.58 57.7314 87.3828C58.8222 79.1856 63.1962 66.3228 63.1962 66.3228L69.9084 51.948" stroke="#1A3447" stroke-width="0.527344" stroke-miterlimit="10"/>
<path d="M61.02 89.2944C61.02 89.2944 59.1084 105.764 58.0176 124.351" stroke="#1A3447" stroke-width="0.527344" stroke-miterlimit="10"/>
<path d="M51.7215 124.313C51.7215 124.313 52.2615 98.0424 51.1815 94.4892C50.1015 90.936 48.2547 92.4966 48.2547 92.4966C48.2547 92.4966 43.1949 93.0906 41.3643 96.0282" stroke="#1A3447" stroke-width="0.527344" stroke-miterlimit="10"/>
<path d="M52.9736 90.72C54.4046 98.7336 53.087 124.324 53.087 124.324" stroke="#1A3447" stroke-width="0.527344" stroke-miterlimit="10"/>
<path d="M66.4202 71.9064C64.4808 73.303 63.0284 75.2729 62.2676 77.5386C58.9898 86.2866 59.3624 124.351 59.3624 124.351" stroke="#1A3447" stroke-width="0.527344" stroke-miterlimit="10"/>
<path d="M45.7109 64.8C47.769 67.2779 49.3426 70.121 50.3495 73.1808C54.7235 85.752 56.3651 118.309 55.5443 124.324" stroke="#1A3447" stroke-width="0.527344" stroke-miterlimit="10"/>
<path d="M56.8188 76.5558C56.5542 92.421 56.3652 124.313 56.3652 124.313" stroke="#1A3447" stroke-width="0.527344" stroke-miterlimit="10"/>
<path d="M56.8516 74.5794C57.0352 64.0872 57.2458 53.8164 57.4618 48.2976C58.0018 34.0848 58.855 34.8786 58.855 34.8786C58.855 34.8786 59.8648 31.6872 65.551 32.0544" stroke="#1A3447" stroke-width="0.527344" stroke-miterlimit="10"/>
<path d="M49.8524 86.562C49.8524 86.562 45.2786 82.485 47.1092 80.4762C48.9398 78.4674 60.2798 77.004 63.5738 79.6068C66.8678 82.2096 59.5454 85.8924 56.8022 86.697C54.059 87.5016 50.7596 87.2316 49.8524 86.562Z" fill="#F0C376" stroke="#1A3447" stroke-width="0.527344" stroke-linecap="round" stroke-linejoin="round"/>
<path d="M54.0753 83.2248C54.0096 83.6265 53.9753 84.0327 53.9727 84.4398" stroke="#1A3447" stroke-width="0.527344" stroke-miterlimit="10"/>
<path d="M55.6474 78.462C55.1776 79.4394 54.7858 80.4523 54.4756 81.4914" stroke="#1A3447" stroke-width="0.527344" stroke-miterlimit="10"/>
<path d="M49.8524 113.222C49.8524 113.222 45.2786 109.145 47.1092 107.141C48.9398 105.138 60.2798 103.664 63.5738 106.272C66.8678 108.88 59.5454 112.558 56.8022 113.357C54.059 114.156 50.7596 113.891 49.8524 113.222Z" fill="#F0C376" stroke="#1A3447" stroke-width="0.527344" stroke-linecap="round" stroke-linejoin="round"/>
<path d="M55.6467 105.122C55.6467 105.122 53.9727 108.47 53.9727 111.105" stroke="#1A3447" stroke-width="0.527344" stroke-miterlimit="10"/>
<path d="M53.2598 101.947C53.2598 101.947 50.1548 99.1764 51.3968 97.8156C52.6388 96.4548 60.3392 95.4558 62.5748 97.227C64.8104 98.9982 59.8424 101.493 57.9794 102.038C56.1164 102.584 53.8808 102.4 53.2598 101.947Z" fill="#F0C376" stroke="#1A3447" stroke-width="0.527344" stroke-linecap="round" stroke-linejoin="round"/>
<path d="M57.1916 96.4494C57.1916 96.4494 56.0576 98.7228 56.0576 100.505" stroke="#1A3447" stroke-width="0.527344" stroke-miterlimit="10"/>
<path d="M61.3387 119.777H48.9619V125.653H61.3387V119.777Z" fill="#1A3447" stroke="#1A3447" stroke-width="0.527344" stroke-linecap="round" stroke-linejoin="round"/>
<path d="M231.773 10.9944H188.39V63.2718H231.773V10.9944Z" stroke="#1A3447" stroke-width="0.703125" stroke-linecap="round" stroke-linejoin="round"/>
<path d="M229.273 14.0076H190.896V60.2586H229.273V14.0076Z" stroke="#1A3447" stroke-width="0.703125" stroke-linecap="round" stroke-linejoin="round"/>
<path d="M218.328 27.1998H201.842V47.0664H218.328V27.1998Z" stroke="#1A3447" stroke-width="0.703125" stroke-linecap="round" stroke-linejoin="round"/>
</svg>
