<svg width="294" height="294" viewBox="0 0 294 294" fill="none" xmlns="http://www.w3.org/2000/svg">
<path d="M260.22 89.9992C260.22 89.9992 220.965 43.0533 160.166 32.2753C99.3665 21.4972 87.436 67.2966 67.0324 94.2328C46.6288 121.169 23.5615 131.171 22.4032 170.038C21.2448 208.905 37.0444 228.914 67.4263 242.768C97.8083 256.621 128.996 263.936 159.395 268.163C189.795 272.391 214.032 270.092 225.969 245.078C237.905 220.065 232.513 208.522 246.367 196.592C260.22 184.661 291.39 130.401 260.22 89.9992Z" fill="#F0C376"/>
<path opacity="0.7" d="M260.22 89.9992C260.22 89.9992 220.965 43.0533 160.166 32.2753C99.3665 21.4972 87.436 67.2966 67.0324 94.2328C46.6288 121.169 23.5615 131.171 22.4032 170.038C21.2448 208.905 37.0444 228.914 67.4263 242.768C97.8083 256.621 128.996 263.936 159.395 268.163C189.795 272.391 214.032 270.092 225.969 245.078C237.905 220.065 232.513 208.522 246.367 196.592C260.22 184.661 291.39 130.401 260.22 89.9992Z" fill="white"/>
<path d="M268.303 114.103C274.809 112.4 278.703 105.745 276.999 99.2389C275.296 92.7328 268.641 88.8392 262.135 90.5424C255.629 92.2456 251.735 98.9007 253.438 105.407C255.142 111.913 261.797 115.807 268.303 114.103Z" fill="white" stroke="#1A3447" stroke-width="0.588" stroke-linecap="round" stroke-linejoin="round"/>
<path d="M262.054 92.6688L264.788 95.2618L259.743 94.08" stroke="#1A3447" stroke-width="1.176" stroke-linecap="round" stroke-linejoin="round"/>
<path d="M274.932 98.9898L271.039 98.3312L274.855 101.501" stroke="#1A3447" stroke-width="1.176" stroke-linecap="round" stroke-linejoin="round"/>
<path d="M257.979 95.9498C256.756 101.242 258.385 106.299 262.318 108.227C266.252 110.156 271.256 108.345 274.666 104.152L273.332 103.2C269.073 100.149 264.333 97.8332 259.308 96.3496L257.979 95.9498Z" fill="#1A3447" stroke="#1A3447" stroke-width="0.588" stroke-linecap="round" stroke-linejoin="round"/>
<path d="M269.387 108.192C268.174 106.326 266.475 104.828 264.473 103.858C262.471 102.888 260.242 102.483 258.026 102.688C258.278 103.88 258.799 104.999 259.55 105.958C260.301 106.918 261.261 107.693 262.358 108.224C263.454 108.755 264.657 109.029 265.876 109.023C267.094 109.018 268.295 108.733 269.387 108.192Z" fill="#F0C376" stroke="#1A3447" stroke-width="0.588" stroke-linecap="round" stroke-linejoin="round"/>
<path d="M85.5722 26.0601C86.9276 23.9329 88.8834 22.2554 91.1922 21.2397C93.501 20.2239 96.0591 19.9156 98.5431 20.3537C101.027 20.7918 103.325 21.9567 105.147 23.7009C106.969 25.4452 108.233 27.6906 108.779 30.1531C109.325 32.6157 109.129 35.1848 108.215 37.5357C107.301 39.8865 105.71 41.9136 103.644 43.3604C101.578 44.8073 99.1289 45.609 96.6072 45.6643C94.0854 45.7195 91.6039 45.0257 89.4765 43.6707C88.0637 42.7708 86.842 41.6015 85.8811 40.2294C84.9203 38.8574 84.2391 37.3095 83.8766 35.6741C83.514 34.0388 83.4771 32.348 83.7681 30.6984C84.059 29.0489 84.672 27.4727 85.5722 26.0601Z" fill="white" stroke="#1A3447" stroke-width="0.588" stroke-linecap="round" stroke-linejoin="round"/>
<path d="M108.88 30.2878L108.598 29.6646C108.338 29.069 107.877 28.5841 107.295 28.2948C106.714 28.0056 106.049 27.9305 105.417 28.0828" stroke="#1A3447" stroke-width="1.176" stroke-linecap="round" stroke-linejoin="round"/>
<path d="M98.5551 26.0425L98.0788 25.5545C97.6263 25.0905 97.0254 24.7999 96.3808 24.7333C95.7362 24.6667 95.0886 24.8283 94.5508 25.1899" stroke="#1A3447" stroke-width="1.176" stroke-linecap="round" stroke-linejoin="round"/>
<path d="M93.5865 28.0946C92.7751 29.3647 92.8515 30.8523 93.7453 31.4227C94.6391 31.993 96.0209 31.4227 96.8323 30.1644C97.6437 28.906 97.5673 27.4066 96.6677 26.8363C95.768 26.2659 94.3921 26.8304 93.5865 28.0946Z" fill="#1A3447" stroke="#1A3447" stroke-width="0.588" stroke-linecap="round" stroke-linejoin="round"/>
<path d="M104.352 32.093C104.164 33.5865 104.876 34.8978 105.928 35.033C106.981 35.1682 107.986 34.0569 108.169 32.5693C108.351 31.0816 107.645 29.7645 106.593 29.6293C105.54 29.494 104.535 30.6054 104.352 32.093Z" fill="#1A3447" stroke="#1A3447" stroke-width="0.588" stroke-linecap="round" stroke-linejoin="round"/>
<path d="M97.3317 35.7151C96.9848 37.0263 97.5081 38.3023 98.5077 38.561C99.5073 38.8197 100.583 37.973 100.93 36.6618C101.277 35.3505 100.748 34.0746 99.7542 33.8158C98.7605 33.5571 97.6727 34.4038 97.3317 35.7151Z" fill="#1A3447" stroke="#1A3447" stroke-width="0.588" stroke-linecap="round" stroke-linejoin="round"/>
<path d="M219.338 223.651C226.38 223.498 231.965 217.666 231.813 210.624C231.66 203.582 225.828 197.997 218.786 198.149C211.744 198.302 206.159 204.134 206.311 211.176C206.464 218.218 212.296 223.803 219.338 223.651Z" fill="white" stroke="#1A3447" stroke-width="0.588" stroke-linecap="round" stroke-linejoin="round"/>
<path d="M210.763 201.131L211.351 200.808C211.921 200.497 212.583 200.396 213.22 200.523C213.857 200.65 214.429 200.996 214.838 201.502" stroke="#1A3447" stroke-width="1.176" stroke-linecap="round" stroke-linejoin="round"/>
<path d="M221.523 204.089L222.2 203.995C222.843 203.904 223.498 204.042 224.051 204.385C224.603 204.728 225.018 205.253 225.222 205.871" stroke="#1A3447" stroke-width="1.176" stroke-linecap="round" stroke-linejoin="round"/>
<path d="M224.198 208.74C224.057 210.239 223.093 211.374 222.034 211.274C220.976 211.174 220.229 209.887 220.364 208.393C220.5 206.9 221.47 205.759 222.528 205.859C223.587 205.959 224.333 207.258 224.198 208.74Z" fill="#1A3447" stroke="#1A3447" stroke-width="0.588" stroke-linecap="round" stroke-linejoin="round"/>
<path d="M213.232 205.33C212.468 206.617 211.104 207.229 210.192 206.682C209.281 206.135 209.157 204.653 209.928 203.36C210.698 202.066 212.056 201.466 212.968 202.007C213.879 202.548 214.032 204.036 213.232 205.33Z" fill="#1A3447" stroke="#1A3447" stroke-width="0.588" stroke-linecap="round" stroke-linejoin="round"/>
<path d="M216.572 212.491C216.043 213.738 214.85 214.426 213.903 214.026C212.956 213.626 212.621 212.262 213.15 211.039C213.679 209.816 214.873 209.105 215.82 209.504C216.766 209.904 217.102 211.239 216.572 212.491Z" fill="#1A3447" stroke="#1A3447" stroke-width="0.588" stroke-linecap="round" stroke-linejoin="round"/>
<path d="M203.478 49.4047C212.373 45.3829 216.323 34.912 212.302 26.0171C208.28 17.1223 197.809 13.1719 188.914 17.1937C180.019 21.2155 176.069 31.6864 180.091 40.5813C184.112 49.4761 194.583 53.4265 203.478 49.4047Z" fill="white" stroke="#1A3447" stroke-width="0.588" stroke-linecap="round" stroke-linejoin="round"/>
<path d="M190.406 37.4732L191.647 37.1557C192.825 36.8431 194.076 36.9551 195.18 37.4722C196.284 37.9894 197.171 38.8785 197.686 39.9839" stroke="#1A3447" stroke-width="1.176" stroke-linecap="round" stroke-linejoin="round"/>
<path d="M191.271 29.0236C190.777 30.4466 189.412 31.2698 188.225 30.8582C187.037 30.4466 186.461 28.959 186.972 27.536C187.484 26.113 188.825 25.2898 190.012 25.7014C191.2 26.113 191.765 27.6007 191.271 29.0236Z" fill="#1A3447" stroke="#1A3447" stroke-width="0.588" stroke-linecap="round" stroke-linejoin="round"/>
<path d="M207.182 34.5332C206.688 35.9621 205.324 36.7853 204.136 36.3737C202.949 35.9621 202.372 34.4685 202.878 33.0456C203.384 31.6226 204.736 30.7994 205.924 31.211C207.112 31.6226 207.676 33.1103 207.182 34.5332Z" fill="#1A3447" stroke="#1A3447" stroke-width="0.588" stroke-linecap="round" stroke-linejoin="round"/>
<path d="M192.529 23.6552C192.529 23.6552 190.4 21.068 187.66 23.6552" stroke="#1A3447" stroke-width="1.176" stroke-linecap="round" stroke-linejoin="round"/>
<path d="M205.13 28.0182C205.13 28.0182 208.405 27.3067 208.964 31.0287" stroke="#1A3447" stroke-width="1.176" stroke-linecap="round" stroke-linejoin="round"/>
<path d="M61.981 72.0546C65.1205 65.3525 62.2325 57.3744 55.5304 54.235C48.8284 51.0955 40.8503 53.9836 37.7109 60.6856C34.5714 67.3876 37.4594 75.3657 44.1615 78.5052C50.8635 81.6446 58.8416 78.7566 61.981 72.0546Z" fill="white" stroke="#1A3447" stroke-width="0.588" stroke-linecap="round" stroke-linejoin="round"/>
<path d="M43.0007 57.4887C41.2367 56.0658 38.6789 56.3127 37.5382 57.7357C37.1597 58.262 36.9459 58.8889 36.9239 59.5368C36.9019 60.1847 37.0727 60.8246 37.4147 61.3754C36.8066 61.1544 36.1465 61.1191 35.5184 61.2741C34.8902 61.429 34.3222 61.7672 33.8867 62.2456C32.746 63.651 33.0106 66.2205 34.7569 67.6435C36.5033 69.0664 38.5143 68.5902 40.3665 68.2785C41.7541 68.0492 43.3653 67.5318 44.7529 67.3024C44.6765 65.4385 44.8294 63.2982 44.7529 61.4224C44.6883 59.976 44.3707 58.5942 43.0007 57.4887Z" fill="#F0C376" stroke="#1A3447" stroke-width="0.588" stroke-linecap="round" stroke-linejoin="round"/>
<path d="M58.212 54.9956C58.0356 53.0023 56.2716 51.5264 54.684 51.6675C54.1243 51.7634 53.6043 52.0193 53.1869 52.4044C52.7696 52.7894 52.4726 53.2871 52.332 53.8373C52.0931 53.3146 51.7062 52.8734 51.2192 52.5682C50.7322 52.2631 50.1665 52.1073 49.5919 52.1203C47.9926 52.2614 46.5167 54.0254 46.6931 56.0187C46.8695 58.0121 48.41 58.994 49.7566 59.9819C50.7562 60.7227 52.1086 61.4342 53.0846 62.1692C54.2254 60.9932 55.6895 59.7467 56.8302 58.5471C57.3163 58.0999 57.6935 57.5473 57.9331 56.9317C58.1726 56.3161 58.268 55.6538 58.212 54.9956Z" fill="#F0C376" stroke="#1A3447" stroke-width="0.588" stroke-linecap="round" stroke-linejoin="round"/>
<path d="M44.5234 69.3134C47.9283 67.2116 51.7327 65.84 55.6954 65.2856C55.6954 65.2856 58.3885 71.1656 52.1674 73.3588C45.9464 75.5521 44.5234 69.3134 44.5234 69.3134Z" fill="#1A3447" stroke="#1A3447" stroke-width="0.588" stroke-linecap="round" stroke-linejoin="round"/>
<path d="M53.5373 71.4126C53.6843 71.9477 52.7553 72.6591 51.4734 73.0002C50.1916 73.3412 49.0274 73.1825 48.8862 72.6474C48.7451 72.1123 49.6742 71.4067 50.956 71.0657C52.2378 70.7246 53.3962 70.8775 53.5373 71.4126Z" fill="white" stroke="#1A3447" stroke-width="0.588" stroke-linecap="round" stroke-linejoin="round"/>
<path d="M154.785 105.564C169.473 105.564 181.38 93.6566 181.38 78.9684C181.38 64.2803 169.473 52.3732 154.785 52.3732C140.097 52.3732 128.189 64.2803 128.189 78.9684C128.189 93.6566 140.097 105.564 154.785 105.564Z" fill="white" stroke="#1A3447" stroke-width="0.588" stroke-linecap="round" stroke-linejoin="round"/>
<path d="M139.303 63.11L147.159 65.5679L136.122 68.1022" stroke="#1A3447" stroke-width="1.176" stroke-linecap="round" stroke-linejoin="round"/>
<path d="M170.62 63.11L162.364 65.5679L172.884 68.1022" stroke="#1A3447" stroke-width="1.176" stroke-linecap="round" stroke-linejoin="round"/>
<path d="M134.47 73.5C137.145 85.013 145.23 93.3803 154.785 93.3803C164.34 93.3803 172.425 85.013 175.101 73.5L171.573 72.912C160.294 71.0302 148.78 71.054 137.51 72.9826L134.47 73.5Z" fill="#1A3447" stroke="#1A3447" stroke-width="0.588" stroke-linecap="round" stroke-linejoin="round"/>
<path d="M168.633 86.536C165.105 84.184 160.295 82.7669 154.95 82.7669C149.505 82.7669 144.59 84.2722 141.067 86.6771C144.772 90.8342 149.552 93.3568 154.785 93.3568C160.019 93.3568 164.911 90.7813 168.633 86.536Z" fill="#F0C376" stroke="#1A3447" stroke-width="0.588" stroke-linecap="round" stroke-linejoin="round"/>
<path d="M236.614 102.979C242.208 89.0298 235.434 73.1871 221.484 67.5936C207.535 62.0001 191.692 68.7739 186.099 82.7234C180.505 96.6728 187.279 112.516 201.228 118.109C215.178 123.703 231.021 116.929 236.614 102.979Z" fill="white" stroke="#1A3447" stroke-width="0.588" stroke-linecap="round" stroke-linejoin="round"/>
<path d="M198.114 74.088L199.331 73.2883C200.481 72.5095 201.869 72.1625 203.25 72.3088C204.63 72.4552 205.915 73.0855 206.875 74.088" stroke="#1A3447" stroke-width="1.176" stroke-linecap="round" stroke-linejoin="round"/>
<path d="M221.559 78.2922L222.982 77.9629C224.332 77.6438 225.751 77.8094 226.991 78.4307C228.232 79.0519 229.214 80.0893 229.767 81.3616" stroke="#1A3447" stroke-width="1.176" stroke-linecap="round" stroke-linejoin="round"/>
<path d="M228.144 87.6885C228.144 90.8931 226.304 93.492 224.028 93.492C221.753 93.492 219.912 90.8931 219.912 87.6885C219.912 84.4839 221.747 81.8849 224.028 81.8849C226.31 81.8849 228.144 84.4839 228.144 87.6885Z" fill="#1A3447" stroke="#1A3447" stroke-width="0.588" stroke-linecap="round" stroke-linejoin="round"/>
<path d="M204.189 82.5375C202.813 85.4305 200.031 86.9887 197.985 86.0126C195.939 85.0365 195.398 81.8966 196.809 79.0037C198.22 76.1107 200.966 74.5584 203.013 75.5345C205.059 76.5105 205.57 79.6446 204.189 82.5375Z" fill="#1A3447" stroke="#1A3447" stroke-width="0.588" stroke-linecap="round" stroke-linejoin="round"/>
<path d="M212.673 97.1082C211.791 99.8659 209.387 101.559 207.299 100.889C205.212 100.219 204.242 97.4493 205.124 94.6915C206.006 91.9338 208.41 90.2463 210.492 90.9107C212.574 91.5751 213.555 94.3564 212.673 97.1082Z" fill="#1A3447" stroke="#1A3447" stroke-width="0.588" stroke-linecap="round" stroke-linejoin="round"/>
<path d="M99.0659 116.771C114.05 116.771 126.196 104.624 126.196 89.6406C126.196 74.6569 114.05 62.5103 99.0659 62.5103C84.0822 62.5103 71.9355 74.6569 71.9355 89.6406C71.9355 104.624 84.0822 116.771 99.0659 116.771Z" fill="white" stroke="#1A3447" stroke-width="0.588" stroke-linecap="round" stroke-linejoin="round"/>
<path d="M92.3158 104.588C92.3158 105.452 91.1692 106.152 89.758 106.152C88.3468 106.152 87.2002 105.452 87.2002 104.588C87.2002 103.723 88.3468 103.018 89.758 103.018C91.1692 103.018 92.3158 103.723 92.3158 104.588Z" fill="#1A3447" stroke="#1A3447" stroke-width="0.588" stroke-linecap="round" stroke-linejoin="round"/>
<path d="M116.277 104.588C116.277 105.452 115.13 106.152 113.719 106.152C112.308 106.152 111.161 105.452 111.161 104.588C111.161 103.723 112.308 103.018 113.719 103.018C115.13 103.018 116.277 103.723 116.277 104.588Z" fill="#1A3447" stroke="#1A3447" stroke-width="0.588" stroke-linecap="round" stroke-linejoin="round"/>
<path d="M83.5781 99.7836C83.8866 100.352 84.352 100.819 84.9188 101.13C85.8184 101.577 92.3158 102.694 95.9026 102.694" stroke="#1A3447" stroke-width="1.176" stroke-linecap="round" stroke-linejoin="round"/>
<path d="M120.075 99.7836C119.764 100.351 119.297 100.818 118.729 101.13C117.835 101.577 111.332 102.694 107.745 102.694" stroke="#1A3447" stroke-width="1.176" stroke-linecap="round" stroke-linejoin="round"/>
<path d="M95.8444 110.544C97.7891 109.644 99.8997 109.16 102.042 109.121C106.869 108.998 108.669 110.667 107.922 110.932C105.452 111.785 92.3752 112.073 95.8444 110.544Z" fill="#1A3447" stroke="#1A3447" stroke-width="0.588" stroke-linecap="round" stroke-linejoin="round"/>
<path d="M96.9975 159.699C102.638 145.948 96.0616 130.227 82.3097 124.587C68.5579 118.947 52.8376 125.523 47.1976 139.275C41.5575 153.027 48.1334 168.747 61.8853 174.387C75.6372 180.027 91.3574 173.451 96.9975 159.699Z" fill="white" stroke="#1A3447" stroke-width="0.588" stroke-linecap="round" stroke-linejoin="round"/>
<path d="M70.0303 160.159L71.071 158.513C72.0562 156.938 73.5639 155.76 75.33 155.185C77.0962 154.61 79.0084 154.675 80.7319 155.367" stroke="#1A3447" stroke-width="1.176" stroke-linecap="round" stroke-linejoin="round"/>
<path d="M60.7022 155.102C62.4478 154.321 63.1021 151.988 62.1635 149.893C61.2249 147.797 59.0489 146.733 57.3033 147.515C55.5577 148.297 54.9035 150.629 55.8421 152.724C56.7807 154.82 58.9566 155.884 60.7022 155.102Z" fill="#1A3447" stroke="#1A3447" stroke-width="0.588" stroke-linecap="round" stroke-linejoin="round"/>
<path d="M85.5721 139.409C86.5129 141.502 85.8602 143.837 84.1138 144.619C82.3675 145.401 80.186 144.336 79.2511 142.267C78.3162 140.197 78.963 137.839 80.7093 137.057C82.4557 136.275 84.6372 137.31 85.5721 139.409Z" fill="#1A3447" stroke="#1A3447" stroke-width="0.588" stroke-linecap="round" stroke-linejoin="round"/>
<path d="M57.9711 142.619C57.9711 142.619 52.9084 141.973 52.5615 147.688" stroke="#1A3447" stroke-width="1.176" stroke-linecap="round" stroke-linejoin="round"/>
<path d="M76.5049 134.317C76.5049 134.317 79.3861 130.107 83.8902 133.652" stroke="#1A3447" stroke-width="1.176" stroke-linecap="round" stroke-linejoin="round"/>
<path d="M236.396 178.74C250.086 172.977 256.512 157.207 250.749 143.517C244.986 129.827 229.216 123.401 215.525 129.164C201.835 134.927 195.409 150.697 201.173 164.388C206.936 178.078 222.706 184.504 236.396 178.74Z" fill="white" stroke="#1A3447" stroke-width="0.588" stroke-linecap="round" stroke-linejoin="round"/>
<path d="M223.722 131.542C222.246 127.267 217.572 124.997 214.144 126.179C211.745 127.008 210.257 129.419 210.075 132.247C208.182 130.13 205.524 129.154 203.131 129.983C199.697 131.159 197.421 135.834 198.897 140.115C200.42 144.519 204.295 145.706 207.782 147.171C210.387 148.241 213.662 149.076 216.29 150.146C218.13 146.894 220.671 143.401 222.511 140.15C223.981 137.533 224.875 134.881 223.722 131.542Z" fill="#F0C376" stroke="#1A3447" stroke-width="0.588" stroke-linecap="round" stroke-linejoin="round"/>
<path d="M252.322 143.437C254.133 139.856 252.693 135.475 249.817 134.029C247.812 133.012 245.354 133.552 243.437 135.205C243.62 132.688 242.597 130.395 240.591 129.378C237.716 127.925 233.336 129.378 231.519 132.941C229.655 136.634 231.295 139.838 232.536 142.937C233.459 145.26 234.964 147.876 235.893 150.199C239.104 149.364 242.896 148.823 246.113 147.988C248.665 147.306 250.911 146.236 252.322 143.437Z" fill="#F0C376" stroke="#1A3447" stroke-width="0.588" stroke-linecap="round" stroke-linejoin="round"/>
<path d="M213.778 153.309C221.824 153.34 229.776 155.044 237.128 158.313C237.128 158.313 235.464 171.249 222.534 168.309C209.604 165.369 213.778 153.309 213.778 153.309Z" fill="#1A3447" stroke="#1A3447" stroke-width="0.588" stroke-linecap="round" stroke-linejoin="round"/>
<path d="M226.922 166.451C226.598 167.509 224.264 167.739 221.712 166.957C219.16 166.175 217.361 164.681 217.684 163.623C218.007 162.564 220.342 162.329 222.894 163.111C225.446 163.893 227.245 165.387 226.922 166.451Z" fill="#F0C376" stroke="#1A3447" stroke-width="0.588" stroke-linecap="round" stroke-linejoin="round"/>
<path d="M17.0166 252.84H267.528" stroke="#1A3447" stroke-width="0.588" stroke-linecap="round" stroke-linejoin="round"/>
<path d="M23.0322 176.394L29.4414 237.793" stroke="#1A3447" stroke-width="0.588" stroke-miterlimit="10"/>
<path d="M28.4067 226.045L25.502 222.975" stroke="#1A3447" stroke-width="0.588" stroke-miterlimit="10"/>
<path d="M26.3898 223.893C26.3817 223.422 26.2725 222.958 26.0696 222.533C25.8667 222.108 25.5749 221.731 25.2138 221.429C24.467 220.765 20.545 219.112 20.1687 220.494C19.7806 221.999 23.8026 224.951 26.3898 223.893Z" fill="#F0C376" stroke="#1A3447" stroke-width="0.588" stroke-miterlimit="10"/>
<path d="M26.3901 223.893L22.6504 221.564" stroke="#1A3447" stroke-width="0.294" stroke-miterlimit="10"/>
<path d="M29.1352 233.024L26.2305 229.961" stroke="#1A3447" stroke-width="0.588" stroke-miterlimit="10"/>
<path d="M27.1126 230.878C27.1057 230.407 26.9971 229.943 26.7941 229.518C26.5911 229.092 26.2986 228.716 25.9366 228.414C25.1899 227.75 21.2679 226.098 20.8916 227.48C20.5094 228.979 24.5313 231.937 27.1126 230.878Z" fill="#F0C376" stroke="#1A3447" stroke-width="0.588" stroke-miterlimit="10"/>
<path d="M27.1127 230.878L23.3789 228.55" stroke="#1A3447" stroke-width="0.294" stroke-miterlimit="10"/>
<path d="M26.6313 209.005L23.7266 205.935" stroke="#1A3447" stroke-width="0.588" stroke-miterlimit="10"/>
<path d="M24.6085 206.853C24.6005 206.382 24.4913 205.918 24.2884 205.493C24.0855 205.068 23.7936 204.691 23.4325 204.389C22.6916 203.724 18.7638 202.072 18.3934 203.454C18.0053 204.959 22.0213 207.911 24.6085 206.853Z" fill="#F0C376" stroke="#1A3447" stroke-width="0.588" stroke-miterlimit="10"/>
<path d="M24.6078 206.853L20.874 204.524" stroke="#1A3447" stroke-width="0.294" stroke-miterlimit="10"/>
<path d="M27.3598 215.984L24.4551 212.921" stroke="#1A3447" stroke-width="0.588" stroke-miterlimit="10"/>
<path d="M25.337 213.838C25.329 213.367 25.2198 212.903 25.0169 212.478C24.814 212.053 24.5221 211.677 24.161 211.374C23.4202 210.71 19.4923 209.058 19.1219 210.439C18.7338 211.945 22.7498 214.896 25.337 213.838Z" fill="#F0C376" stroke="#1A3447" stroke-width="0.588" stroke-miterlimit="10"/>
<path d="M25.3373 213.838L21.6035 211.509" stroke="#1A3447" stroke-width="0.294" stroke-miterlimit="10"/>
<path d="M25.4487 197.662L22.5439 194.593" stroke="#1A3447" stroke-width="0.588" stroke-miterlimit="10"/>
<path d="M23.4259 195.51C23.4178 195.039 23.3087 194.575 23.1058 194.15C22.9029 193.725 22.611 193.349 22.2499 193.046C21.5031 192.382 17.5812 190.73 17.2107 192.111C16.8227 193.617 20.8387 196.568 23.4259 195.51Z" fill="#F0C376" stroke="#1A3447" stroke-width="0.588" stroke-miterlimit="10"/>
<path d="M23.4262 195.51L19.6865 193.182" stroke="#1A3447" stroke-width="0.294" stroke-miterlimit="10"/>
<path d="M24.2612 186.267L21.3506 183.197" stroke="#1A3447" stroke-width="1.176" stroke-miterlimit="10"/>
<path d="M22.2386 184.12C22.2303 183.649 22.121 183.184 21.9182 182.758C21.7153 182.332 21.4236 181.955 21.0626 181.651C20.3159 180.986 16.3939 179.334 16.0176 180.716C15.6354 182.221 19.6514 185.173 22.2386 184.12Z" fill="#F0C376" stroke="#1A3447" stroke-width="0.588" stroke-miterlimit="10"/>
<path d="M22.2387 184.12L18.499 181.792" stroke="#1A3447" stroke-width="0.294" stroke-miterlimit="10"/>
<path d="M27.9189 221.911L30.1298 218.307" stroke="#1A3447" stroke-width="1.176" stroke-miterlimit="10"/>
<path d="M29.4592 219.389C29.3627 218.931 29.3652 218.458 29.4667 218.002C29.5681 217.546 29.766 217.116 30.0472 216.743C30.6352 215.937 34.1632 213.509 34.7924 214.785C35.5274 216.172 32.2052 219.912 29.4592 219.389Z" fill="#F0C376" stroke="#1A3447" stroke-width="0.588" stroke-miterlimit="10"/>
<path d="M29.459 219.389L32.8223 216.178" stroke="#1A3447" stroke-width="0.294" stroke-miterlimit="10"/>
<path d="M26.002 203.536L28.2128 199.932" stroke="#1A3447" stroke-width="0.588" stroke-miterlimit="10"/>
<path d="M27.5365 201.014C27.446 200.554 27.4548 200.08 27.5623 199.623C27.6698 199.167 27.8735 198.739 28.1598 198.368C28.7478 197.562 32.2758 195.134 32.899 196.41C33.6105 197.797 30.2883 201.513 27.5365 201.014Z" fill="#F0C376" stroke="#1A3447" stroke-width="0.588" stroke-miterlimit="10"/>
<path d="M27.5361 201.014L30.8995 197.797" stroke="#1A3447" stroke-width="0.294" stroke-miterlimit="10"/>
<path d="M25.1602 195.457L27.371 191.859" stroke="#1A3447" stroke-width="0.588" stroke-miterlimit="10"/>
<path d="M26.6958 192.94C26.6052 192.479 26.614 192.005 26.7214 191.547C26.8289 191.09 27.0327 190.661 27.3191 190.289C27.9071 189.483 31.4351 187.06 32.0583 188.336C32.7639 189.724 29.4476 193.452 26.6958 192.94Z" fill="#F0C376" stroke="#1A3447" stroke-width="0.588" stroke-miterlimit="10"/>
<path d="M26.6953 192.94L30.0587 189.724" stroke="#1A3447" stroke-width="0.294" stroke-miterlimit="10"/>
<path d="M23.9258 183.621L26.1308 180.016" stroke="#1A3447" stroke-width="0.588" stroke-miterlimit="10"/>
<path d="M25.4604 181.104C25.368 180.644 25.3759 180.17 25.4834 179.713C25.591 179.256 25.7957 178.828 26.0837 178.458C26.6717 177.652 30.1997 175.224 30.823 176.5C31.5286 177.882 28.224 181.598 25.4604 181.104Z" fill="#F0C376" stroke="#1A3447" stroke-width="0.588" stroke-miterlimit="10"/>
<path d="M25.4609 181.098L28.8243 177.888" stroke="#1A3447" stroke-width="0.294" stroke-miterlimit="10"/>
<path d="M22.979 176.053C22.8884 175.592 22.8972 175.117 23.0046 174.66C23.1121 174.203 23.3159 173.774 23.6023 173.401C24.1903 172.596 27.7183 170.173 28.3415 171.449C29.0471 172.831 25.7308 176.553 22.979 176.053Z" fill="#F0C376" stroke="#1A3447" stroke-width="0.588" stroke-miterlimit="10"/>
<path d="M22.9795 176.053L26.3429 172.837" stroke="#1A3447" stroke-width="0.294" stroke-miterlimit="10"/>
<path d="M23.1737 176.188C22.7026 176.235 22.227 176.179 21.7795 176.025C21.3319 175.871 20.923 175.621 20.5806 175.295C19.8456 174.618 17.7994 170.885 19.1341 170.373C20.61 169.814 23.9616 173.507 23.1737 176.188Z" fill="#F0C376" stroke="#1A3447" stroke-width="0.588" stroke-miterlimit="10"/>
<path d="M23.1731 176.188L20.3271 172.507" stroke="#1A3447" stroke-width="0.294" stroke-miterlimit="10"/>
<path d="M39.9374 184.85L33.5635 246.254" stroke="#1A3447" stroke-width="0.588" stroke-miterlimit="10"/>
<path d="M34.9746 234.541L32.7637 230.943" stroke="#1A3447" stroke-width="0.588" stroke-miterlimit="10"/>
<path d="M33.4342 232.025C33.5263 231.564 33.5183 231.089 33.4108 230.631C33.3033 230.174 33.0987 229.745 32.8109 229.373C32.2229 228.567 28.6949 226.145 28.0716 227.421C27.366 228.808 30.6882 232.525 33.4342 232.025Z" fill="#F0C376" stroke="#1A3447" stroke-width="0.588" stroke-miterlimit="10"/>
<path d="M33.434 232.025L30.2588 228.973" stroke="#1A3447" stroke-width="0.294" stroke-miterlimit="10"/>
<path d="M36.7382 217.501L34.5273 213.903" stroke="#1A3447" stroke-width="0.588" stroke-miterlimit="10"/>
<path d="M35.2036 214.985C35.2942 214.524 35.2854 214.049 35.1779 213.591C35.0705 213.134 34.8667 212.705 34.5803 212.333C33.9923 211.527 30.4643 209.105 29.8352 210.381C29.1296 211.768 32.4577 215.484 35.2036 214.985Z" fill="#F0C376" stroke="#1A3447" stroke-width="0.588" stroke-miterlimit="10"/>
<path d="M35.2035 214.985L32.0283 211.933" stroke="#1A3447" stroke-width="0.294" stroke-miterlimit="10"/>
<path d="M36.0156 224.487L33.8047 220.882" stroke="#1A3447" stroke-width="0.588" stroke-miterlimit="10"/>
<path d="M34.4806 221.964C34.571 221.504 34.5622 221.03 34.4547 220.574C34.3472 220.117 34.1435 219.689 33.8573 219.318C33.2693 218.513 29.7413 216.09 29.1121 217.36C28.4065 218.736 31.7522 222.464 34.4806 221.964Z" fill="#F0C376" stroke="#1A3447" stroke-width="0.588" stroke-miterlimit="10"/>
<path d="M34.4809 221.964L31.3057 218.918" stroke="#1A3447" stroke-width="0.294" stroke-miterlimit="10"/>
<path d="M37.9208 206.159L35.71 202.554" stroke="#1A3447" stroke-width="0.588" stroke-miterlimit="10"/>
<path d="M36.3795 203.636C36.4719 203.176 36.4641 202.702 36.3565 202.245C36.2489 201.789 36.0442 201.361 35.7562 200.99C35.1682 200.185 31.6402 197.762 31.017 199.038C30.3114 200.426 33.6336 204.136 36.3795 203.636Z" fill="#F0C376" stroke="#1A3447" stroke-width="0.588" stroke-miterlimit="10"/>
<path d="M36.3803 203.636L33.2051 200.59" stroke="#1A3447" stroke-width="0.294" stroke-miterlimit="10"/>
<path d="M39.1025 194.763L36.8916 191.165" stroke="#1A3447" stroke-width="0.588" stroke-miterlimit="10"/>
<path d="M37.5612 192.276C37.6533 191.815 37.6453 191.34 37.5377 190.882C37.4302 190.425 37.2256 189.996 36.9379 189.624C36.3499 188.819 32.8219 186.396 32.1986 187.672C31.493 189.03 34.8152 192.746 37.5612 192.276Z" fill="#F0C376" stroke="#1A3447" stroke-width="0.588" stroke-miterlimit="10"/>
<path d="M37.5619 192.247L34.3867 189.195" stroke="#1A3447" stroke-width="0.294" stroke-miterlimit="10"/>
<path d="M35.3447 230.396L38.2494 227.327" stroke="#1A3447" stroke-width="0.588" stroke-miterlimit="10"/>
<path d="M37.3682 228.25C37.3766 227.779 37.4859 227.315 37.6888 226.89C37.8917 226.465 38.1834 226.089 38.5442 225.786C39.2909 225.116 43.2129 223.464 43.5892 224.845C43.9714 226.38 39.9848 229.32 37.3682 228.25Z" fill="#F0C376" stroke="#1A3447" stroke-width="0.588" stroke-miterlimit="10"/>
<path d="M37.3682 228.25L41.3195 225.792" stroke="#1A3447" stroke-width="0.294" stroke-miterlimit="10"/>
<path d="M37.25 212.021L40.1547 208.952" stroke="#1A3447" stroke-width="0.588" stroke-miterlimit="10"/>
<path d="M39.2725 209.869C39.2817 209.398 39.3913 208.935 39.5941 208.51C39.797 208.085 40.0882 207.708 40.4485 207.405C41.1952 206.741 45.1172 205.089 45.4935 206.47C45.8639 207.97 41.8597 210.927 39.2725 209.869Z" fill="#F0C376" stroke="#1A3447" stroke-width="0.588" stroke-miterlimit="10"/>
<path d="M39.2725 209.869L43.2297 207.417" stroke="#1A3447" stroke-width="0.294" stroke-miterlimit="10"/>
<path d="M38.0908 203.948L40.9955 200.873" stroke="#1A3447" stroke-width="1.176" stroke-miterlimit="10"/>
<path d="M40.1143 201.796C40.1212 201.325 40.2298 200.86 40.4328 200.435C40.6358 200.01 40.9283 199.634 41.2903 199.332C42.037 198.662 45.959 197.009 46.3294 198.391C46.7116 199.92 42.7015 202.86 40.1143 201.796Z" fill="#F0C376" stroke="#1A3447" stroke-width="0.588" stroke-miterlimit="10"/>
<path d="M40.1143 201.796L44.0656 199.344" stroke="#1A3447" stroke-width="0.294" stroke-miterlimit="10"/>
<path d="M39.3193 192.105L42.2241 189.036" stroke="#1A3447" stroke-width="0.588" stroke-miterlimit="10"/>
<path d="M41.3428 189.953C41.3501 189.482 41.4589 189.018 41.6618 188.593C41.8648 188.168 42.1571 187.792 42.5188 187.49C43.2655 186.825 47.1875 185.173 47.5579 186.555C47.9401 188.054 43.93 191.012 41.3428 189.953Z" fill="#F0C376" stroke="#1A3447" stroke-width="0.588" stroke-miterlimit="10"/>
<path d="M41.3428 189.953L45.2941 187.501" stroke="#1A3447" stroke-width="0.294" stroke-miterlimit="10"/>
<path d="M39.9844 184.503C39.9913 184.031 40.0999 183.567 40.3029 183.142C40.5059 182.717 40.7984 182.341 41.1604 182.039C41.9071 181.374 45.8291 179.722 46.1995 181.104C46.5582 182.603 42.5422 185.561 39.9844 184.503Z" fill="#F0C376" stroke="#1A3447" stroke-width="0.588" stroke-miterlimit="10"/>
<path d="M39.9551 184.503L43.9064 182.051" stroke="#1A3447" stroke-width="0.294" stroke-miterlimit="10"/>
<path d="M40.1136 184.679C39.6436 184.628 39.1901 184.476 38.7842 184.233C38.3783 183.991 38.0295 183.663 37.7616 183.274C37.1736 182.462 35.9447 178.387 37.3559 178.158C38.92 177.917 41.4366 182.215 40.1136 184.679Z" fill="#F0C376" stroke="#1A3447" stroke-width="0.588" stroke-miterlimit="10"/>
<path d="M40.1135 184.679L38.0908 180.492" stroke="#1A3447" stroke-width="0.294" stroke-miterlimit="10"/>
<path d="M32.6338 159.842V237.493" stroke="#1A3447" stroke-width="0.588" stroke-miterlimit="10"/>
<path d="M32.6926 225.821L30.123 222.464" stroke="#1A3447" stroke-width="0.588" stroke-miterlimit="10"/>
<path d="M30.9057 223.469C30.9458 223 30.8846 222.528 30.7263 222.085C30.5681 221.642 30.3164 221.237 29.9885 220.9C29.3181 220.159 25.5843 218.113 25.0728 219.447C24.5377 220.9 28.2245 224.257 30.9057 223.469Z" fill="#F0C376" stroke="#1A3447" stroke-width="0.588" stroke-miterlimit="10"/>
<path d="M30.9057 223.469L27.4307 220.77" stroke="#1A3447" stroke-width="0.294" stroke-miterlimit="10"/>
<path d="M32.6926 211.227L30.123 207.876" stroke="#1A3447" stroke-width="0.588" stroke-miterlimit="10"/>
<path d="M30.9057 208.881C30.9458 208.412 30.8846 207.94 30.7263 207.497C30.5681 207.053 30.3164 206.649 29.9885 206.312C29.3181 205.571 25.5843 203.519 25.0728 204.853C24.5377 206.312 28.2245 209.663 30.9057 208.881Z" fill="#F0C376" stroke="#1A3447" stroke-width="0.588" stroke-miterlimit="10"/>
<path d="M30.9057 208.881L27.4307 206.176" stroke="#1A3447" stroke-width="0.588" stroke-miterlimit="10"/>
<path d="M32.6926 194.093L30.123 190.741" stroke="#1A3447" stroke-width="0.588" stroke-miterlimit="10"/>
<path d="M30.9057 191.747C30.9458 191.278 30.8846 190.806 30.7263 190.362C30.5681 189.919 30.3164 189.515 29.9885 189.177C29.3181 188.436 25.5843 186.384 25.0728 187.725C24.5377 189.177 28.2245 192.529 30.9057 191.747Z" fill="#F0C376" stroke="#1A3447" stroke-width="0.588" stroke-miterlimit="10"/>
<path d="M30.9057 191.747L27.4307 189.042" stroke="#1A3447" stroke-width="0.294" stroke-miterlimit="10"/>
<path d="M32.6926 182.692L30.123 179.334" stroke="#1A3447" stroke-width="0.588" stroke-miterlimit="10"/>
<path d="M30.9057 180.34C30.9458 179.871 30.8846 179.398 30.7263 178.955C30.5681 178.512 30.3164 178.108 29.9885 177.77C29.3181 177.029 25.5843 174.983 25.0728 176.318C24.5377 177.77 28.2245 181.104 30.9057 180.34Z" fill="#F0C376" stroke="#1A3447" stroke-width="0.588" stroke-miterlimit="10"/>
<path d="M30.9057 180.34L27.4307 177.641" stroke="#1A3447" stroke-width="0.294" stroke-miterlimit="10"/>
<path d="M32.6926 171.231L30.123 167.88" stroke="#1A3447" stroke-width="0.588" stroke-miterlimit="10"/>
<path d="M30.9057 168.885C30.9458 168.416 30.8846 167.944 30.7263 167.501C30.5681 167.058 30.3164 166.653 29.9885 166.316C29.3181 165.575 25.5843 163.529 25.0728 164.863C24.5377 166.316 28.2245 169.667 30.9057 168.885Z" fill="#F0C376" stroke="#1A3447" stroke-width="0.588" stroke-miterlimit="10"/>
<path d="M30.9057 168.885L27.4307 166.186" stroke="#1A3447" stroke-width="0.588" stroke-miterlimit="10"/>
<path d="M32.6406 230.278L35.2102 226.921" stroke="#1A3447" stroke-width="0.588" stroke-miterlimit="10"/>
<path d="M34.4279 227.926C34.3849 227.459 34.4423 226.988 34.5965 226.545C34.7507 226.102 34.9979 225.697 35.3217 225.357C35.992 224.616 39.7258 222.57 40.2374 223.905C40.796 225.357 37.1092 228.732 34.4279 227.926Z" fill="#F0C376" stroke="#1A3447" stroke-width="0.588" stroke-miterlimit="10"/>
<path d="M34.4277 227.926L38.1086 225.081" stroke="#1A3447" stroke-width="0.294" stroke-miterlimit="10"/>
<path d="M32.6406 207.064L35.2102 203.713" stroke="#1A3447" stroke-width="0.588" stroke-miterlimit="10"/>
<path d="M34.4279 204.718C34.3849 204.251 34.4423 203.78 34.5965 203.336C34.7507 202.893 34.9979 202.488 35.3217 202.149C35.992 201.408 39.7258 199.361 40.2374 200.696C40.796 202.149 37.1092 205.5 34.4279 204.718Z" fill="#F0C376" stroke="#1A3447" stroke-width="0.588" stroke-miterlimit="10"/>
<path d="M34.4277 204.718L38.1086 201.872" stroke="#1A3447" stroke-width="0.294" stroke-miterlimit="10"/>
<path d="M32.6406 195.61L35.2102 192.258" stroke="#1A3447" stroke-width="0.588" stroke-miterlimit="10"/>
<path d="M34.4279 193.264C34.3849 192.797 34.4423 192.325 34.5965 191.882C34.7507 191.439 34.9979 191.034 35.3217 190.694C35.992 189.953 39.7258 187.907 40.2374 189.242C40.796 190.694 37.1092 194.04 34.4279 193.264Z" fill="#F0C376" stroke="#1A3447" stroke-width="0.588" stroke-miterlimit="10"/>
<path d="M34.4277 193.264L38.1086 190.418" stroke="#1A3447" stroke-width="0.294" stroke-miterlimit="10"/>
<path d="M32.6406 180.469L35.2102 177.117" stroke="#1A3447" stroke-width="0.588" stroke-miterlimit="10"/>
<path d="M34.4279 178.123C34.3849 177.656 34.4423 177.184 34.5965 176.741C34.7507 176.298 34.9979 175.893 35.3217 175.553C35.992 174.812 39.7258 172.766 40.2374 174.101C40.796 175.553 37.1092 178.905 34.4279 178.123Z" fill="#F0C376" stroke="#1A3447" stroke-width="0.588" stroke-miterlimit="10"/>
<path d="M34.4277 178.123L38.1086 175.277" stroke="#1A3447" stroke-width="0.294" stroke-miterlimit="10"/>
<path d="M32.6406 168.568L35.2102 165.216" stroke="#1A3447" stroke-width="0.588" stroke-miterlimit="10"/>
<path d="M34.4279 166.222C34.3849 165.754 34.4423 165.283 34.5965 164.84C34.7507 164.397 34.9979 163.992 35.3217 163.652C35.992 162.911 39.7258 160.859 40.2374 162.2C40.796 163.652 37.1092 166.992 34.4279 166.222Z" fill="#F0C376" stroke="#1A3447" stroke-width="0.588" stroke-miterlimit="10"/>
<path d="M34.4277 166.222L38.1086 163.37" stroke="#1A3447" stroke-width="0.294" stroke-miterlimit="10"/>
<path d="M32.4875 160.941C32.4444 160.474 32.5019 160.003 32.6561 159.56C32.8102 159.117 33.0575 158.712 33.3813 158.372C34.0516 157.631 37.7854 155.579 38.297 156.92C38.8556 158.372 35.1688 161.7 32.4875 160.941Z" fill="#F0C376" stroke="#1A3447" stroke-width="0.588" stroke-miterlimit="10"/>
<path d="M32.4873 160.941L36.1623 158.096" stroke="#1A3447" stroke-width="0.294" stroke-miterlimit="10"/>
<path d="M32.6636 161.112C32.1927 161.104 31.729 160.995 31.3039 160.792C30.8788 160.589 30.5024 160.297 30.1999 159.936C29.5355 159.189 27.8891 155.261 29.2709 154.891C30.7762 154.497 33.722 158.513 32.6636 161.112Z" fill="#F0C376" stroke="#1A3447" stroke-width="0.588" stroke-miterlimit="10"/>
<path d="M32.6639 161.1L30.2178 157.143" stroke="#1A3447" stroke-width="0.294" stroke-miterlimit="10"/>
<path d="M35.8274 257.632H27.6071L26.5781 236.864H36.8564L35.8274 257.632Z" fill="#1A3447" stroke="#1A3447" stroke-width="0.588" stroke-miterlimit="10"/>
<path d="M190.625 129.431C190.625 129.431 146.96 123.551 112.779 129.977L122.658 213.103L179.758 213.291L194.376 131.812C194.376 131.812 192.6 129.431 190.625 129.431Z" fill="white" stroke="#1A3447" stroke-width="0.588" stroke-linecap="round" stroke-linejoin="round"/>
<path d="M127.796 212.186C127.796 212.186 117.718 132.365 115.942 129.613C114.167 126.861 108.633 116.583 101.913 120.987C95.1918 125.391 116.536 212.556 116.536 212.556L127.796 212.186Z" fill="white" stroke="#1A3447" stroke-width="0.588" stroke-linecap="round" stroke-linejoin="round"/>
<path d="M192.177 178.423C192.177 178.423 202.267 135.499 203.002 128.696C203.737 121.892 197.31 118.788 194.182 120.434C191.054 122.081 190.33 121.54 187.208 139.891C184.086 158.243 180.052 206.135 180.417 207.235C180.781 208.334 182.804 209.069 183.903 209.069C185.003 209.069 192.177 178.423 192.177 178.423Z" fill="white" stroke="#1A3447" stroke-width="0.588" stroke-linecap="round" stroke-linejoin="round"/>
<path d="M115.383 210.904C115.383 210.904 113.731 184.844 110.797 179.152C107.863 173.46 104.376 171.814 97.2198 171.631C90.0639 171.449 85.6539 177.317 87.1239 181.357C88.5939 185.396 96.3026 187.407 97.5844 190.347C98.8662 193.287 106.404 247.383 106.404 247.383L115.383 210.904Z" fill="white" stroke="#1A3447" stroke-width="0.588" stroke-linecap="round" stroke-linejoin="round"/>
<path d="M112.996 210.904C112.996 210.904 110.644 182.921 108.416 179.328C106.187 175.736 103.547 174.689 98.1141 174.571C92.681 174.454 89.3471 178.17 90.4701 180.716C91.5932 183.262 97.4321 184.544 98.4081 186.402C99.3842 188.26 105.088 222.464 105.088 222.464L112.996 210.904Z" fill="white" stroke="#1A3447" stroke-width="0.588" stroke-linecap="round" stroke-linejoin="round"/>
<path d="M176.941 210.904C176.941 210.904 178.594 184.844 181.534 179.152C184.474 173.46 187.955 171.814 195.111 171.631C202.267 171.449 206.671 177.317 205.201 181.357C203.731 185.396 196.028 187.407 194.74 190.347C193.452 193.287 185.92 247.383 185.92 247.383L176.941 210.904Z" fill="white" stroke="#1A3447" stroke-width="0.588" stroke-linecap="round" stroke-linejoin="round"/>
<path d="M179.34 210.904C179.34 210.904 181.692 182.921 183.92 179.328C186.149 175.736 188.795 174.689 194.222 174.571C199.649 174.454 202.995 178.17 201.866 180.716C200.737 183.262 194.91 184.544 193.934 186.402C192.958 188.26 187.248 222.464 187.248 222.464L179.34 210.904Z" fill="white" stroke="#1A3447" stroke-width="0.588" stroke-linecap="round" stroke-linejoin="round"/>
<path d="M171.767 200.996C171.767 200.996 172.655 202.019 170.944 203.965C169.233 205.912 164.364 205.43 164.364 205.43L164.852 191.906C164.852 191.906 171.367 198.632 171.767 200.996Z" fill="#1A3447" stroke="#1A3447" stroke-width="0.588" stroke-linecap="round" stroke-linejoin="round"/>
<path d="M162.218 194.04C162.218 194.04 167.762 197.021 168.133 198.156C168.503 199.291 167.804 204.448 167.092 206.541C166.381 208.634 163.335 210.339 161.271 210.757C159.207 211.174 157.008 210.457 155.215 207.064C153.421 203.671 154.768 190.906 157.037 190.73C159.307 190.553 162.218 194.04 162.218 194.04Z" fill="#F0C376" stroke="#1A3447" stroke-width="0.588" stroke-linecap="round" stroke-linejoin="round"/>
<path d="M156.914 137.71C156.914 137.71 157.361 142.59 158.09 145.118C158.595 146.745 159.409 148.259 160.489 149.575C160.489 149.575 167.757 150.422 170.921 151.992C174.084 153.562 174.384 154.038 175.084 156.908C175.783 159.777 180.47 186.267 179.135 189.218C177.8 192.17 168.41 186.214 168.41 186.214L171.773 200.996C171.773 200.996 168.957 197.75 165.805 196.063C162.653 194.375 143.925 184.838 133.142 182.615C122.358 180.393 118.118 179.758 118.118 179.758C118.118 179.758 122.822 157.872 124.298 154.256C125.774 150.64 127.238 151.081 134.5 150.346C141.762 149.611 143.408 150.293 143.496 149.058C143.584 147.823 142.485 142.561 142.485 142.561C142.485 142.561 142.103 136.669 156.914 137.71Z" fill="white" stroke="#1A3447" stroke-width="0.588" stroke-linecap="round" stroke-linejoin="round"/>
<path d="M164.875 175.365L177.405 170.014C176.423 163.776 175.383 158.149 175.053 156.908C174.354 154.038 174.048 153.568 170.89 151.992C167.733 150.416 160.459 149.575 160.459 149.575C159.379 148.259 158.565 146.745 158.06 145.118C157.337 142.59 156.884 137.71 156.884 137.71C142.072 136.669 142.449 142.561 142.449 142.561C142.449 142.561 143.548 147.853 143.46 149.058C143.372 150.263 141.731 149.617 134.464 150.346C127.196 151.075 125.755 150.64 124.262 154.256C122.768 157.872 118.082 179.758 118.082 179.758C118.082 179.758 122.322 180.393 133.105 182.615C143.889 184.838 162.617 194.375 165.769 196.063C168.921 197.75 171.737 200.996 171.737 200.996L168.374 186.214C168.374 186.214 169.626 187.008 171.314 187.872L164.875 175.365Z" fill="white" stroke="#1A3447" stroke-width="0.588" stroke-linecap="round" stroke-linejoin="round"/>
<path d="M166.487 200.737C166.487 200.737 165.211 189.936 150.064 180.745C134.917 171.555 128.308 167.498 120.664 176.629C113.02 185.761 127.843 202.954 134.84 207.729C141.838 212.503 145.671 210.857 150.04 211.257C154.409 211.657 163.411 211.968 165.128 208.364" fill="#F0C376"/>
<path d="M166.487 200.737C166.487 200.737 165.211 189.936 150.064 180.745C134.917 171.555 128.308 167.498 120.664 176.629C113.02 185.761 127.843 202.954 134.84 207.729C141.838 212.503 145.671 210.857 150.04 211.257C154.409 211.657 163.411 211.968 165.128 208.364" stroke="#1A3447" stroke-width="0.588" stroke-linecap="round" stroke-linejoin="round"/>
<path d="M160.313 137.322C160.313 137.322 161.989 139.303 163.788 141.008C165.587 142.714 169.445 150.416 165.111 154.297C160.777 158.178 156.185 156.149 154.527 145.659C152.869 135.169 159.678 136.651 160.313 137.322Z" fill="#1A3447" stroke="#1A3447" stroke-width="0.588" stroke-linecap="round" stroke-linejoin="round"/>
<path d="M167.251 157.584C167.251 157.584 165.017 166.898 164.899 175.348L181.887 172.702C181.887 172.702 178.641 159.507 176.289 156.073C173.937 152.639 168.516 151.128 167.81 151.534" fill="white"/>
<path d="M167.251 157.584C167.251 157.584 165.017 166.898 164.899 175.348L181.887 172.702C181.887 172.702 178.641 159.507 176.289 156.073C173.937 152.639 168.516 151.128 167.81 151.534" stroke="#1A3447" stroke-width="0.588" stroke-linecap="round" stroke-linejoin="round"/>
<path d="M151.845 156.996C154.668 156.743 158.196 152.204 160.207 149.252C159.259 148.018 158.541 146.624 158.084 145.136C157.361 142.608 156.908 137.727 156.908 137.727C142.096 136.687 142.473 142.578 142.473 142.578C142.473 142.578 143.572 147.87 143.484 149.076C143.472 149.058 147.647 157.355 151.845 156.996Z" fill="white" stroke="#1A3447" stroke-width="0.588" stroke-linecap="round" stroke-linejoin="round"/>
<path d="M157.109 131.712C157.109 131.712 158.455 129.066 160.231 130.242C162.007 131.418 162.306 135.446 160.313 137.298C158.32 139.15 156.785 139.368 156.785 139.368L157.109 131.712Z" fill="white" stroke="#1A3447" stroke-width="0.588" stroke-linecap="round" stroke-linejoin="round"/>
<path d="M135.828 130.936C135.828 130.936 133.893 129.56 133.141 132.212C132.388 134.864 137.257 137.91 137.257 137.91L135.828 130.936Z" fill="white" stroke="#1A3447" stroke-width="0.588" stroke-linecap="round" stroke-linejoin="round"/>
<path d="M138.103 114.854C138.103 114.854 135.51 116.477 134.81 121.616C134.111 126.755 136.398 137.627 137.486 139.732C138.574 141.837 143.548 149.852 146.894 150.652C150.239 151.451 152.586 149.922 153.985 147.653C155.384 145.383 156.925 142.896 157.819 139.574C158.713 136.251 159.583 124.362 157.919 118.835C156.255 113.308 152.003 111.538 146.817 111.514C141.631 111.491 138.256 114.301 138.103 114.854Z" fill="white" stroke="#1A3447" stroke-width="0.588" stroke-linecap="round" stroke-linejoin="round"/>
<path d="M157.896 118.835C156.256 113.308 151.981 111.538 146.795 111.514C141.609 111.491 138.257 114.301 138.104 114.854C138.104 114.854 135.511 116.477 134.811 121.616C134.607 123.899 134.668 126.198 134.994 128.466C135.976 127.702 134.994 129.642 134.994 129.642C134.994 129.642 139.492 131.571 143.09 128.225C145.53 125.88 147.756 123.322 149.741 120.581C149.741 120.581 151.346 128.002 155.033 130.06C158.719 132.118 158.755 130.618 158.755 130.618V130.648C158.937 126.42 158.761 121.716 157.896 118.835Z" fill="#1A3447" stroke="#1A3447" stroke-width="0.588" stroke-linecap="round" stroke-linejoin="round"/>
<path d="M139.944 137.198C140.322 136.738 140.845 136.421 141.427 136.297C142.01 136.173 142.616 136.25 143.149 136.516" stroke="#1A3447" stroke-width="0.588" stroke-linecap="round" stroke-linejoin="round"/>
<path d="M149.576 136.181C149.576 136.181 151.04 134.593 153.275 136.551" stroke="#1A3447" stroke-width="0.588" stroke-linecap="round" stroke-linejoin="round"/>
<path d="M138.892 134.193C138.892 134.193 141.067 132.088 143.378 132.929" stroke="#1A3447" stroke-width="0.588" stroke-linecap="round" stroke-linejoin="round"/>
<path d="M148.794 132.853C148.794 132.853 151.04 131.436 153.357 133.741" stroke="#1A3447" stroke-width="0.588" stroke-linecap="round" stroke-linejoin="round"/>
<path d="M145.148 141.508C145.272 141.854 145.512 142.145 145.828 142.332C146.144 142.519 146.515 142.59 146.877 142.531C148.135 142.278 148.406 141.626 148.406 141.626" stroke="#1A3447" stroke-width="0.588" stroke-linecap="round" stroke-linejoin="round"/>
<path d="M144.148 144.483C144.148 144.483 148.423 146.247 150.616 143.584" stroke="#1A3447" stroke-width="0.588" stroke-linecap="round" stroke-linejoin="round"/>
<path d="M179.928 183.879C180.368 184.713 180.596 185.642 180.592 186.584C180.592 188.242 180.398 190.283 179.493 191.723C178.481 193.346 173.801 194.146 167.145 188.042C160.489 181.939 150.598 171.549 150.598 171.549L147.658 169.65C147.658 169.65 143.613 167.792 142.137 166.334C140.661 164.875 140.179 163.717 140.696 162.735C141.214 161.753 143.825 164.758 144.965 164.617C146.106 164.475 146.141 163.905 145.753 162.976C145.365 162.047 144.348 160.512 143.331 160.553C142.313 160.595 140.826 160.942 140.079 160.324C139.332 159.707 141.09 158.707 142.119 158.56C143.148 158.413 147.794 159.636 147.794 159.636C147.454 159.186 147.059 158.781 146.618 158.431C145.624 157.911 144.496 157.706 143.384 157.843C142.796 158.025 140.444 156.508 141.384 155.785C142.325 155.062 144.16 154.85 145.024 155.361C145.888 155.873 150.316 157.084 150.316 157.084C150.316 157.084 146.723 153.674 145.283 153.239C143.842 152.804 143.519 151.31 144.959 151.41C146.4 151.51 149.023 153.045 150.416 154.044C151.81 155.044 154.315 157.931 154.315 157.931C154.315 157.931 153.874 154.626 154.391 153.65C154.908 152.674 156.243 152.992 156.267 154.238C156.29 155.485 156.373 159.207 156.596 160.8C156.819 162.394 154.832 168.568 154.832 168.568C154.832 168.568 176.647 179.928 178.34 181.692C178.961 182.35 179.495 183.085 179.928 183.879Z" fill="white" stroke="#1A3447" stroke-width="0.588" stroke-linecap="round" stroke-linejoin="round"/>
<path d="M154.368 157.943L153.292 162.035" stroke="#1A3447" stroke-width="0.588" stroke-linecap="round" stroke-linejoin="round"/>
<path d="M150.369 157.096C150.829 157.696 151.094 158.422 151.128 159.178L150.369 157.096Z" fill="white"/>
<path d="M150.369 157.096C150.829 157.696 151.094 158.422 151.128 159.178" stroke="#1A3447" stroke-width="0.588" stroke-linecap="round" stroke-linejoin="round"/>
<path d="M152.292 163.211C152.292 163.211 150.593 164.893 150.704 166.592" stroke="#1A3447" stroke-width="0.588" stroke-linecap="round" stroke-linejoin="round"/>
<path d="M132.3 151.481L135.946 166.116C136.051 166.539 136.299 166.913 136.649 167.175C136.998 167.436 137.427 167.569 137.863 167.551L145.007 167.239C145.286 167.228 145.558 167.156 145.806 167.027C146.053 166.899 146.269 166.717 146.438 166.495C146.606 166.272 146.724 166.016 146.781 165.743C146.839 165.47 146.835 165.188 146.771 164.916L143.308 150.216C143.207 149.785 142.959 149.403 142.605 149.136C142.251 148.869 141.815 148.736 141.373 148.758L134.041 149.129C133.761 149.143 133.488 149.219 133.242 149.351C132.995 149.483 132.781 149.668 132.615 149.893C132.448 150.118 132.334 150.377 132.279 150.652C132.225 150.926 132.232 151.209 132.3 151.481Z" fill="#F0C376" stroke="#1A3447" stroke-width="0.588" stroke-linecap="round" stroke-linejoin="round"/>
<path d="M130.271 170.35C130.81 168.731 131.044 167.026 130.959 165.322C130.824 162.494 131.9 161.553 132.165 159.442C132.429 157.331 131.577 155.226 132.676 155.326C133.776 155.426 134.205 159.266 134.046 159.93C133.965 161.018 133.965 162.111 134.046 163.199C134.046 163.199 137.963 155.555 138.833 154.379C139.703 153.203 141.055 151.604 141.608 151.751C142.161 151.898 141.267 154.997 140.485 156.526C139.703 158.054 137.78 162.994 137.78 162.994C137.78 162.994 142.437 159.26 143.437 157.866C144.436 156.473 144.642 155.126 145.077 155.385C145.512 155.644 145.748 157.149 145.183 158.66C144.619 160.171 140.761 165.457 140.761 165.457C140.761 165.457 144.189 163.217 144.924 162.364C145.659 161.512 145.936 160.859 146.489 161.006C147.041 161.153 146.941 162.617 146.171 163.917C146.171 163.917 146.394 163.84 146.759 164.928C147.124 166.016 144.995 168.915 141.561 171.49C138.127 174.066 136.099 175.506 136.099 175.506L130.271 170.35Z" fill="white" stroke="#1A3447" stroke-width="0.588" stroke-linecap="round" stroke-linejoin="round"/>
<path d="M146.172 163.905L141.797 168.45" stroke="#1A3447" stroke-width="0.588" stroke-linecap="round" stroke-linejoin="round"/>
<path d="M104.458 225.951V257.815C104.458 258.305 104.555 258.791 104.743 259.245C104.931 259.698 105.207 260.11 105.554 260.457C105.901 260.804 106.314 261.079 106.767 261.266C107.221 261.453 107.707 261.549 108.198 261.548H183.115C183.606 261.549 184.092 261.453 184.546 261.266C184.999 261.079 185.412 260.804 185.759 260.457C186.106 260.11 186.382 259.698 186.57 259.245C186.758 258.791 186.855 258.305 186.855 257.815V224.481H104.076L104.458 225.951Z" fill="white" stroke="#1A3447" stroke-width="0.588" stroke-linecap="round" stroke-linejoin="round"/>
<path d="M111.72 208.517C111.72 208.517 147.782 208.887 163.564 207.97C179.346 207.053 189.436 206.682 190.359 211.268C191.282 215.855 191.459 225.38 189.989 227.785C188.519 230.19 120.993 228.338 119.34 228.703C117.688 229.067 104.64 230.173 102.459 226.868C100.278 223.564 99.8895 210.904 103.559 207.97C107.228 205.036 111.72 208.517 111.72 208.517Z" fill="white" stroke="#1A3447" stroke-width="0.588" stroke-linecap="round" stroke-linejoin="round"/>
<path d="M93.9863 200.626C93.9863 200.626 97.7084 208.664 98.02 209.022C98.3316 209.381 103.612 200.055 103.612 200.055C103.612 200.055 95.8444 198.497 93.9863 200.626Z" fill="#1A3447" stroke="#1A3447" stroke-width="0.588" stroke-linecap="round" stroke-linejoin="round"/>
<path d="M99.9245 202.731C99.9245 202.731 87.0591 227.092 85.8125 228.92C84.5659 230.749 64.815 238.728 64.9914 241.08C65.1678 243.432 71.5829 246.731 77.7099 246.26C83.8368 245.79 91.1045 238.51 91.1045 238.51L94.0445 230.278L110.832 212.856C110.832 212.856 103.147 203.407 99.9245 202.731Z" fill="white" stroke="#1A3447" stroke-width="0.588" stroke-linecap="round" stroke-linejoin="round"/>
<path d="M91.1045 238.534L91.9336 236.217C85.8419 240.921 77.3571 243.215 77.3571 243.215C76.8632 241.732 76.2476 240.292 75.5167 238.91C74.7461 237.723 73.7245 236.72 72.5237 235.97C68.4077 238.087 64.915 240.086 64.9915 241.092C65.162 243.444 71.5829 246.742 77.7099 246.272C83.8369 245.802 91.1045 238.534 91.1045 238.534Z" fill="#1A3447" stroke="#1A3447" stroke-width="0.588" stroke-linecap="round" stroke-linejoin="round"/>
<path d="M136.117 175.495C136.117 175.495 129.619 169.967 126.068 169.15C122.516 168.333 118.976 168.997 115.484 173.489C113.197 176.579 111.296 179.936 109.821 183.485L93.9453 200.643C96.509 201.738 98.925 203.15 101.137 204.848C105.1 207.829 110.603 214.644 110.603 214.644L125.492 196.851C125.492 196.851 138.48 194.94 138.498 191.447C138.516 187.954 136.652 182.409 136.652 182.409" fill="#F0C376"/>
<path d="M136.117 175.495C136.117 175.495 129.619 169.967 126.068 169.15C122.516 168.333 118.976 168.997 115.484 173.489C113.197 176.579 111.296 179.936 109.821 183.485L93.9453 200.643C96.509 201.738 98.925 203.15 101.137 204.848C105.1 207.829 110.603 214.644 110.603 214.644L125.492 196.851C125.492 196.851 138.48 194.94 138.498 191.447C138.516 187.954 136.652 182.409 136.652 182.409" stroke="#1A3447" stroke-width="0.588" stroke-linecap="round" stroke-linejoin="round"/>
<path d="M135.111 231.672C135.111 231.672 135.111 254.334 135.652 256.18C136.193 258.026 144.06 266.364 144.06 266.364C144.06 266.364 149.864 272.068 145.824 273.367C141.784 274.667 138.686 273.879 134.97 270.574C131.253 267.27 129.319 264.318 129.419 261.278C129.519 258.238 129.631 258.25 129.301 256.533C128.972 254.816 120.258 234.253 120.258 234.253C120.258 234.253 131.3 234.612 135.111 231.672Z" fill="white" stroke="#1A3447" stroke-width="0.588" stroke-linecap="round" stroke-linejoin="round"/>
<path d="M138.498 267.111C137.663 267.774 136.894 268.514 136.199 269.322C133.775 266.947 131.516 264.411 129.437 261.731C129.525 264.618 131.447 267.446 134.981 270.586C138.698 273.89 141.802 274.672 145.836 273.379C149.87 272.085 144.06 266.364 144.06 266.364C144.06 266.364 140.414 265.441 138.498 267.111Z" fill="#1A3447" stroke="#1A3447" stroke-width="0.588" stroke-linecap="round" stroke-linejoin="round"/>
<path d="M145.525 206.941C145.525 206.941 138.574 196.751 133.518 194.822C128.461 192.893 113.755 203.36 111.703 208.517C109.651 213.673 115.331 219.483 115.331 219.483L115.478 233.477C115.478 233.477 120.987 236.905 125.862 236.57C130.736 236.235 136.875 233.848 136.875 233.848C136.875 233.848 141.079 222.188 141.162 216.102C141.244 210.016 138.028 202.919 138.028 202.919" fill="#F0C376"/>
<path d="M145.525 206.941C145.525 206.941 138.574 196.751 133.518 194.822C128.461 192.893 113.755 203.36 111.703 208.517C109.651 213.673 115.331 219.483 115.331 219.483L115.478 233.477C115.478 233.477 120.987 236.905 125.862 236.57C130.736 236.235 136.875 233.848 136.875 233.848C136.875 233.848 141.079 222.188 141.162 216.102C141.244 210.016 138.028 202.919 138.028 202.919" stroke="#1A3447" stroke-width="0.588" stroke-linecap="round" stroke-linejoin="round"/>
<path d="M134.999 129.648L135.258 127.461L147.941 119.264" fill="#1A3447"/>
<path d="M134.999 129.648L135.258 127.461L147.941 119.264" stroke="#1A3447" stroke-width="0.588" stroke-linecap="round" stroke-linejoin="round"/>
</svg>
