<svg width="162" height="72" viewBox="0 0 162 72" fill="none" xmlns="http://www.w3.org/2000/svg">
<rect width="162" height="72" rx="20" fill="#1A3447"/>
<path d="M75.5654 39.0146C75.5654 39.1058 75.5495 39.1833 75.5176 39.2471C75.4902 39.3109 75.4515 39.3633 75.4014 39.4043C75.3558 39.4453 75.3034 39.4749 75.2441 39.4932C75.1849 39.5114 75.1257 39.5205 75.0664 39.5205H74.6904C74.5719 39.5205 74.4671 39.5091 74.376 39.4863C74.2894 39.459 74.2051 39.4134 74.123 39.3496C74.0456 39.2812 73.9658 39.1901 73.8838 39.0762C73.8063 38.9622 73.7197 38.8164 73.624 38.6387L70.835 33.6074C70.6891 33.3477 70.541 33.0765 70.3906 32.7939C70.2448 32.5068 70.1081 32.2288 69.9805 31.96H69.9668C69.9759 32.2881 69.9827 32.623 69.9873 32.9648C69.9919 33.3066 69.9941 33.6462 69.9941 33.9834V39.3223C69.9941 39.3542 69.985 39.3861 69.9668 39.418C69.9486 39.4453 69.9167 39.4681 69.8711 39.4863C69.8301 39.5 69.7731 39.5114 69.7002 39.5205C69.6318 39.5342 69.543 39.541 69.4336 39.541C69.3242 39.541 69.2331 39.5342 69.1602 39.5205C69.0918 39.5114 69.0371 39.5 68.9961 39.4863C68.9551 39.4681 68.9255 39.4453 68.9072 39.418C68.889 39.3861 68.8799 39.3542 68.8799 39.3223V31.1602C68.8799 30.9779 68.93 30.848 69.0303 30.7705C69.1305 30.693 69.2399 30.6543 69.3584 30.6543H69.9189C70.0511 30.6543 70.1605 30.6657 70.2471 30.6885C70.3382 30.7113 70.418 30.75 70.4863 30.8047C70.5592 30.8548 70.6276 30.9277 70.6914 31.0234C70.7598 31.1146 70.8327 31.2308 70.9102 31.3721L73.0566 35.2549C73.1888 35.4919 73.3164 35.7243 73.4395 35.9521C73.5625 36.1755 73.681 36.3965 73.7949 36.6152C73.9089 36.834 74.0205 37.0505 74.1299 37.2646C74.2438 37.4743 74.3555 37.6862 74.4648 37.9004H74.4717C74.4626 37.5404 74.4557 37.1667 74.4512 36.7793C74.4512 36.3874 74.4512 36.0114 74.4512 35.6514V30.8525C74.4512 30.8206 74.4603 30.791 74.4785 30.7637C74.4967 30.7363 74.5264 30.7135 74.5674 30.6953C74.613 30.6725 74.6699 30.6566 74.7383 30.6475C74.8112 30.6383 74.9046 30.6338 75.0186 30.6338C75.1188 30.6338 75.2054 30.6383 75.2783 30.6475C75.3512 30.6566 75.4082 30.6725 75.4492 30.6953C75.4902 30.7135 75.5199 30.7363 75.5381 30.7637C75.5563 30.791 75.5654 30.8206 75.5654 30.8525V39.0146ZM83.0371 35.9863C83.0371 36.1641 82.9915 36.2917 82.9004 36.3691C82.8138 36.4421 82.7135 36.4785 82.5996 36.4785H78.5664C78.5664 36.8203 78.6006 37.1279 78.6689 37.4014C78.7373 37.6748 78.8512 37.9095 79.0107 38.1055C79.1702 38.3014 79.3776 38.4518 79.6328 38.5566C79.888 38.6615 80.2002 38.7139 80.5693 38.7139C80.861 38.7139 81.1208 38.6911 81.3486 38.6455C81.5765 38.5954 81.7725 38.5407 81.9365 38.4814C82.1051 38.4222 82.2419 38.3698 82.3467 38.3242C82.4561 38.2741 82.5381 38.249 82.5928 38.249C82.6247 38.249 82.652 38.2581 82.6748 38.2764C82.7021 38.29 82.7227 38.3128 82.7363 38.3447C82.75 38.3766 82.7591 38.4222 82.7637 38.4814C82.7728 38.5361 82.7773 38.6045 82.7773 38.6865C82.7773 38.7458 82.7751 38.7982 82.7705 38.8438C82.766 38.8848 82.7591 38.9235 82.75 38.96C82.7454 38.9919 82.734 39.0215 82.7158 39.0488C82.7021 39.0762 82.6816 39.1035 82.6543 39.1309C82.6315 39.1536 82.5586 39.1947 82.4355 39.2539C82.3125 39.3086 82.153 39.3633 81.957 39.418C81.7611 39.4727 81.5332 39.5205 81.2734 39.5615C81.0182 39.6071 80.7448 39.6299 80.4531 39.6299C79.9473 39.6299 79.5029 39.5592 79.1201 39.418C78.7419 39.2767 78.4229 39.0671 78.1631 38.7891C77.9033 38.5111 77.7074 38.1624 77.5752 37.7432C77.443 37.3239 77.377 36.8363 77.377 36.2803C77.377 35.7516 77.4453 35.2777 77.582 34.8584C77.7188 34.4346 77.9147 34.0768 78.1699 33.7852C78.4297 33.4889 78.7419 33.2633 79.1064 33.1084C79.471 32.9489 79.8789 32.8691 80.3301 32.8691C80.8132 32.8691 81.2233 32.9466 81.5605 33.1016C81.9023 33.2565 82.1826 33.4661 82.4014 33.7305C82.6201 33.9902 82.7796 34.2979 82.8799 34.6533C82.9847 35.0042 83.0371 35.3802 83.0371 35.7812V35.9863ZM81.9023 35.6514C81.916 35.0589 81.7839 34.5941 81.5059 34.2568C81.2324 33.9196 80.8245 33.751 80.2822 33.751C80.0042 33.751 79.7604 33.8034 79.5508 33.9082C79.3411 34.013 79.1657 34.152 79.0244 34.3252C78.8831 34.4984 78.7738 34.7012 78.6963 34.9336C78.6188 35.1615 78.5755 35.4007 78.5664 35.6514H81.9023ZM89.2031 39.1992C89.2396 39.263 89.2578 39.3177 89.2578 39.3633C89.2578 39.4043 89.235 39.4385 89.1895 39.4658C89.1484 39.4932 89.0824 39.5114 88.9912 39.5205C88.9046 39.5342 88.7907 39.541 88.6494 39.541C88.5127 39.541 88.4033 39.5365 88.3213 39.5273C88.2438 39.5228 88.18 39.5137 88.1299 39.5C88.0843 39.4818 88.0479 39.4613 88.0205 39.4385C87.9977 39.4111 87.9772 39.3815 87.959 39.3496L86.4824 36.9092L85.0127 39.3496C84.9945 39.3815 84.9717 39.4111 84.9443 39.4385C84.9215 39.4613 84.8851 39.4818 84.835 39.5C84.7894 39.5137 84.7279 39.5228 84.6504 39.5273C84.5729 39.5365 84.4704 39.541 84.3428 39.541C84.2106 39.541 84.1012 39.5342 84.0146 39.5205C83.9326 39.5114 83.8711 39.4932 83.8301 39.4658C83.7936 39.4385 83.7754 39.4043 83.7754 39.3633C83.7799 39.3177 83.8027 39.263 83.8438 39.1992L85.7578 36.1982L83.9463 33.3066C83.9098 33.2428 83.8893 33.1904 83.8848 33.1494C83.8848 33.1038 83.9053 33.0674 83.9463 33.04C83.9919 33.0081 84.0579 32.9876 84.1445 32.9785C84.2357 32.9694 84.3542 32.9648 84.5 32.9648C84.6322 32.9648 84.737 32.9694 84.8145 32.9785C84.8965 32.9831 84.9603 32.9922 85.0059 33.0059C85.0514 33.0195 85.0856 33.0378 85.1084 33.0605C85.1312 33.0833 85.1517 33.1107 85.1699 33.1426L86.5713 35.4326L87.9932 33.1426C88.0114 33.1152 88.0319 33.0902 88.0547 33.0674C88.0775 33.0446 88.1071 33.0264 88.1436 33.0127C88.1846 32.9945 88.2393 32.9831 88.3076 32.9785C88.3805 32.9694 88.4785 32.9648 88.6016 32.9648C88.7337 32.9648 88.8408 32.9694 88.9229 32.9785C89.0094 32.9876 89.0732 33.0059 89.1143 33.0332C89.1553 33.056 89.1735 33.0902 89.1689 33.1357C89.1644 33.1813 89.1416 33.2383 89.1006 33.3066L87.3027 36.1641L89.2031 39.1992ZM93.8516 38.8779C93.8516 39.0101 93.8424 39.1149 93.8242 39.1924C93.806 39.2699 93.7786 39.3268 93.7422 39.3633C93.7057 39.3997 93.651 39.4339 93.5781 39.4658C93.5052 39.4977 93.4209 39.5228 93.3252 39.541C93.234 39.5638 93.1361 39.582 93.0312 39.5957C92.9264 39.6094 92.8216 39.6162 92.7168 39.6162C92.3978 39.6162 92.1243 39.5752 91.8965 39.4932C91.6686 39.4066 91.4818 39.279 91.3359 39.1104C91.1901 38.9372 91.083 38.7207 91.0146 38.4609C90.9508 38.1966 90.9189 37.8867 90.9189 37.5312V33.9355H90.0576C89.9893 33.9355 89.9346 33.8991 89.8936 33.8262C89.8525 33.7533 89.832 33.6348 89.832 33.4707C89.832 33.3841 89.8366 33.3112 89.8457 33.252C89.8594 33.1927 89.8753 33.1449 89.8936 33.1084C89.9118 33.0674 89.9346 33.04 89.9619 33.0264C89.9938 33.0081 90.028 32.999 90.0645 32.999H90.9189V31.5361C90.9189 31.5042 90.9258 31.4746 90.9395 31.4473C90.9577 31.4199 90.9873 31.3971 91.0283 31.3789C91.0739 31.3561 91.1331 31.3402 91.2061 31.3311C91.279 31.3219 91.3701 31.3174 91.4795 31.3174C91.5934 31.3174 91.6868 31.3219 91.7598 31.3311C91.8327 31.3402 91.8896 31.3561 91.9307 31.3789C91.9717 31.3971 92.0013 31.4199 92.0195 31.4473C92.0378 31.4746 92.0469 31.5042 92.0469 31.5361V32.999H93.626C93.6624 32.999 93.6943 33.0081 93.7217 33.0264C93.749 33.04 93.7718 33.0674 93.79 33.1084C93.8128 33.1449 93.8288 33.1927 93.8379 33.252C93.847 33.3112 93.8516 33.3841 93.8516 33.4707C93.8516 33.6348 93.8311 33.7533 93.79 33.8262C93.749 33.8991 93.6943 33.9355 93.626 33.9355H92.0469V37.3672C92.0469 37.791 92.1084 38.1123 92.2314 38.3311C92.359 38.5452 92.5846 38.6523 92.9082 38.6523C93.013 38.6523 93.1064 38.6432 93.1885 38.625C93.2705 38.6022 93.3434 38.5794 93.4072 38.5566C93.471 38.5339 93.5257 38.5133 93.5713 38.4951C93.6169 38.4723 93.6579 38.4609 93.6943 38.4609C93.7171 38.4609 93.7376 38.4678 93.7559 38.4814C93.7786 38.4906 93.7946 38.5111 93.8037 38.543C93.8174 38.5749 93.8288 38.6182 93.8379 38.6729C93.847 38.7275 93.8516 38.7959 93.8516 38.8779Z" fill="white"/>
</svg>
