<svg width="299" height="299" viewBox="0 0 299 299" fill="none" xmlns="http://www.w3.org/2000/svg">
<path d="M64.7456 203.583C64.7456 203.583 88.8809 236.21 136.105 241.108C183.329 246.005 196.754 215.005 213.337 199.248C229.919 183.49 264.316 172.224 267.426 133.725C270.535 95.2255 249.916 75.4676 220.871 75.8742C191.827 76.2809 182.988 69.5474 158.572 55.9967C134.155 42.446 93.1506 47.3735 73.5541 66.976C53.9576 86.5784 39.2588 96.1464 34.714 133.115C30.1692 170.083 64.7456 203.583 64.7456 203.583Z" fill="#1A3447"/>
<path opacity="0.3" d="M64.7456 203.583C64.7456 203.583 88.8809 236.21 136.105 241.108C183.329 246.005 196.754 215.005 213.337 199.248C229.919 183.49 264.316 172.224 267.426 133.725C270.535 95.2255 249.916 75.4676 220.871 75.8742C191.827 76.2809 182.988 69.5474 158.572 55.9967C134.155 42.446 93.1506 47.3735 73.5541 66.976C53.9576 86.5784 39.2588 96.1464 34.714 133.115C30.1692 170.083 64.7456 203.583 64.7456 203.583Z" fill="white"/>
<path d="M231.504 219.364H266.206" stroke="#1A3447" stroke-width="0.598" stroke-linecap="round" stroke-linejoin="round"/>
<path d="M48.5576 219.364H72.4896" stroke="#1A3447" stroke-width="0.598" stroke-linecap="round" stroke-linejoin="round"/>
<path d="M50.4649 191.228C50.4649 191.228 49.3107 185.876 43.0018 185.876C36.6929 185.876 29.3794 189.632 29.3794 189.632C29.3794 189.632 36.1906 191.635 39.6949 193.19C43.1992 194.745 48.6111 195.235 50.4649 191.228Z" fill="#F0C376"/>
<path d="M58.1614 193.866C58.1016 193.866 54.0173 191.282 55.0697 187.527C56.1222 183.771 61.1335 179.155 61.5341 176.308C61.5341 176.308 68.2198 192.592 58.1614 193.866Z" fill="#F0C376"/>
<path d="M68.1721 199.511C68.1721 199.511 66.4319 195.725 70.2411 192.831C74.0504 189.937 86.0164 189.632 86.0164 189.632C86.0164 189.632 81.059 193.136 79.4025 195.791C77.746 198.446 71.6225 202.836 68.1721 199.511Z" fill="#F0C376"/>
<path d="M76.2569 180.817C76.2569 180.817 74.8516 176.769 80.4429 174.837C86.0342 172.906 92.361 173.582 95.4646 171.877C95.4347 171.853 84.0189 188.878 76.2569 180.817Z" fill="#F0C376"/>
<path d="M49.8792 183.658C49.8792 183.658 51.8885 172.942 40.1318 168.588C40.1318 168.588 42.1292 170.699 41.9258 175.076C41.7225 179.454 41.7285 184.184 49.8792 183.658Z" fill="#F0C376"/>
<path opacity="0.2" d="M50.4649 191.228C50.4649 191.228 49.3107 185.876 43.0018 185.876C36.6929 185.876 29.3794 189.632 29.3794 189.632C29.3794 189.632 36.1906 191.635 39.6949 193.19C43.1992 194.745 48.6111 195.235 50.4649 191.228Z" fill="#362822"/>
<path opacity="0.2" d="M58.1614 193.866C58.1016 193.866 54.0173 191.282 55.0697 187.527C56.1222 183.771 61.1335 179.155 61.5341 176.308C61.5341 176.308 68.2198 192.592 58.1614 193.866Z" fill="#362822"/>
<path opacity="0.2" d="M68.1721 199.511C68.1721 199.511 66.4319 195.725 70.2411 192.831C74.0504 189.937 86.0164 189.632 86.0164 189.632C86.0164 189.632 81.059 193.136 79.4025 195.791C77.746 198.446 71.6225 202.836 68.1721 199.511Z" fill="#362822"/>
<path opacity="0.2" d="M76.2569 180.817C76.2569 180.817 74.8516 176.769 80.4429 174.837C86.0342 172.906 92.361 173.582 95.4646 171.877C95.4347 171.853 84.0189 188.878 76.2569 180.817Z" fill="#362822"/>
<path opacity="0.2" d="M49.8792 183.658C49.8792 183.658 51.8885 172.942 40.1318 168.588C40.1318 168.588 42.1292 170.699 41.9258 175.076C41.7225 179.454 41.7285 184.184 49.8792 183.658Z" fill="#362822"/>
<path d="M53.0186 206.77H69.918L67.1314 219.699H56.2298L53.0186 206.77Z" fill="#1A3447"/>
<path d="M63.2983 207.315L68.6983 188.789L76.0058 174.813" stroke="#1A3447" stroke-width="0.598" stroke-linecap="round" stroke-linejoin="round"/>
<path d="M70.9227 197.998L65.0742 201.227" stroke="#1A3447" stroke-width="0.598" stroke-linecap="round" stroke-linejoin="round"/>
<path d="M48.5874 180.423L59.4889 207.315" stroke="#1A3447" stroke-width="0.598" stroke-linecap="round" stroke-linejoin="round"/>
<path d="M59.4892 189.632L56.3677 199.612" stroke="#1A3447" stroke-width="0.598" stroke-linecap="round" stroke-linejoin="round"/>
<path d="M47.314 189.632L53.6169 192.831" stroke="#1A3447" stroke-width="0.598" stroke-linecap="round" stroke-linejoin="round"/>
<path d="M70.9229 184.531L81.0231 178.999" stroke="#1A3447" stroke-width="0.598" stroke-linecap="round" stroke-linejoin="round"/>
<path d="M230.768 51.9841C228.812 46.6021 223.939 44.3477 219.89 46.955C218.641 47.7844 217.614 48.9075 216.9 50.226C213.749 43.2474 206.938 40.9809 201.681 45.1669C199.945 46.6085 198.593 48.4576 197.746 50.5489H197.37C195.937 50.5551 194.524 50.8928 193.243 51.5356C191.049 44.6168 186.127 39.9105 180.488 39.3424C177.558 31.3591 170.322 28.0462 164.306 31.9392C162.487 33.1611 160.988 34.8017 159.935 36.7232C155.264 26.3479 145.152 22.9692 137.348 29.1884C134.765 31.3242 132.752 34.0671 131.488 37.1717H130.962C123.714 37.1717 117.208 43.1517 114.642 52.1217C114.421 52.0798 114.2 52.038 113.979 52.014C112.011 46.632 107.137 44.3836 103.083 46.9968C101.833 47.8225 100.806 48.944 100.093 50.2619C96.9355 43.2773 90.1243 41.0168 84.8738 45.2088C83.1407 46.653 81.7894 48.5013 80.939 50.5908H80.5623C74.068 50.5908 68.8176 57.6293 68.8355 66.2644C68.8534 74.8995 74.1338 81.8722 80.6281 81.8483C83.8752 81.8483 86.9788 80.0543 89.1914 76.8789C91.8764 80.7659 96.2777 81.5134 99.6086 78.6729C102.646 83.0801 107.795 83.3791 111.114 79.3367C111.252 79.1632 111.395 78.9779 111.527 78.7925C112.79 79.0643 114.1 79.0309 115.348 78.695C116.596 78.3591 117.746 77.7303 118.703 76.8609C125.532 85.8967 136.577 85.8608 143.37 76.7832C143.49 76.6277 143.609 76.4663 143.723 76.2988C147.706 82.0695 154.242 83.1818 159.193 78.93C163.708 85.508 171.369 85.9087 176.29 79.8988C176.499 79.6476 176.697 79.3845 176.888 79.1094C180.817 79.9945 184.847 78.7746 188.101 75.7188C192.047 82.5599 199.421 83.8516 204.57 78.6011C205.084 78.0728 205.556 77.505 205.981 76.9028C208.666 80.7898 213.067 81.5373 216.398 78.6968C219.43 83.1041 224.573 83.4031 227.886 79.3725C228.029 79.1931 228.173 79.0078 228.31 78.8164C233.83 80.0961 239.074 75.1806 240.049 67.8431C241.024 60.5056 237.316 53.4911 231.796 52.2353C231.458 52.1439 231.115 52.074 230.768 52.026V51.9841Z" fill="#1A3447"/>
<mask id="mask0_58_5994" style="mask-type:luminance" maskUnits="userSpaceOnUse" x="68" y="26" width="173" height="59">
<path d="M230.768 51.9841C228.812 46.6021 223.939 44.3477 219.89 46.955C218.641 47.7844 217.614 48.9075 216.9 50.226C213.749 43.2474 206.938 40.9809 201.681 45.1669C199.945 46.6085 198.593 48.4576 197.746 50.5489H197.37C195.937 50.5551 194.524 50.8928 193.243 51.5356C191.049 44.6168 186.127 39.9105 180.488 39.3424C177.558 31.3591 170.322 28.0462 164.306 31.9392C162.487 33.1611 160.988 34.8017 159.935 36.7232C155.264 26.3479 145.152 22.9692 137.348 29.1884C134.765 31.3242 132.752 34.0671 131.488 37.1717H130.962C123.714 37.1717 117.208 43.1517 114.642 52.1217C114.421 52.0798 114.2 52.038 113.979 52.014C112.011 46.632 107.137 44.3836 103.083 46.9968C101.833 47.8225 100.806 48.944 100.093 50.2619C96.9355 43.2773 90.1243 41.0168 84.8738 45.2088C83.1407 46.653 81.7894 48.5013 80.939 50.5908H80.5623C74.068 50.5908 68.8176 57.6293 68.8355 66.2644C68.8534 74.8995 74.1338 81.8722 80.6281 81.8483C83.8752 81.8483 86.9788 80.0543 89.1914 76.8789C91.8764 80.7659 96.2777 81.5134 99.6086 78.6729C102.646 83.0801 107.795 83.3791 111.114 79.3367C111.252 79.1632 111.395 78.9779 111.527 78.7925C112.79 79.0643 114.1 79.0309 115.348 78.695C116.596 78.3591 117.746 77.7303 118.703 76.8609C125.532 85.8967 136.577 85.8608 143.37 76.7832C143.49 76.6277 143.609 76.4663 143.723 76.2988C147.706 82.0695 154.242 83.1818 159.193 78.93C163.708 85.508 171.369 85.9087 176.29 79.8988C176.499 79.6476 176.697 79.3845 176.888 79.1094C180.817 79.9945 184.847 78.7746 188.101 75.7188C192.047 82.5599 199.421 83.8516 204.57 78.6011C205.084 78.0728 205.556 77.505 205.981 76.9028C208.666 80.7898 213.067 81.5373 216.398 78.6968C219.43 83.1041 224.573 83.4031 227.886 79.3725C228.029 79.1931 228.173 79.0078 228.31 78.8164C233.83 80.0961 239.074 75.1806 240.049 67.8431C241.024 60.5056 237.316 53.4911 231.796 52.2353C231.458 52.1439 231.115 52.074 230.768 52.026V51.9841Z" fill="white"/>
</mask>
<g mask="url(#mask0_58_5994)">
<path opacity="0.2" d="M230.768 51.9841C228.812 46.6021 223.939 44.3477 219.89 46.955C218.641 47.7844 217.614 48.9075 216.9 50.226C213.749 43.2474 206.938 40.9809 201.681 45.1669C199.945 46.6085 198.593 48.4576 197.746 50.5489H197.37C195.937 50.5551 194.524 50.8928 193.243 51.5356C191.049 44.6168 186.127 39.9105 180.488 39.3424C177.558 31.3591 170.322 28.0462 164.306 31.9392C162.487 33.1611 160.988 34.8017 159.935 36.7232C155.264 26.3479 145.152 22.9692 137.348 29.1884C134.765 31.3242 132.752 34.0671 131.488 37.1717H130.962C123.714 37.1717 117.208 43.1517 114.642 52.1217C114.421 52.0798 114.2 52.038 113.979 52.014C112.011 46.632 107.137 44.3836 103.083 46.9968C101.833 47.8225 100.806 48.944 100.093 50.2619C96.9355 43.2773 90.1243 41.0168 84.8738 45.2088C83.1407 46.653 81.7894 48.5013 80.939 50.5908H80.5623C74.068 50.5908 68.8176 57.6293 68.8355 66.2644C68.8534 74.8995 74.1338 81.8722 80.6281 81.8483C83.8752 81.8483 86.9788 80.0543 89.1914 76.8789C91.8764 80.7659 96.2777 81.5134 99.6086 78.6729C102.646 83.0801 107.795 83.3791 111.114 79.3367C111.252 79.1632 111.395 78.9779 111.527 78.7925C112.79 79.0643 114.1 79.0309 115.348 78.695C116.596 78.3591 117.746 77.7303 118.703 76.8609C125.532 85.8967 136.577 85.8608 143.37 76.7832C143.49 76.6277 143.609 76.4663 143.723 76.2988C147.706 82.0695 154.242 83.1818 159.193 78.93C163.708 85.508 171.369 85.9087 176.29 79.8988C176.499 79.6476 176.697 79.3845 176.888 79.1094C180.817 79.9945 184.847 78.7746 188.101 75.7188C192.047 82.5599 199.421 83.8516 204.57 78.6011C205.084 78.0728 205.556 77.505 205.981 76.9028C208.666 80.7898 213.067 81.5373 216.398 78.6968C219.43 83.1041 224.573 83.4031 227.886 79.3725C228.029 79.1931 228.173 79.0078 228.31 78.8164C233.83 80.0961 239.074 75.1806 240.049 67.8431C241.024 60.5056 237.316 53.4911 231.796 52.2353C231.458 52.1439 231.115 52.074 230.768 52.026V51.9841Z" fill="white"/>
</g>
<path d="M110.188 65.4212L106.654 77.9493H111.76L105.481 98.8255L119.223 76.9088L113.728 73.7752L120.007 62.8139L110.188 65.4212Z" fill="#F0C376"/>
<path d="M230.768 57.9462C228.807 52.5642 223.933 50.3157 219.885 52.923C218.638 53.7574 217.612 54.8819 216.895 56.2C213.743 49.2154 206.932 46.949 201.676 51.135C199.938 52.5747 198.586 54.4243 197.741 56.517H197.364C195.931 56.5231 194.519 56.8608 193.238 57.5037C191.043 50.5848 186.122 45.8786 180.483 45.3105C177.552 37.3272 170.317 34.0142 164.301 37.9072C162.482 39.1292 160.983 40.7698 159.929 42.6912C155.259 32.3219 145.147 28.9372 137.349 35.1504C134.762 37.2842 132.746 40.0276 131.483 43.1337H130.962C123.738 43.1337 117.274 49.1137 114.697 58.0837C114.474 58.0575 114.252 58.0196 114.033 57.9701C112.06 52.5881 107.186 50.3456 103.131 52.9589C101.885 53.7894 100.859 54.9098 100.141 56.224C96.9899 49.2154 90.1727 46.955 84.9163 51.1469C83.1868 52.5787 81.8373 54.415 80.9874 56.4931H80.6107C76.6998 56.4931 73.046 59.0704 70.8633 63.382C74.4931 70.558 81.7947 72.4178 87.1767 67.5979C87.9212 66.924 88.589 66.1699 89.1681 65.3494C91.8471 69.2364 96.2484 69.9839 99.5792 67.1434C102.617 71.5507 107.772 71.8437 111.085 67.8072C111.228 67.6278 111.366 67.4484 111.497 67.2631C112.761 67.5339 114.071 67.5 115.319 67.1641C116.567 66.8282 117.717 66.2 118.673 65.3315C125.509 74.3613 136.56 74.3015 143.353 65.2298C143.466 65.0803 143.58 64.9249 143.688 64.7694C147.676 70.5341 154.207 71.6404 159.158 67.3946C163.673 73.9367 171.321 74.3792 176.249 68.3813C176.458 68.1242 176.661 67.8551 176.847 67.58C177.674 67.7605 178.518 67.8527 179.364 67.8551C182.629 67.7939 185.744 66.4742 188.059 64.1714C192.018 71.0125 199.391 72.2982 204.54 67.0418C205.054 66.5203 205.522 65.9561 205.94 65.3554C208.625 69.2424 213.026 69.9899 216.357 67.1494C219.389 71.5567 224.531 71.8557 227.844 67.8252C227.994 67.6458 228.131 67.4604 228.269 67.269C231.797 68.0703 235.385 66.3361 237.699 62.7063C235.953 59.9256 233.459 58.2273 230.768 57.9462Z" fill="#1A3447"/>
<path d="M280.008 144.716C277.652 143.424 276.575 144.501 275.72 143.424C274.865 142.348 278.076 139.567 271.648 136.781C271.648 136.781 271.217 130.801 262.426 130.567C253.636 130.334 255.992 136.547 253.636 138.066C251.28 139.585 250.646 137.211 248.254 138.712C245.862 140.213 246.968 143.215 245.043 143.646C243.117 144.076 240.534 141.714 238.178 143.215C235.821 144.716 235.821 146.002 234.751 146.002C233.681 146.002 231.528 145.147 230.242 146.002C228.956 146.857 227.461 147.927 227.461 147.927H281.706C281.706 147.927 282.364 145.99 280.008 144.716Z" fill="white"/>
<path opacity="0.2" d="M280.008 144.716C277.652 143.424 276.575 144.501 275.72 143.424C274.865 142.348 278.076 139.567 271.648 136.781C271.648 136.781 271.217 130.801 262.426 130.567C253.636 130.334 255.992 136.547 253.636 138.066C251.28 139.585 250.646 137.211 248.254 138.712C245.862 140.213 246.968 143.215 245.043 143.646C243.117 144.076 240.534 141.714 238.178 143.215C235.821 144.716 235.821 146.002 234.751 146.002C233.681 146.002 231.528 145.147 230.242 146.002C228.956 146.857 227.461 147.927 227.461 147.927H281.706C281.706 147.927 282.364 145.99 280.008 144.716Z" fill="#362822"/>
<path d="M72.9561 136.942C70.4206 135.555 69.2664 136.709 68.3455 135.555C67.4246 134.401 70.881 131.411 63.9681 128.415C63.9681 128.415 63.5077 121.962 54.0593 121.735C44.6109 121.508 47.1584 128.175 44.6229 129.766C42.0873 131.357 41.3996 128.869 38.8701 130.484C36.3405 132.098 37.4947 135.321 35.4196 135.782C33.3446 136.242 30.5818 133.707 28.0463 135.321C25.5108 136.936 25.5108 138.311 24.3566 138.311C23.2025 138.311 20.9002 137.391 19.5188 138.311C18.1374 139.232 16.5288 140.381 16.5288 140.381H74.8099C74.8099 140.381 75.4976 138.276 72.9561 136.942Z" fill="white"/>
<path opacity="0.2" d="M72.9561 136.942C70.4206 135.555 69.2664 136.709 68.3455 135.555C67.4246 134.401 70.881 131.411 63.9681 128.415C63.9681 128.415 63.5077 121.962 54.0593 121.735C44.6109 121.508 47.1584 128.175 44.6229 129.766C42.0873 131.357 41.3996 128.869 38.8701 130.484C36.3405 132.098 37.4947 135.321 35.4196 135.782C33.3446 136.242 30.5818 133.707 28.0463 135.321C25.5108 136.936 25.5108 138.311 24.3566 138.311C23.2025 138.311 20.9002 137.391 19.5188 138.311C18.1374 139.232 16.5288 140.381 16.5288 140.381H74.8099C74.8099 140.381 75.4976 138.276 72.9561 136.942Z" fill="#362822"/>
<path d="M125.323 108.166H179.568C179.568 108.166 178.067 107.09 176.787 106.235C175.507 105.38 173.355 106.235 172.278 106.235C171.202 106.235 171.208 104.949 168.852 103.448C166.496 101.947 163.918 104.303 161.987 103.879C160.055 103.454 161.131 100.446 158.775 98.9451C156.419 97.4441 155.785 99.8002 153.393 98.2992C151.001 96.7983 153.393 90.591 144.603 90.8003C135.812 91.0096 135.382 97.0135 135.382 97.0135C128.947 99.8002 132.164 102.587 131.309 103.657C130.454 104.728 129.378 103.657 127.022 104.949C124.665 106.241 125.323 108.166 125.323 108.166Z" fill="white"/>
<path opacity="0.2" d="M125.323 108.166H179.568C179.568 108.166 178.067 107.09 176.787 106.235C175.507 105.38 173.355 106.235 172.278 106.235C171.202 106.235 171.208 104.949 168.852 103.448C166.496 101.947 163.918 104.303 161.987 103.879C160.055 103.454 161.131 100.446 158.775 98.9451C156.419 97.4441 155.785 99.8002 153.393 98.2992C151.001 96.7983 153.393 90.591 144.603 90.8003C135.812 91.0096 135.382 97.0135 135.382 97.0135C128.947 99.8002 132.164 102.587 131.309 103.657C130.454 104.728 129.378 103.657 127.022 104.949C124.665 106.241 125.323 108.166 125.323 108.166Z" fill="#362822"/>
<path d="M87.4034 72.3341L84.7842 90.4774" stroke="#1A3447" stroke-width="0.598" stroke-linecap="round" stroke-linejoin="round"/>
<path d="M115.737 84.2462L113.118 102.39" stroke="#1A3447" stroke-width="0.598" stroke-linecap="round" stroke-linejoin="round"/>
<path d="M81.0648 116.293L79.3784 127.984" stroke="#1A3447" stroke-width="0.598" stroke-linecap="round" stroke-linejoin="round"/>
<path d="M96.0086 101.152L94.3223 112.855" stroke="#1A3447" stroke-width="0.598" stroke-linecap="round" stroke-linejoin="round"/>
<path d="M76.9327 144.925L74.3135 163.075" stroke="#1A3447" stroke-width="0.598" stroke-linecap="round" stroke-linejoin="round"/>
<path d="M201.185 91.2189L198.566 109.368" stroke="#1A3447" stroke-width="0.598" stroke-linecap="round" stroke-linejoin="round"/>
<path d="M87.942 232.03L86.4829 242.106" stroke="#1A3447" stroke-width="0.598" stroke-linecap="round" stroke-linejoin="round"/>
<path d="M193.836 75.7247L192.389 85.807" stroke="#1A3447" stroke-width="0.598" stroke-linecap="round" stroke-linejoin="round"/>
<path d="M93.0187 141.893L91.5596 151.976" stroke="#1A3447" stroke-width="0.598" stroke-linecap="round" stroke-linejoin="round"/>
<path d="M153.058 196.341L151.605 206.418" stroke="#1A3447" stroke-width="0.598" stroke-linecap="round" stroke-linejoin="round"/>
<path d="M122.327 238.201L120.88 248.284" stroke="#1A3447" stroke-width="0.598" stroke-linecap="round" stroke-linejoin="round"/>
<path d="M195.75 150.026L194.296 160.109" stroke="#1A3447" stroke-width="0.598" stroke-linecap="round" stroke-linejoin="round"/>
<path d="M209.396 117.1L207.937 127.183" stroke="#1A3447" stroke-width="0.598" stroke-linecap="round" stroke-linejoin="round"/>
<path d="M65.8399 103.083L64.3867 113.16" stroke="#1A3447" stroke-width="0.598" stroke-linecap="round" stroke-linejoin="round"/>
<path d="M176.236 174.233L174.783 184.316" stroke="#1A3447" stroke-width="0.598" stroke-linecap="round" stroke-linejoin="round"/>
<path d="M199.797 180.769L198.344 190.852" stroke="#1A3447" stroke-width="0.598" stroke-linecap="round" stroke-linejoin="round"/>
<path d="M183.245 229.835L181.792 239.918" stroke="#1A3447" stroke-width="0.598" stroke-linecap="round" stroke-linejoin="round"/>
<path d="M155.952 80.3234L154.493 90.4116" stroke="#1A3447" stroke-width="0.598" stroke-linecap="round" stroke-linejoin="round"/>
<path d="M227.061 91.6555L225.607 101.744" stroke="#1A3447" stroke-width="0.598" stroke-linecap="round" stroke-linejoin="round"/>
<path d="M220.949 134.006L219.502 144.082" stroke="#1A3447" stroke-width="0.598" stroke-linecap="round" stroke-linejoin="round"/>
<path d="M209.832 157.603L208.373 167.685" stroke="#1A3447" stroke-width="0.598" stroke-linecap="round" stroke-linejoin="round"/>
<path d="M177.164 89.3951L175.71 99.4773" stroke="#1A3447" stroke-width="0.598" stroke-linecap="round" stroke-linejoin="round"/>
<path d="M154.511 113.004L153.058 123.086" stroke="#1A3447" stroke-width="0.598" stroke-linecap="round" stroke-linejoin="round"/>
<path d="M130.555 129.467L129.096 139.549" stroke="#1A3447" stroke-width="0.598" stroke-linecap="round" stroke-linejoin="round"/>
<path d="M182.168 110.379L180.715 120.461" stroke="#1A3447" stroke-width="0.598" stroke-linecap="round" stroke-linejoin="round"/>
<path d="M181.337 136.852L179.884 146.941" stroke="#1A3447" stroke-width="0.598" stroke-linecap="round" stroke-linejoin="round"/>
<path d="M106.976 127.852L105.523 137.935" stroke="#1A3447" stroke-width="0.598" stroke-linecap="round" stroke-linejoin="round"/>
<path d="M123.056 110.379L121.597 120.461" stroke="#1A3447" stroke-width="0.598" stroke-linecap="round" stroke-linejoin="round"/>
<path d="M100.464 170.143L99.0107 180.219" stroke="#1A3447" stroke-width="0.598" stroke-linecap="round" stroke-linejoin="round"/>
<path d="M125.855 185.332L124.408 195.414" stroke="#1A3447" stroke-width="0.598" stroke-linecap="round" stroke-linejoin="round"/>
<path d="M213.492 194.266L210.472 215.238" stroke="#1A3447" stroke-width="0.598" stroke-linecap="round" stroke-linejoin="round"/>
<path d="M238.44 110.259L235.415 131.231" stroke="#1A3447" stroke-width="0.598" stroke-linecap="round" stroke-linejoin="round"/>
<path d="M114.721 193.25L111.701 214.222" stroke="#1A3447" stroke-width="0.598" stroke-linecap="round" stroke-linejoin="round"/>
<path d="M84.5152 203.655L83.062 213.737" stroke="#1A3447" stroke-width="0.598" stroke-linecap="round" stroke-linejoin="round"/>
<path d="M168.989 272.407C173.544 272.029 178.077 271.418 182.569 270.577C195.642 268.101 209.479 263.616 218.874 253.743C229.925 242.16 232.239 223.706 226.289 209.103C221.679 197.8 211.716 188.651 199.863 185.703C191.659 183.658 182.814 184.477 174.915 181.457C162.68 176.781 155.474 164.079 144.417 157.053C133.36 150.026 118.703 149.368 106.581 154.439C94.46 159.511 84.886 169.886 79.7552 181.983C74.6243 194.081 73.7333 207.763 76.1313 220.662C78.613 234.063 84.1564 246.789 95.5005 254.957C105.188 261.936 119.636 269.453 130.878 271.043C143.491 272.914 156.274 273.371 168.989 272.407Z" fill="#F0C376"/>
<path opacity="0.5" d="M168.989 272.407C173.544 272.029 178.077 271.418 182.569 270.577C195.642 268.101 209.479 263.616 218.874 253.743C229.925 242.16 232.239 223.706 226.289 209.103C221.679 197.8 211.716 188.651 199.863 185.703C191.659 183.658 182.814 184.477 174.915 181.457C162.68 176.781 155.474 164.079 144.417 157.053C133.36 150.026 118.703 149.368 106.581 154.439C94.46 159.511 84.886 169.886 79.7552 181.983C74.6243 194.081 73.7333 207.763 76.1313 220.662C78.613 234.063 84.1564 246.789 95.5005 254.957C105.188 261.936 119.636 269.453 130.878 271.043C143.491 272.914 156.274 273.371 168.989 272.407Z" fill="white"/>
<path opacity="0.1" d="M148.639 206.089C148.639 206.089 168.899 216.781 169.683 211.303C170.466 205.826 190.104 190.02 190.104 190.02C180.997 202.088 186.624 216.817 186.624 216.817C199.559 208.6 210.915 209.533 210.915 209.533C196.993 213.121 182.677 229.746 182.677 229.746L155.127 238.602C155.127 238.602 123.069 235.935 119.78 219.466C116.491 202.997 97.0078 184.034 97.0078 184.034L112.358 194.709C119.648 188.609 111.461 172.415 111.461 172.415C125.293 177.259 127.009 192.705 127.009 192.705L148.639 206.089Z" fill="#362822"/>
<path d="M90.7046 181.696C90.7046 181.696 116.861 188.197 124.689 216.057" stroke="#1A3447" stroke-width="1.196" stroke-linecap="round" stroke-linejoin="round"/>
<path d="M107.7 170.161C107.7 170.161 126.112 177.337 120.724 206.089" stroke="#1A3447" stroke-width="1.196" stroke-linecap="round" stroke-linejoin="round"/>
<path d="M175.077 226.642C175.077 226.642 192.126 206.531 216.243 209.898" stroke="#1A3447" stroke-width="1.196" stroke-linecap="round" stroke-linejoin="round"/>
<path d="M175.681 219.364C175.681 219.364 178.246 191.521 197.131 186.815" stroke="#1A3447" stroke-width="1.196" stroke-linecap="round" stroke-linejoin="round"/>
<path d="M140.004 212.475C140.004 212.475 133.426 212.673 123.822 210.532C114.218 208.391 106.373 209.934 104.884 218.306C103.395 226.678 127.871 235.205 144.896 238.321C161.921 241.436 178.982 242.782 187.258 239.517C195.535 236.252 195.343 224.364 192.15 218.922C188.957 213.48 178.318 212.709 172.781 213.54C167.243 214.371 140.004 212.475 140.004 212.475Z" fill="#1A3447"/>
<path d="M173.468 241.682C163.678 241.682 152.316 239.965 144.835 238.596C127.691 235.468 103.035 226.839 104.56 218.264C105.158 215.053 106.677 212.667 109.129 211.19C112.466 209.162 117.579 208.857 123.899 210.257C133.318 212.356 139.926 212.194 139.992 212.188C140.267 212.188 167.266 213.934 172.696 213.169C177.648 212.469 188.974 212.924 192.4 218.754C194.392 222.151 195.39 228.245 193.459 233.328C192.954 234.768 192.148 236.084 191.096 237.19C190.043 238.295 188.767 239.164 187.353 239.738C183.843 241.149 178.892 241.682 173.468 241.682ZM116.783 209.988C113.823 209.988 111.353 210.586 109.482 211.68C107.179 213.073 105.738 215.322 105.194 218.366C103.795 226.217 127.392 234.835 144.961 238.046C156.514 240.157 177.367 243.111 187.108 239.212C188.441 238.665 189.643 237.841 190.634 236.795C191.625 235.749 192.382 234.503 192.855 233.142C194.709 228.263 193.716 222.223 191.838 219.023C188.573 213.468 177.594 213.043 172.804 213.731C167.314 214.509 141.283 212.852 139.968 212.768C134.495 212.718 129.044 212.064 123.714 210.819C121.441 210.289 119.117 210.008 116.783 209.982V209.988Z" fill="#1A3447"/>
<path d="M180.525 159.128C180.261 157.507 180.046 155.821 179.825 154.188C179.439 150.501 178.773 146.849 177.834 143.263C176.721 138.85 174.921 134.377 170.448 131.949C167.79 130.545 164.826 129.823 161.82 129.847C158.814 129.871 155.861 130.64 153.226 132.086C150.295 133.756 147.986 136.333 146.648 139.43C145.261 142.713 146.355 146.564 146.51 150.002C146.696 154.569 146.179 159.137 144.979 163.547C151.264 167.003 167.638 174.048 181.176 162.949L180.525 159.128Z" fill="#1A3447"/>
<path d="M159.852 164.306C159.852 164.306 149.315 165.616 144.363 166.782C139.412 167.948 137.66 169.605 135.878 172.684C134.096 175.764 131.447 187.216 128.893 192.024C126.34 196.832 121.717 198.105 120.898 203.2C120.079 208.295 124.57 210.047 127.924 210.634C130.408 211.02 132.912 211.264 135.423 211.363C135.423 211.363 140.853 223.018 151.39 223.891C161.927 224.764 169.748 218.061 174.538 215.585C179.328 213.109 179.645 207.428 179.807 200.874C179.968 194.32 184.214 179.573 183.096 175.495C181.978 171.417 180.303 170.747 173.049 167.338C169.946 165.897 164.319 164.013 159.852 164.306Z" fill="white"/>
<path d="M178.677 170.532C178.677 170.532 175.388 174.227 175.173 178.019C174.957 181.81 174.545 203.182 174.545 203.182C174.545 203.182 169.522 189.034 167.53 186.313C167.53 186.313 172.775 176.583 172.912 167.59C175.06 168.045 177.048 169.06 178.677 170.532Z" fill="#F0C376"/>
<path d="M153.285 224.25C152.647 224.262 152.008 224.238 151.372 224.178C141.469 223.353 135.949 213.103 135.226 211.62C132.764 211.517 130.311 211.275 127.876 210.897C124.785 210.358 119.738 208.636 120.593 203.123C121.071 200.091 122.859 198.339 124.749 196.545C126.289 195.202 127.597 193.614 128.618 191.844C129.969 189.297 131.381 184.776 132.636 180.775C133.731 177.277 134.771 173.94 135.626 172.487C137.385 169.431 139.214 167.661 144.327 166.453C149.231 165.287 159.738 163.984 159.845 163.972C164.229 163.679 169.796 165.455 173.217 167.051L173.851 167.344C180.512 170.46 182.306 171.297 183.419 175.381C184.058 177.773 183 183.389 181.87 189.369C181.051 193.638 180.213 198.052 180.142 200.862C179.998 206.908 179.843 213.169 174.718 215.812C173.749 216.309 172.685 216.978 171.447 217.732C166.926 220.536 160.862 224.25 153.285 224.25ZM159.863 164.588C159.481 164.635 149.231 165.927 144.429 167.057C139.519 168.223 137.851 169.832 136.129 172.792C135.321 174.191 134.299 177.48 133.205 180.949C131.925 184.961 130.531 189.512 129.15 192.107C128.099 193.931 126.755 195.569 125.173 196.957C123.254 198.793 121.627 200.372 121.185 203.218C120.437 208.002 124.45 209.713 127.948 210.323C130.418 210.707 132.908 210.949 135.405 211.046C135.463 211.047 135.52 211.064 135.57 211.094C135.619 211.125 135.659 211.168 135.686 211.22C135.74 211.339 141.17 222.725 151.384 223.574C159.684 224.262 166.244 220.207 171.04 217.253C172.32 216.476 173.366 215.812 174.347 215.304C178.82 212.978 179.286 207.853 179.454 200.844C179.526 197.992 180.369 193.555 181.188 189.261C182.258 183.628 183.371 177.803 182.749 175.543C181.702 171.71 180.13 170.98 173.51 167.882L172.87 167.583C169.587 166.047 164.151 164.318 159.881 164.593L159.863 164.588Z" fill="#1A3447"/>
<path d="M137.977 205.533C137.938 205.545 137.896 205.545 137.857 205.533C137.82 205.521 137.786 205.503 137.757 205.477C137.727 205.452 137.704 205.421 137.688 205.386C137.671 205.351 137.662 205.313 137.662 205.274C137.661 205.236 137.668 205.197 137.684 205.162C137.719 205.09 140.877 197.908 140.877 195.947C140.877 194.571 140.189 193.178 139.388 191.563C139.041 190.864 138.682 190.14 138.341 189.351C137.241 186.755 139.747 182.689 140.093 182.175C140.249 181.116 141.965 169.419 143.622 167.225C143.673 167.162 143.746 167.12 143.826 167.106C143.907 167.093 143.989 167.11 144.058 167.153C144.092 167.173 144.121 167.2 144.143 167.231C144.166 167.263 144.182 167.3 144.19 167.338C144.198 167.376 144.197 167.416 144.189 167.454C144.181 167.492 144.165 167.528 144.142 167.56C142.533 169.676 140.727 182.181 140.715 182.3C140.706 182.34 140.689 182.379 140.668 182.414C140.668 182.456 137.893 186.696 138.939 189.153C139.262 189.925 139.621 190.642 139.968 191.342C140.793 193.01 141.511 194.464 141.511 195.959C141.511 198.028 138.425 205.09 138.317 205.389C138.283 205.446 138.232 205.491 138.171 205.517C138.109 205.543 138.041 205.548 137.977 205.533Z" fill="#1A3447"/>
<path d="M135.423 207.572C135.423 207.572 139.227 209.629 142.073 210.209L135.423 207.572Z" fill="white"/>
<path d="M139.256 211.943C140.47 212.357 141.737 212.596 143.018 212.655L139.256 211.943Z" fill="white"/>
<path d="M135.907 209.055C137.941 210.351 140.188 211.279 142.545 211.794L135.907 209.055Z" fill="white"/>
<path d="M154.188 162.572C154.188 162.572 152.759 170.149 152.616 174.813C152.472 179.478 156.323 184.19 161.747 178.198C167.171 172.206 166.316 162.309 166.316 162.309C162.455 163.943 158.116 164.037 154.188 162.572Z" fill="white"/>
<path d="M154.983 170.292L154.93 165.819L153.686 165.096L150.654 165.419L150.14 167.207L154.983 170.292Z" fill="#F0C376"/>
<path d="M154.47 172.373H154.416C154.376 172.37 154.337 172.358 154.302 172.339C154.267 172.32 154.237 172.294 154.212 172.263C154.187 172.231 154.169 172.195 154.159 172.157C154.149 172.118 154.147 172.078 154.153 172.039C154.571 169.88 154.296 165.897 154.296 165.855C154.295 165.816 154.301 165.777 154.314 165.74C154.328 165.703 154.349 165.669 154.375 165.64C154.402 165.611 154.434 165.588 154.47 165.572C154.505 165.555 154.544 165.546 154.583 165.544C154.664 165.539 154.744 165.564 154.807 165.615C154.871 165.666 154.912 165.739 154.924 165.819C154.924 165.981 155.211 169.898 154.775 172.14C154.76 172.209 154.722 172.271 154.666 172.314C154.61 172.357 154.54 172.378 154.47 172.373Z" fill="#1A3447"/>
<path d="M122.542 238.536C122.542 238.536 119.355 240.091 113.393 240.282C107.431 240.474 102.539 237.561 105.302 235.229C106.807 234.003 108.546 233.095 110.413 232.561C112.279 232.028 114.235 231.879 116.161 232.126C119.989 232.724 125.729 234.063 125.729 234.063L122.542 238.536Z" fill="white"/>
<path d="M112.836 240.557C108.848 240.557 105.176 239.2 104.357 237.364C104.179 236.943 104.154 236.473 104.287 236.036C104.421 235.598 104.704 235.222 105.086 234.972C106.627 233.711 108.408 232.779 110.322 232.232C112.236 231.685 114.241 231.535 116.215 231.791C120.048 232.389 125.783 233.728 125.783 233.74C125.83 233.751 125.873 233.772 125.911 233.802C125.948 233.832 125.978 233.87 125.998 233.914C126.019 233.957 126.027 234.005 126.022 234.052C126.016 234.1 125.998 234.145 125.968 234.183L122.775 238.644C122.746 238.687 122.707 238.722 122.662 238.745C122.524 238.805 119.331 240.336 113.369 240.539L112.836 240.557ZM114.331 232.251C111.121 232.271 108.013 233.387 105.523 235.415C105.226 235.583 105.001 235.854 104.891 236.177C104.781 236.5 104.793 236.852 104.925 237.167C105.559 238.632 108.997 240.157 113.351 239.983C118.685 239.81 121.8 238.524 122.321 238.303L125.221 234.225C123.816 233.902 119.277 232.873 116.101 232.389C115.516 232.298 114.924 232.252 114.331 232.251Z" fill="#1A3447"/>
<path d="M123.403 233.651C123.69 233.651 124.001 233.698 124.3 233.71C122.345 233.268 118.805 232.514 116.161 232.096C114.235 231.852 112.28 232.001 110.413 232.534C108.547 233.068 106.808 233.974 105.302 235.199C103.896 236.365 104.482 237.729 106.169 238.734C106.083 237.886 106.29 237.035 106.755 236.322C107.221 235.609 107.918 235.078 108.728 234.817C112.328 233.292 119.779 233.292 123.403 233.651Z" fill="white"/>
<path d="M106.169 239.027C106.11 239.023 106.053 239.007 106.001 238.979C104.895 238.327 104.273 237.561 104.207 236.772C104.195 236.423 104.269 236.077 104.424 235.764C104.578 235.451 104.808 235.181 105.092 234.978C106.633 233.717 108.414 232.785 110.328 232.238C112.242 231.691 114.247 231.541 116.221 231.797C118.864 232.197 122.476 232.963 124.384 233.411C124.458 233.426 124.525 233.468 124.57 233.528C124.615 233.589 124.636 233.665 124.629 233.74C124.608 233.813 124.564 233.877 124.504 233.922C124.443 233.967 124.37 233.992 124.294 233.991C123.984 233.988 123.675 233.966 123.367 233.926C119.534 233.519 112.28 233.591 108.854 235.092C108.102 235.329 107.456 235.82 107.026 236.481C106.597 237.142 106.41 237.932 106.498 238.716C106.503 238.773 106.491 238.83 106.463 238.88C106.435 238.93 106.393 238.971 106.342 238.997C106.287 239.02 106.228 239.03 106.169 239.027ZM114.332 232.251C111.121 232.271 108.013 233.387 105.523 235.415C105.309 235.56 105.133 235.756 105.013 235.986C104.893 236.215 104.832 236.471 104.835 236.73C104.899 237.022 105.021 237.297 105.194 237.541C105.367 237.784 105.586 237.99 105.84 238.147C105.883 237.344 106.167 236.573 106.655 235.933C107.142 235.293 107.81 234.815 108.573 234.559C111.533 233.286 116.694 233.064 120.407 233.172C118.948 232.879 117.417 232.574 116.108 232.389C115.52 232.298 114.926 232.252 114.332 232.251Z" fill="#1A3447"/>
<path d="M189.178 222.384C189.178 222.384 182.791 231.121 176.41 234.619C170.03 238.118 140.859 238.536 134.903 238.536H122.542V234.458C122.542 234.458 142.133 231.904 152.987 226.295C163.84 220.686 169.587 214.449 178.103 211.943C186.618 209.438 194.063 213.695 193.854 224.184" fill="#1A3447"/>
<path d="M134.897 238.799H122.542C122.502 238.801 122.462 238.795 122.424 238.781C122.387 238.767 122.352 238.746 122.323 238.719C122.293 238.691 122.27 238.659 122.253 238.622C122.236 238.586 122.227 238.546 122.225 238.506V234.416C122.228 234.343 122.257 234.273 122.308 234.22C122.359 234.167 122.427 234.135 122.5 234.129C122.698 234.129 142.15 231.54 152.825 226.008C156.81 223.881 160.664 221.516 164.366 218.928C169.007 215.788 173.019 213.097 178.007 211.608C182.282 210.335 186.277 210.741 189.249 212.774C192.526 214.987 194.278 219.023 194.176 224.136C194.173 224.214 194.141 224.287 194.085 224.34C194.029 224.394 193.955 224.423 193.877 224.423C193.838 224.425 193.798 224.419 193.761 224.405C193.723 224.391 193.689 224.37 193.66 224.342C193.631 224.315 193.608 224.282 193.592 224.246C193.576 224.209 193.567 224.17 193.566 224.13C193.668 219.209 192.006 215.34 188.896 213.235C186.091 211.345 182.318 210.962 178.234 212.176C173.348 213.629 169.377 216.309 164.773 219.412C161.054 222.013 157.182 224.387 153.178 226.522C143.083 231.767 125.323 234.35 122.895 234.685V238.219H134.927C135.262 238.219 169.324 238.177 176.266 234.374C182.515 230.954 188.872 222.318 188.938 222.229C188.989 222.165 189.061 222.121 189.141 222.106C189.221 222.091 189.304 222.104 189.375 222.145C189.409 222.163 189.439 222.188 189.462 222.218C189.486 222.248 189.503 222.283 189.512 222.321C189.521 222.358 189.522 222.397 189.515 222.435C189.508 222.472 189.492 222.508 189.47 222.54C189.41 222.623 182.976 231.372 176.595 234.864C169.473 238.751 135.238 238.799 134.897 238.799Z" fill="#1A3447"/>
<path d="M118.775 214.084L118.075 214.018L118.775 214.084Z" fill="#1A3447"/>
<path d="M118.775 214.389H118.745L118.052 214.329C118.012 214.328 117.972 214.318 117.936 214.301C117.899 214.285 117.867 214.261 117.839 214.231C117.812 214.202 117.791 214.168 117.777 214.13C117.763 214.092 117.757 214.052 117.759 214.012C117.772 213.933 117.814 213.862 117.877 213.812C117.94 213.762 118.019 213.738 118.099 213.743L118.817 213.809C118.856 213.812 118.895 213.822 118.93 213.84C118.965 213.857 118.996 213.882 119.022 213.911C119.048 213.941 119.068 213.976 119.08 214.013C119.093 214.05 119.098 214.09 119.095 214.129C119.092 214.168 119.082 214.206 119.064 214.242C119.047 214.277 119.022 214.308 118.993 214.334C118.963 214.36 118.928 214.38 118.891 214.392C118.854 214.405 118.814 214.41 118.775 214.407V214.389Z" fill="#1A3447"/>
<path d="M178.742 239.278C181.942 238.247 185.217 237.469 188.538 236.952C193.005 236.354 196.623 236.952 197.896 239.481C199.17 242.011 198.327 245.108 193.854 245.892C189.381 246.675 181.296 245.108 180.447 245.108C179.709 245.026 178.99 244.824 178.318 244.51L178.742 239.278Z" fill="white"/>
<path d="M190.834 246.376C187.862 246.304 184.897 246.036 181.96 245.575C181.206 245.467 180.614 245.383 180.447 245.383C179.662 245.31 178.894 245.108 178.174 244.785C178.118 244.764 178.071 244.725 178.04 244.675C178.008 244.624 177.995 244.564 178.001 244.504L178.42 239.26C178.428 239.203 178.452 239.149 178.489 239.104C178.526 239.06 178.574 239.027 178.629 239.009C181.85 237.974 185.147 237.194 188.49 236.676C193.603 236.007 196.958 236.94 198.19 239.367C198.55 240.013 198.745 240.738 198.755 241.477C198.766 242.216 198.592 242.946 198.249 243.601C197.729 244.528 196.557 245.724 193.914 246.185C192.895 246.335 191.864 246.399 190.834 246.376ZM178.653 244.343C179.222 244.594 179.828 244.752 180.447 244.809C180.985 244.851 181.523 244.917 182.056 245.007C184.764 245.395 190.392 246.173 193.8 245.605C195.714 245.27 197.029 244.486 197.681 243.326C197.979 242.748 198.128 242.105 198.116 241.454C198.103 240.804 197.929 240.167 197.609 239.601C196.222 236.856 191.934 236.802 188.58 237.239C185.348 237.743 182.161 238.499 179.048 239.499L178.653 244.343Z" fill="#1A3447"/>
<path d="M192.741 236.808C194.105 237.286 196.67 238.602 196.198 241.622C195.558 245.7 190.218 245.7 186.63 245.7C186.363 245.706 186.099 245.742 185.84 245.808C188.519 246.095 191.647 246.286 193.865 245.904C198.339 245.12 199.188 242.017 197.908 239.493C197.047 237.813 195.199 236.999 192.741 236.808Z" fill="white"/>
<path d="M190.828 246.376C189.145 246.362 187.465 246.259 185.793 246.065C185.722 246.061 185.654 246.032 185.603 245.982C185.551 245.933 185.519 245.867 185.512 245.796C185.51 245.726 185.532 245.658 185.574 245.602C185.617 245.547 185.677 245.507 185.745 245.491C186.031 245.419 186.324 245.383 186.618 245.383C190.272 245.383 195.277 245.383 195.881 241.55C196.312 238.787 194.027 237.544 192.628 237.047C192.561 237.024 192.504 236.978 192.468 236.916C192.431 236.855 192.418 236.782 192.431 236.712C192.452 236.641 192.497 236.579 192.56 236.538C192.623 236.498 192.698 236.481 192.772 236.491C195.522 236.712 197.346 237.657 198.189 239.338C198.55 239.984 198.745 240.71 198.755 241.45C198.766 242.19 198.592 242.921 198.249 243.577C197.729 244.504 196.557 245.694 193.914 246.155C192.894 246.318 191.861 246.392 190.828 246.376ZM190.762 245.778C191.779 245.786 192.794 245.716 193.8 245.569C195.714 245.234 197.029 244.45 197.681 243.29C197.979 242.712 198.128 242.069 198.116 241.418C198.103 240.768 197.929 240.131 197.609 239.565C197.297 239.006 196.869 238.521 196.353 238.142C195.837 237.764 195.246 237.5 194.619 237.37C195.329 237.803 195.892 238.439 196.235 239.197C196.577 239.954 196.683 240.797 196.539 241.616C196.067 244.51 193.513 245.479 190.762 245.814V245.778Z" fill="#1A3447"/>
<path d="M116.377 209.76C116.377 209.76 109.135 208.594 104.453 211.889C99.7705 215.184 100.41 218.695 104.883 223.748C109.356 228.801 120.844 237.729 145.751 241.807C170.657 245.886 178.318 244.528 178.318 244.528L178.742 239.278C168.168 239.348 157.806 236.31 148.944 230.541C135.005 221.218 128.791 215.089 118.775 214.096" fill="#1A3447"/>
<path d="M174.018 245.042C169.402 245.042 160.689 244.546 145.715 242.094C119.349 237.777 108.22 227.952 104.656 223.927C101.828 220.734 100.692 218.36 100.967 216.219C101.176 214.58 102.24 213.085 104.28 211.662C109.028 208.319 116.15 209.42 116.449 209.473C116.487 209.476 116.525 209.486 116.559 209.502C116.593 209.519 116.624 209.543 116.649 209.572C116.674 209.601 116.693 209.635 116.705 209.671C116.717 209.708 116.721 209.746 116.718 209.784C116.699 209.863 116.651 209.932 116.583 209.977C116.515 210.021 116.433 210.038 116.353 210.024C116.287 210.024 109.177 208.917 104.686 212.099C102.809 213.426 101.804 214.79 101.613 216.285C101.361 218.228 102.492 220.536 105.165 223.55C108.681 227.527 119.684 237.227 145.829 241.52C168.014 245.15 176.56 244.432 178.043 244.271L178.42 239.577C167.901 239.535 157.614 236.48 148.777 230.774C145.619 228.663 142.827 226.696 140.363 224.944C131.991 219.035 126.424 215.124 118.769 214.365C118.729 214.363 118.689 214.352 118.653 214.334C118.617 214.317 118.585 214.291 118.558 214.261C118.532 214.23 118.512 214.194 118.5 214.156C118.488 214.117 118.484 214.076 118.488 214.036C118.501 213.956 118.546 213.883 118.612 213.835C118.678 213.787 118.76 213.767 118.841 213.779C126.675 214.562 132.248 218.503 140.752 224.477C143.215 226.229 146.008 228.179 149.124 230.308C157.941 236.009 168.225 239.026 178.725 238.991C178.768 238.987 178.812 238.993 178.853 239.008C178.894 239.022 178.932 239.045 178.964 239.074C178.995 239.103 179.019 239.139 179.034 239.178C179.05 239.217 179.056 239.259 179.054 239.302L178.635 244.546C178.624 244.612 178.593 244.673 178.546 244.72C178.499 244.768 178.438 244.799 178.372 244.809C176.929 245.002 175.473 245.08 174.018 245.042Z" fill="#1A3447"/>
<path d="M113.715 214.712C113.643 214.714 113.572 214.692 113.515 214.648C113.457 214.605 113.416 214.543 113.398 214.473C113.392 214.434 113.393 214.395 113.401 214.358C113.41 214.32 113.427 214.284 113.449 214.253C113.472 214.222 113.501 214.195 113.535 214.175C113.568 214.156 113.605 214.143 113.644 214.138C114.413 214.004 115.19 213.918 115.97 213.881C116.051 213.874 116.132 213.9 116.195 213.952C116.258 214.005 116.297 214.08 116.305 214.162C116.305 214.202 116.297 214.241 116.281 214.278C116.266 214.314 116.243 214.347 116.215 214.375C116.187 214.403 116.153 214.425 116.116 214.44C116.079 214.454 116.04 214.462 116 214.461C115.248 214.497 114.499 214.579 113.757 214.706L113.715 214.712Z" fill="white"/>
<path d="M175.513 154.475C171.596 156.365 171.046 152.574 171.076 150.289C171.114 150.268 171.144 150.234 171.16 150.194C171.441 149.141 171.16 143.909 167.859 141.822C164.946 139.974 161.089 138.383 157.489 138.377C156.273 138.415 155.083 138.737 154.014 139.319C152.945 139.901 152.028 140.725 151.336 141.726C149.721 143.957 149.859 146.546 149.727 149.117C149.596 151.689 149.327 154.541 149.889 157.118C150.642 160.557 154.158 167.781 158.434 167.781C162.309 167.781 169.198 162.489 171.554 159.367C172.083 159.21 172.577 158.952 173.007 158.608C173.886 157.914 175.645 156.772 175.513 154.475Z" fill="white"/>
<path d="M158.434 168.038C153.83 168.038 150.278 160.354 149.578 157.142C149.076 154.864 149.219 152.448 149.351 150.104L149.411 149.075L149.446 148.053C149.536 145.834 149.62 143.538 151.079 141.529C151.795 140.486 152.746 139.627 153.856 139.021C154.965 138.414 156.202 138.077 157.466 138.036C160.653 138.036 164.522 139.316 168.014 141.529C171.507 143.741 171.752 149.105 171.441 150.218C171.429 150.271 171.405 150.32 171.369 150.361C171.369 151.647 171.566 153.788 172.762 154.439C173.404 154.786 174.255 154.697 175.316 154.17C175.364 154.147 175.417 154.134 175.471 154.134C175.525 154.134 175.578 154.147 175.627 154.17C175.672 154.193 175.71 154.227 175.737 154.269C175.765 154.311 175.78 154.359 175.782 154.41C175.914 156.67 174.323 157.908 173.39 158.596L173.175 158.751C172.744 159.103 172.251 159.37 171.722 159.54C169.467 162.56 162.614 168.038 158.434 168.038ZM157.454 138.634C156.291 138.674 155.155 138.985 154.135 139.544C153.115 140.103 152.24 140.893 151.581 141.852C150.23 143.723 150.152 145.84 150.062 148.077L150.02 149.105L149.967 150.134C149.829 152.466 149.692 154.792 150.176 157.035C150.977 160.671 154.505 167.458 158.41 167.458C162.04 167.458 168.792 162.447 171.267 159.17C171.31 159.117 171.369 159.079 171.435 159.062C171.922 158.918 172.375 158.678 172.768 158.356L172.984 158.189C173.827 157.549 175.071 156.598 175.172 154.918C174.749 155.131 174.282 155.245 173.808 155.254C173.334 155.262 172.864 155.163 172.434 154.966C171.016 154.176 170.723 151.976 170.735 150.265C170.736 150.224 170.746 150.183 170.765 150.146C170.783 150.108 170.81 150.076 170.843 150.05C171.1 149.075 170.759 144.004 167.65 142.025C164.265 139.878 160.545 138.64 157.484 138.634H157.454Z" fill="#1A3447"/>
<path d="M148.131 151.33C148.083 151.328 148.036 151.316 147.993 151.295C147.95 151.275 147.911 151.246 147.88 151.21C147.855 151.181 147.836 151.146 147.826 151.108C147.815 151.071 147.813 151.032 147.818 150.994C147.824 150.955 147.838 150.918 147.859 150.886C147.879 150.853 147.907 150.825 147.939 150.804L149.446 149.769C149.516 149.724 149.6 149.705 149.682 149.716C149.764 149.727 149.84 149.767 149.895 149.829C149.919 149.859 149.936 149.894 149.946 149.932C149.955 149.969 149.957 150.008 149.951 150.047C149.945 150.085 149.931 150.121 149.91 150.154C149.889 150.186 149.861 150.214 149.829 150.236L148.304 151.294C148.251 151.321 148.191 151.333 148.131 151.33Z" fill="#1A3447"/>
<path d="M153.088 140.111C153.088 140.111 157.555 137.63 159.116 139.98C160.677 142.33 167.835 157.98 175.519 154.475C183.203 150.971 175.465 139.46 168.002 135.794C160.539 132.128 154.284 135.268 153.088 140.111Z" fill="#1A3447"/>
<path d="M173.229 155.277C167.326 155.277 162.178 146.05 159.822 141.816C159.397 141.062 159.062 140.458 158.841 140.135C158.705 139.928 158.529 139.75 158.324 139.611C158.119 139.473 157.888 139.376 157.645 139.328C155.851 138.933 153.303 140.351 153.279 140.363C153.206 140.402 153.122 140.414 153.04 140.397C152.959 140.379 152.887 140.333 152.837 140.267C152.817 140.235 152.803 140.2 152.797 140.163C152.791 140.126 152.792 140.088 152.801 140.052C153.107 138.841 153.698 137.722 154.524 136.786C155.349 135.85 156.387 135.124 157.549 134.67C160.653 133.366 164.426 133.665 168.182 135.513C173.378 138.072 179.137 144.728 179.041 149.829C179.042 150.887 178.721 151.92 178.122 152.792C177.523 153.665 176.674 154.335 175.686 154.715C174.919 155.082 174.08 155.274 173.229 155.277ZM156.939 138.676C157.218 138.674 157.497 138.702 157.77 138.76C158.096 138.823 158.406 138.95 158.682 139.133C158.959 139.317 159.195 139.554 159.379 139.83C159.606 140.171 159.977 140.781 160.384 141.576C162.979 146.241 169.061 157.124 175.376 154.236C176.258 153.898 177.017 153.3 177.552 152.52C178.086 151.74 178.37 150.816 178.366 149.871C178.449 144.973 172.876 138.551 167.841 136.069C164.253 134.323 160.665 134.024 157.776 135.25C156.816 135.634 155.947 136.216 155.226 136.958C154.505 137.699 153.948 138.584 153.59 139.555C154.638 139.045 155.776 138.747 156.939 138.676Z" fill="#1A3447"/>
<path d="M169.832 198.907C164.926 198.829 160.25 196.817 156.819 193.309C156.798 193.276 156.783 193.238 156.777 193.199C156.771 193.159 156.774 193.119 156.784 193.08C156.795 193.042 156.814 193.006 156.84 192.976C156.865 192.945 156.897 192.92 156.933 192.903C156.994 192.868 157.064 192.853 157.133 192.86C157.203 192.866 157.268 192.894 157.322 192.939C160.619 196.312 165.115 198.246 169.832 198.321C169.911 198.321 169.987 198.352 170.043 198.408C170.099 198.464 170.131 198.54 170.131 198.62C170.131 198.699 170.099 198.775 170.043 198.831C169.987 198.887 169.911 198.919 169.832 198.919V198.907Z" fill="#1A3447"/>
<path d="M155.163 153.052C154.1 153.077 153.068 152.696 152.275 151.988C152.235 151.954 152.202 151.912 152.18 151.864C152.158 151.817 152.146 151.765 152.146 151.713C152.146 151.66 152.158 151.608 152.18 151.561C152.202 151.513 152.235 151.471 152.275 151.437C152.357 151.364 152.464 151.323 152.574 151.323C152.684 151.323 152.791 151.364 152.873 151.437C154.625 153.034 157.059 151.868 157.167 151.82C157.268 151.767 157.385 151.754 157.496 151.783C157.606 151.811 157.702 151.88 157.765 151.976C157.791 152.021 157.807 152.072 157.813 152.125C157.818 152.177 157.813 152.23 157.796 152.28C157.78 152.331 157.753 152.377 157.718 152.416C157.683 152.455 157.639 152.486 157.591 152.508C156.832 152.865 156.003 153.051 155.163 153.052Z" fill="#1A3447"/>
<path d="M164.409 153.758C163.462 153.739 162.541 153.444 161.759 152.909C161.716 152.879 161.679 152.841 161.652 152.796C161.624 152.752 161.607 152.702 161.6 152.65C161.593 152.598 161.597 152.545 161.612 152.495C161.628 152.444 161.653 152.398 161.688 152.358C161.762 152.277 161.863 152.224 161.973 152.211C162.083 152.198 162.194 152.225 162.286 152.287C162.381 152.352 164.516 153.824 166.215 152.287C166.298 152.217 166.404 152.178 166.514 152.178C166.623 152.178 166.729 152.217 166.813 152.287C166.852 152.321 166.884 152.364 166.905 152.412C166.927 152.46 166.938 152.512 166.938 152.565C166.938 152.617 166.927 152.669 166.905 152.717C166.884 152.765 166.852 152.808 166.813 152.843C166.158 153.445 165.298 153.773 164.409 153.758Z" fill="#1A3447"/>
<path d="M159.546 159.014C158.772 158.999 158.035 158.679 157.495 158.123C157.456 158.088 157.426 158.045 157.405 157.997C157.383 157.949 157.373 157.897 157.373 157.845C157.373 157.793 157.383 157.741 157.405 157.693C157.426 157.645 157.456 157.602 157.495 157.567C157.579 157.497 157.685 157.459 157.794 157.459C157.903 157.459 158.009 157.497 158.093 157.567C159.158 158.59 160.09 158.117 160.192 158.057C160.291 158.002 160.406 157.985 160.516 158.009C160.626 158.034 160.724 158.098 160.79 158.189C160.82 158.232 160.84 158.281 160.85 158.332C160.859 158.384 160.858 158.437 160.845 158.488C160.833 158.538 160.81 158.586 160.777 158.627C160.745 158.669 160.705 158.703 160.659 158.727C160.317 158.913 159.935 159.012 159.546 159.014Z" fill="#1A3447"/>
<path d="M124.3 234.105C124.202 234.107 124.105 234.075 124.028 234.014C123.95 233.953 123.896 233.867 123.876 233.77C123.869 233.717 123.873 233.663 123.888 233.612C123.902 233.56 123.927 233.512 123.96 233.47C123.994 233.428 124.035 233.394 124.082 233.368C124.129 233.343 124.181 233.327 124.234 233.322C124.396 233.322 140.279 231.055 148.711 227.431C154.96 224.746 161.765 220.333 166.268 217.415C167.942 216.332 169.383 215.394 170.388 214.814C170.485 214.756 170.6 214.736 170.71 214.758C170.821 214.78 170.919 214.843 170.986 214.933C171.015 214.977 171.035 215.026 171.044 215.078C171.053 215.13 171.051 215.183 171.039 215.234C171.026 215.285 171.004 215.333 170.972 215.375C170.94 215.417 170.9 215.452 170.855 215.477C169.868 216.045 168.463 216.978 166.77 218.055C162.237 220.991 155.408 225.428 149.081 228.143C140.53 231.815 124.527 234.075 124.366 234.123L124.3 234.105Z" fill="white"/>
<path d="M145.972 229.034C145.906 229.034 145.841 229.022 145.78 228.998C142.42 227.467 139.771 225.099 137.199 222.809C136.541 222.211 135.878 221.613 135.208 221.051C130.696 217.319 124.979 215.361 119.128 215.543C119.019 215.547 118.913 215.509 118.831 215.438C118.749 215.367 118.697 215.268 118.685 215.16C118.688 215.051 118.734 214.948 118.812 214.872C118.89 214.796 118.995 214.754 119.104 214.754C125.179 214.571 131.112 216.607 135.794 220.483C136.476 221.081 137.139 221.679 137.803 222.247C140.321 224.495 142.928 226.821 146.175 228.292C146.224 228.312 146.268 228.342 146.305 228.38C146.342 228.418 146.37 228.463 146.388 228.513C146.406 228.563 146.413 228.615 146.41 228.668C146.406 228.721 146.391 228.772 146.366 228.819C146.327 228.887 146.269 228.944 146.199 228.982C146.13 229.02 146.051 229.038 145.972 229.034Z" fill="white"/>
<path d="M153.794 149.458C153.692 149.459 153.593 149.424 153.515 149.358C153.437 149.292 153.385 149.2 153.369 149.099C153.366 149.046 153.374 148.992 153.391 148.942C153.409 148.891 153.436 148.845 153.471 148.805C153.507 148.765 153.55 148.732 153.598 148.709C153.646 148.685 153.699 148.672 153.752 148.669C155.071 148.55 156.33 148.065 157.388 147.269C157.477 147.205 157.586 147.174 157.696 147.183C157.806 147.191 157.908 147.239 157.986 147.317C158.022 147.355 158.05 147.401 158.067 147.45C158.084 147.5 158.09 147.552 158.085 147.605C158.08 147.657 158.064 147.707 158.037 147.753C158.011 147.798 157.975 147.837 157.932 147.867C156.74 148.769 155.319 149.318 153.83 149.452L153.794 149.458Z" fill="#1A3447"/>
<path d="M166.675 149.96H166.597C166.184 149.889 165.772 149.853 165.335 149.811C164.899 149.769 164.45 149.733 164.008 149.655C163.057 149.544 162.168 149.124 161.478 148.459C161.442 148.421 161.413 148.376 161.396 148.326C161.378 148.276 161.371 148.223 161.376 148.171C161.38 148.118 161.396 148.067 161.422 148.021C161.448 147.975 161.483 147.935 161.526 147.903C161.615 147.839 161.723 147.808 161.833 147.815C161.942 147.823 162.045 147.869 162.124 147.945C162.686 148.465 163.402 148.789 164.163 148.866C164.57 148.938 164.976 148.974 165.413 149.01C165.85 149.045 166.298 149.093 166.747 149.165C166.8 149.172 166.851 149.189 166.898 149.216C166.945 149.243 166.985 149.279 167.018 149.322C167.05 149.365 167.073 149.414 167.086 149.466C167.099 149.518 167.102 149.572 167.093 149.626C167.073 149.721 167.02 149.806 166.944 149.867C166.867 149.928 166.772 149.961 166.675 149.96Z" fill="#1A3447"/>
<path d="M162.842 162.357H162.758C161.01 162.04 159.22 162.022 157.466 162.303C157.358 162.325 157.246 162.304 157.154 162.245C157.061 162.186 156.995 162.093 156.969 161.986C156.961 161.933 156.963 161.879 156.976 161.828C156.989 161.776 157.013 161.727 157.045 161.685C157.078 161.642 157.118 161.607 157.165 161.58C157.212 161.554 157.263 161.538 157.316 161.532C159.175 161.233 161.072 161.251 162.925 161.586C162.979 161.593 163.03 161.611 163.077 161.638C163.123 161.666 163.163 161.703 163.195 161.746C163.227 161.79 163.25 161.839 163.262 161.892C163.274 161.944 163.276 161.999 163.266 162.052C163.24 162.143 163.183 162.222 163.106 162.278C163.03 162.333 162.936 162.361 162.842 162.357Z" fill="#1A3447"/>
<path d="M159.947 189.602C158.841 189.597 157.739 189.46 156.664 189.195C155.317 188.928 154.041 188.38 152.92 187.588C151.798 186.796 150.855 185.777 150.152 184.597C146.062 177.6 150.463 165.909 150.654 165.419C150.697 165.316 150.777 165.234 150.878 165.189C150.979 165.143 151.094 165.138 151.199 165.174C151.25 165.187 151.299 165.211 151.341 165.244C151.383 165.277 151.417 165.319 151.443 165.366C151.468 165.413 151.483 165.465 151.488 165.518C151.492 165.572 151.485 165.625 151.468 165.676C151.42 165.795 147.001 177.534 150.918 184.214C151.565 185.292 152.432 186.222 153.462 186.943C154.493 187.664 155.663 188.16 156.898 188.4C160.187 189.183 163.021 188.753 165.329 187.132C172.362 182.181 172.475 167.703 172.475 167.554C172.488 167.447 172.539 167.349 172.619 167.278C172.699 167.207 172.802 167.168 172.909 167.168C173.016 167.168 173.119 167.207 173.199 167.278C173.279 167.349 173.33 167.447 173.343 167.554C173.343 168.152 173.223 182.563 165.856 187.748C164.132 188.975 162.063 189.624 159.947 189.602Z" fill="#1A3447"/>
<path d="M174.473 205.748C174.473 205.748 171.692 180.147 148.113 165.909C148.113 165.909 148.663 159.409 146.582 158.817C144.501 158.225 140.602 164.39 140.602 164.39C140.602 164.39 123.188 172.027 115.653 184.477C115.653 184.477 112.406 182.617 111.001 184.931C109.356 187.628 116.078 190.553 116.078 190.553C116.078 190.553 118.356 205.401 135.214 211.919" fill="white"/>
<path d="M135.208 212.29C135.151 212.289 135.094 212.279 135.04 212.26C119.247 206.149 116.06 192.634 115.695 190.792C114.78 190.367 111.162 188.591 110.439 186.528C110.33 186.235 110.29 185.921 110.322 185.61C110.354 185.298 110.458 184.999 110.624 184.734C110.809 184.412 111.06 184.131 111.36 183.911C111.659 183.691 112.001 183.535 112.364 183.454C113.43 183.285 114.522 183.455 115.486 183.939C122.758 172.266 138.724 164.803 140.273 164.079C141.092 162.811 144.459 157.8 146.707 158.434C148.956 159.068 148.669 164.175 148.555 165.706C171.877 179.908 174.867 205.443 174.897 205.7C174.901 205.754 174.894 205.807 174.877 205.858C174.86 205.909 174.833 205.956 174.797 205.996C174.761 206.037 174.718 206.069 174.669 206.092C174.621 206.115 174.568 206.128 174.514 206.131C174.405 206.144 174.295 206.115 174.207 206.05C174.119 205.984 174.06 205.886 174.042 205.778C174.042 205.527 171.004 180.201 147.874 166.232C147.811 166.197 147.759 166.144 147.725 166.081C147.691 166.017 147.676 165.945 147.682 165.873C147.897 163.302 147.682 159.528 146.45 159.188C145.218 158.847 142.509 162.136 140.955 164.57C140.909 164.638 140.845 164.692 140.769 164.725C140.596 164.803 123.397 172.457 116.03 184.65C116 184.698 115.961 184.739 115.914 184.77C115.868 184.802 115.816 184.825 115.761 184.836C115.648 184.864 115.529 184.849 115.426 184.794C115.426 184.794 113.847 183.903 112.574 184.196C112.323 184.253 112.087 184.362 111.881 184.515C111.675 184.668 111.504 184.863 111.378 185.087C111.265 185.263 111.196 185.463 111.176 185.671C111.157 185.879 111.187 186.089 111.264 186.283C111.958 188.274 116.221 190.146 116.263 190.164C116.325 190.191 116.379 190.232 116.422 190.284C116.465 190.336 116.494 190.397 116.508 190.463C116.508 190.612 119.576 205.413 135.997 211.764C136.213 211.847 135.997 211.973 135.908 212.17C135.818 212.368 135.375 212.29 135.208 212.29Z" fill="#1A3447"/>
<path d="M174.855 186.576L174.538 203.182C174.538 203.182 165.12 207.966 159.851 209.306C156.934 210.098 153.933 210.538 150.911 210.616C150.433 210.616 148.358 207.554 147.239 206.537C146.121 205.521 145.218 205.497 143.179 204.564C140.327 203.266 139.095 203.039 139.256 203.625C139.418 204.211 139.573 204.785 141.014 205.515C142.455 206.244 143.406 206.83 143.406 206.83L143.729 207.428C143.729 207.428 140.213 206.992 138.778 206.699C137.343 206.406 133.671 204.079 133.671 204.079C133.671 204.079 132.104 203.99 133.222 205.736C134.341 207.482 135.423 207.572 135.423 207.572C135.648 208.641 136.207 209.61 137.02 210.34C137.734 210.917 138.48 211.453 139.256 211.943C139.256 211.943 136.224 211.214 136.541 211.943C136.858 212.673 138.778 212.966 141.17 213.982C143.562 214.999 148.998 215.148 152.029 215.585C157.541 216.236 163.104 216.334 168.636 215.878C175.023 215.28 184.602 211.363 186.361 210.047C188.119 208.732 186.994 194.027 186.516 190.672C186.038 187.317 185.081 181.056 184.441 178.114C183.801 175.172 181.248 171.124 179.657 170.251C178.066 169.377 175.178 172.17 174.855 186.576Z" fill="white"/>
<path d="M174.526 186.612C174.736 177.205 176.129 171.166 178.359 170.047C178.581 169.924 178.83 169.859 179.083 169.859C179.336 169.859 179.585 169.924 179.807 170.047C181.523 170.986 184.112 175.202 184.74 178.102C185.368 181.003 186.355 187.383 186.827 190.66C187.036 192.149 188.663 208.726 186.552 210.299C184.716 211.668 174.999 215.615 168.672 216.195C166.393 216.404 164.109 216.458 161.926 216.458C158.602 216.474 155.28 216.275 151.982 215.86C151.067 215.729 149.907 215.621 148.681 215.513C145.906 215.256 142.749 214.963 141.02 214.234C140.153 213.869 139.358 213.6 138.658 213.36C137.349 212.912 136.487 212.619 136.23 212.039C136.186 211.958 136.17 211.865 136.184 211.775C136.198 211.684 136.242 211.6 136.308 211.537C136.541 211.285 137.169 211.279 137.875 211.375C137.558 211.142 137.193 210.867 136.792 210.544C135.975 209.822 135.401 208.866 135.148 207.805C134.207 207.449 133.426 206.765 132.947 205.879C132.481 205.144 132.379 204.6 132.642 204.211C132.77 204.061 132.931 203.943 133.113 203.868C133.295 203.794 133.493 203.763 133.689 203.78C133.747 203.779 133.804 203.798 133.85 203.834C133.886 203.834 137.486 206.137 138.85 206.406C139.896 206.621 142.103 206.914 143.167 207.058C142.928 206.908 142.061 206.4 140.871 205.796C139.31 205.012 139.119 204.325 138.957 203.721C138.92 203.626 138.916 203.521 138.945 203.424C138.974 203.326 139.035 203.241 139.119 203.182C139.334 203.027 139.759 202.71 143.305 204.343C143.998 204.666 144.584 204.875 145.057 205.054C145.939 205.316 146.755 205.765 147.449 206.37C148.113 207.04 148.732 207.753 149.303 208.505C149.79 209.181 150.345 209.807 150.959 210.37C153.932 210.275 156.884 209.836 159.756 209.061C164.54 207.865 172.948 203.679 174.203 203.051M136.9 211.919C137.498 212.356 138.18 212.663 138.903 212.822C139.621 213.061 140.422 213.337 141.295 213.713C142.904 214.401 146.002 214.688 148.729 214.939C149.96 215.059 151.121 215.16 152.065 215.298C157.55 215.944 163.085 216.04 168.588 215.585C174.819 214.987 184.345 211.16 186.133 209.82C187.634 208.702 186.773 195.008 186.181 190.684C185.715 187.419 184.758 181.116 184.112 178.174C183.466 175.232 180.919 171.291 179.472 170.508C179.348 170.437 179.208 170.4 179.065 170.4C178.922 170.4 178.782 170.437 178.658 170.508C177.917 170.884 175.465 173.151 175.166 186.576L174.843 203.182C174.844 203.235 174.829 203.286 174.8 203.33C174.771 203.373 174.73 203.407 174.682 203.428C174.592 203.481 165.174 208.271 159.923 209.575C156.978 210.373 153.949 210.819 150.899 210.903C150.523 210.903 150.134 210.478 148.794 208.804C148.239 208.078 147.64 207.387 147 206.735C146.36 206.194 145.612 205.797 144.806 205.568C144.303 205.377 143.735 205.168 143.012 204.839C140.62 203.733 139.818 203.643 139.567 203.643C139.717 204.187 139.896 204.66 141.146 205.293C142.581 206.023 143.538 206.615 143.568 206.621C143.613 206.646 143.651 206.683 143.675 206.729L143.998 207.327C144.025 207.373 144.038 207.426 144.038 207.479C144.038 207.533 144.025 207.585 143.998 207.632C143.961 207.677 143.913 207.712 143.859 207.733C143.804 207.754 143.745 207.76 143.687 207.751C143.55 207.751 140.153 207.309 138.718 207.022C137.283 206.735 134.155 204.767 133.605 204.402C133.533 204.402 133.461 204.416 133.395 204.444C133.328 204.472 133.267 204.512 133.216 204.564C133.163 204.642 133.085 204.917 133.527 205.622C134.532 207.189 135.483 207.321 135.489 207.321C135.555 207.323 135.618 207.347 135.669 207.389C135.72 207.432 135.755 207.489 135.77 207.554C135.988 208.554 136.51 209.463 137.265 210.155C137.968 210.726 138.705 211.253 139.472 211.734C139.506 211.753 139.535 211.78 139.558 211.811C139.582 211.843 139.598 211.879 139.606 211.917C139.615 211.956 139.615 211.995 139.607 212.034C139.6 212.072 139.584 212.109 139.561 212.141C139.521 212.194 139.466 212.234 139.403 212.255C139.34 212.276 139.272 212.278 139.208 212.26C138.448 212.045 137.661 211.937 136.87 211.937L136.9 211.919Z" fill="#1A3447"/>
<path d="M142.073 210.496H142.001C139.143 209.898 135.423 207.913 135.268 207.829C135.232 207.812 135.2 207.788 135.175 207.758C135.149 207.728 135.13 207.693 135.119 207.655C135.107 207.617 135.104 207.578 135.109 207.539C135.114 207.499 135.128 207.462 135.148 207.428C135.195 207.362 135.265 207.315 135.344 207.296C135.424 207.277 135.507 207.288 135.579 207.327C135.615 207.327 139.37 209.366 142.157 209.928C142.197 209.93 142.236 209.94 142.272 209.958C142.308 209.975 142.341 210 142.367 210.03C142.394 210.06 142.414 210.095 142.428 210.133C142.441 210.171 142.446 210.211 142.444 210.251C142.431 210.331 142.386 210.404 142.32 210.452C142.254 210.5 142.172 210.52 142.091 210.508L142.073 210.496Z" fill="#1A3447"/>
<path d="M143.018 212.948C141.697 212.89 140.392 212.642 139.143 212.212C139.106 212.201 139.071 212.182 139.042 212.157C139.012 212.132 138.988 212.101 138.971 212.066C138.953 212.032 138.943 211.994 138.941 211.955C138.939 211.917 138.944 211.878 138.957 211.841C138.991 211.766 139.053 211.706 139.129 211.674C139.206 211.642 139.292 211.64 139.37 211.668C140.547 212.07 141.775 212.303 143.018 212.362C143.097 212.362 143.173 212.393 143.229 212.449C143.285 212.505 143.317 212.581 143.317 212.661C143.317 212.74 143.285 212.816 143.229 212.872C143.173 212.928 143.097 212.96 143.018 212.96V212.948Z" fill="#1A3447"/>
<path d="M142.546 212.087H142.468C140.079 211.566 137.803 210.622 135.746 209.3C135.713 209.279 135.685 209.252 135.663 209.219C135.642 209.186 135.628 209.149 135.622 209.111C135.616 209.072 135.619 209.032 135.63 208.995C135.641 208.957 135.661 208.923 135.686 208.893C135.742 208.831 135.818 208.791 135.901 208.781C135.983 208.772 136.067 208.792 136.135 208.84C138.132 210.109 140.336 211.018 142.647 211.525C142.686 211.53 142.723 211.544 142.756 211.564C142.789 211.585 142.818 211.612 142.84 211.644C142.862 211.675 142.878 211.712 142.886 211.75C142.894 211.788 142.894 211.827 142.886 211.865C142.863 211.936 142.817 211.996 142.755 212.036C142.693 212.077 142.619 212.094 142.546 212.087Z" fill="#1A3447"/>
<path d="M131.764 193.884H131.56C132.248 191.073 130.861 190.469 130.861 190.469L130.012 188.442C128.319 191.725 123.434 196.311 123.434 196.311C123.649 193.764 126.424 191.527 123.942 192.466C121.46 193.405 116.766 200.163 116.766 200.163C114.78 202.812 116.036 206.298 120.491 207.255C124.946 208.212 129.575 203.404 131.74 199.732C133.905 196.06 131.764 193.884 131.764 193.884Z" fill="white"/>
<path d="M121.699 207.775C121.269 207.776 120.84 207.73 120.419 207.638C118.111 207.141 116.467 205.975 115.773 204.349C115.479 203.622 115.385 202.829 115.502 202.054C115.619 201.279 115.942 200.549 116.437 199.941C116.628 199.672 121.257 193.076 123.804 192.101C124.366 191.892 124.934 191.713 125.257 192.03C125.58 192.347 125.353 192.807 124.946 193.555C124.681 194.009 124.447 194.48 124.247 194.966C125.766 193.423 128.48 190.517 129.629 188.274C129.68 188.177 129.768 188.104 129.874 188.071C129.981 188.029 130.101 188.029 130.209 188.071C130.442 188.195 130.647 188.365 130.813 188.57C130.978 188.776 131.1 189.013 131.171 189.267C131.548 190.463 130.155 193.268 128.821 195.247C128.754 195.337 128.656 195.4 128.546 195.423C128.436 195.446 128.321 195.428 128.223 195.373C128.176 195.349 128.134 195.316 128.101 195.275C128.068 195.234 128.043 195.187 128.03 195.136C128.016 195.085 128.014 195.032 128.022 194.98C128.031 194.928 128.051 194.878 128.08 194.834C129.557 192.616 130.544 190.164 130.352 189.5C130.305 189.342 130.232 189.193 130.137 189.058C128.253 192.293 123.954 196.371 123.762 196.551C123.698 196.61 123.619 196.65 123.533 196.665C123.447 196.68 123.358 196.669 123.278 196.634C123.199 196.607 123.131 196.553 123.086 196.483C123.04 196.413 123.019 196.329 123.027 196.246C123.185 195.151 123.573 194.102 124.163 193.166C124.247 193.01 124.342 192.837 124.414 192.688L124.127 192.795C122.213 193.519 118.44 198.488 117.142 200.336C116.721 200.841 116.443 201.45 116.338 202.099C116.233 202.748 116.304 203.414 116.544 204.026C117.142 205.407 118.56 206.418 120.581 206.836C124.767 207.745 129.318 202.955 131.345 199.511C133.372 196.066 131.423 194.129 131.405 194.129C131.366 194.092 131.336 194.048 131.316 193.999C131.297 193.95 131.288 193.897 131.291 193.844C131.294 193.791 131.308 193.739 131.333 193.692C131.358 193.645 131.392 193.605 131.435 193.573C131.517 193.499 131.623 193.458 131.734 193.458C131.844 193.458 131.95 193.499 132.033 193.573C132.134 193.668 134.377 196.006 132.092 199.875C130.448 202.794 126.256 207.775 121.699 207.775Z" fill="#1A3447"/>
<path d="M130.143 197.34C130.089 197.335 130.037 197.321 129.988 197.298C129.939 197.278 129.894 197.247 129.857 197.209C129.821 197.17 129.793 197.124 129.775 197.074C129.757 197.024 129.749 196.971 129.753 196.918C129.757 196.865 129.771 196.813 129.796 196.766C131.931 192.879 130.879 190.786 130.867 190.786C130.821 190.761 130.78 190.727 130.748 190.686C130.716 190.645 130.693 190.598 130.68 190.547C130.667 190.496 130.664 190.444 130.673 190.392C130.681 190.341 130.701 190.291 130.729 190.248C130.793 190.153 130.89 190.086 131.002 190.062C131.113 190.037 131.23 190.057 131.327 190.116C131.423 190.17 133.121 192.508 130.586 197.143C130.541 197.217 130.474 197.275 130.395 197.311C130.316 197.346 130.228 197.356 130.143 197.34Z" fill="#1A3447"/>
<path d="M143.304 204.737C143.232 204.738 143.16 204.721 143.095 204.688C143.03 204.655 142.975 204.606 142.934 204.546C142.838 204.402 133.407 189.835 139.746 174.55C139.793 174.449 139.877 174.37 139.98 174.328C140.083 174.286 140.198 174.284 140.302 174.323C140.354 174.337 140.401 174.361 140.442 174.395C140.483 174.429 140.517 174.471 140.54 174.518C140.564 174.565 140.577 174.617 140.58 174.67C140.582 174.723 140.573 174.776 140.554 174.825C134.364 189.745 143.579 204.002 143.675 204.127C143.703 204.172 143.722 204.222 143.729 204.274C143.737 204.326 143.734 204.379 143.72 204.43C143.706 204.48 143.681 204.527 143.648 204.568C143.614 204.609 143.573 204.642 143.526 204.665C143.459 204.708 143.383 204.732 143.304 204.737Z" fill="#1A3447"/>
<path d="M150.9 187.772C150.808 187.773 150.718 187.746 150.643 187.694C150.598 187.666 150.56 187.629 150.53 187.585C150.501 187.541 150.482 187.492 150.473 187.439C150.465 187.387 150.467 187.334 150.481 187.283C150.495 187.232 150.519 187.185 150.553 187.144C151.941 185.47 153.613 184.053 155.492 182.958C155.589 182.9 155.704 182.881 155.814 182.903C155.925 182.925 156.023 182.987 156.09 183.078C156.12 183.121 156.14 183.171 156.15 183.222C156.16 183.274 156.158 183.328 156.146 183.379C156.133 183.43 156.11 183.478 156.078 183.52C156.046 183.562 156.005 183.597 155.959 183.622C154.161 184.669 152.565 186.03 151.247 187.64C151.201 187.685 151.147 187.72 151.087 187.743C151.027 187.765 150.963 187.775 150.9 187.772Z" fill="#1A3447"/>
<path d="M146.235 205.933C146.135 205.936 146.038 205.904 145.96 205.841C145.882 205.779 145.829 205.691 145.811 205.592C145.769 205.281 144.764 197.932 148.083 191.055C148.134 190.957 148.22 190.882 148.324 190.844C148.429 190.806 148.543 190.809 148.645 190.852C148.695 190.869 148.741 190.897 148.78 190.934C148.819 190.97 148.85 191.014 148.87 191.063C148.891 191.112 148.902 191.165 148.901 191.218C148.9 191.271 148.888 191.324 148.866 191.372C145.649 198.04 146.654 205.413 146.666 205.491C146.671 205.544 146.666 205.598 146.651 205.649C146.635 205.7 146.609 205.748 146.574 205.789C146.539 205.83 146.497 205.863 146.449 205.887C146.401 205.911 146.348 205.924 146.295 205.927L146.235 205.933Z" fill="#1A3447"/>
<path d="M175.614 152.669C173.51 152.616 171.498 151.795 169.957 150.361C168.211 148.788 167.117 146.809 166.064 144.752L165.849 144.321C165.008 142.465 163.918 140.733 162.608 139.173C162.106 138.585 161.481 138.113 160.778 137.791C160.447 137.644 160.088 137.569 159.726 137.569C159.363 137.569 159.005 137.644 158.673 137.791C158.573 137.848 158.454 137.864 158.342 137.835C158.231 137.806 158.135 137.734 158.075 137.636C158.048 137.591 158.03 137.54 158.024 137.488C158.017 137.435 158.022 137.382 158.038 137.332C158.054 137.281 158.08 137.235 158.116 137.195C158.151 137.156 158.194 137.125 158.243 137.103C158.695 136.902 159.185 136.798 159.681 136.798C160.176 136.798 160.666 136.902 161.119 137.103C161.936 137.471 162.663 138.014 163.248 138.694C164.606 140.31 165.739 142.102 166.615 144.022L166.83 144.447C167.846 146.438 168.899 148.352 170.543 149.829C172.337 151.426 174.652 152.191 176.637 151.82C176.745 151.797 176.859 151.816 176.954 151.874C177.048 151.932 177.117 152.024 177.145 152.131C177.155 152.184 177.153 152.238 177.141 152.29C177.129 152.342 177.106 152.392 177.074 152.435C177.042 152.478 177.002 152.514 176.955 152.541C176.909 152.568 176.858 152.585 176.804 152.592C176.411 152.653 176.013 152.679 175.614 152.669Z" fill="white"/>
<path d="M175.537 141.062C173.85 140.967 172.26 140.246 171.076 139.041C170.622 138.628 170.203 138.18 169.79 137.749C169.079 136.944 168.276 136.223 167.398 135.602C164.97 134.012 161.377 133.916 158.255 135.369C158.152 135.422 158.033 135.433 157.922 135.401C157.81 135.369 157.716 135.295 157.657 135.196C157.632 135.149 157.617 135.098 157.614 135.045C157.61 134.993 157.617 134.94 157.635 134.89C157.654 134.84 157.682 134.795 157.718 134.757C157.755 134.719 157.799 134.689 157.848 134.67C161.257 133.085 165.198 133.204 167.883 134.963C168.813 135.619 169.664 136.382 170.418 137.235C170.819 137.654 171.232 138.09 171.662 138.485C172.499 139.25 174.174 140.5 175.998 140.243C176.107 140.223 176.219 140.247 176.312 140.308C176.404 140.369 176.47 140.464 176.494 140.572C176.501 140.625 176.497 140.679 176.482 140.73C176.467 140.782 176.443 140.83 176.409 140.872C176.376 140.914 176.334 140.948 176.287 140.974C176.24 140.999 176.188 141.015 176.135 141.02C175.937 141.048 175.737 141.062 175.537 141.062Z" fill="white"/>
<path d="M146.845 241.341C144.516 241.376 142.188 241.2 139.89 240.815C139.837 240.808 139.786 240.79 139.74 240.762C139.694 240.734 139.655 240.697 139.624 240.653C139.593 240.609 139.571 240.56 139.561 240.507C139.55 240.455 139.55 240.401 139.561 240.348C139.591 240.242 139.66 240.152 139.755 240.096C139.85 240.04 139.963 240.023 140.07 240.049C140.315 240.097 164.396 244.534 186.714 225.326C186.796 225.254 186.903 225.214 187.013 225.214C187.123 225.214 187.229 225.254 187.312 225.326C187.351 225.361 187.382 225.403 187.404 225.45C187.426 225.498 187.437 225.549 187.437 225.601C187.437 225.654 187.426 225.705 187.404 225.753C187.382 225.8 187.351 225.842 187.312 225.877C178.212 233.832 167.01 238.992 155.049 240.737C152.332 241.131 149.591 241.332 146.845 241.341Z" fill="white"/>
<path d="M233.878 235.887C233.878 235.887 233.34 233.734 231.546 234.452C229.752 235.169 229.937 239.924 230.29 242.615C230.643 245.306 233.071 244.05 233.071 244.05V242.435C233.071 242.435 232.174 243.147 231.725 242.166C231.277 241.185 231.366 236.246 231.815 236.336C232.263 236.425 233.16 237.944 233.16 237.944C233.16 237.944 233.43 237.777 233.878 235.887Z" fill="#F0C376" stroke="#1A3447" stroke-width="0.598" stroke-linecap="round" stroke-linejoin="round"/>
<path d="M232.586 236.246V248.027C232.586 249.414 235.773 250.538 239.708 250.538C243.643 250.538 246.824 249.414 246.824 248.027V236.246H232.586Z" fill="#F0C376" stroke="#1A3447" stroke-width="0.598" stroke-linecap="round" stroke-linejoin="round"/>
<path d="M246.824 236.246C246.824 237.442 243.637 238.411 239.708 238.411C235.779 238.411 232.586 237.442 232.586 236.246C232.586 235.05 235.773 234.081 239.708 234.081C243.643 234.081 246.824 235.056 246.824 236.246Z" fill="white" stroke="#1A3447" stroke-width="0.598" stroke-linecap="round" stroke-linejoin="round"/>
<path d="M245.892 236.246C245.892 237.286 243.123 238.13 239.708 238.13C236.294 238.13 233.519 237.286 233.519 236.246C233.519 235.205 236.294 234.362 239.708 234.362C243.123 234.362 245.892 235.205 245.892 236.246Z" fill="white" stroke="#1A3447" stroke-width="0.598" stroke-linecap="round" stroke-linejoin="round"/>
<path d="M234.936 237.442C238.05 238.351 241.36 238.351 244.474 237.442C241.36 236.533 238.05 236.533 234.936 237.442Z" fill="#1A3447" stroke="#1A3447" stroke-width="0.598" stroke-linecap="round" stroke-linejoin="round"/>
<path d="M237.669 233.124C237.669 233.124 242.657 230.134 241.03 226.702C239.403 223.269 233.902 221.009 233.902 215.669C233.902 211.07 238.793 209.366 241.987 207.524" stroke="#1A3447" stroke-width="0.598" stroke-linecap="round" stroke-linejoin="round"/>
<path d="M242.273 233.029C242.273 233.029 245.054 231.181 245.054 228.245C245.054 226.277 242.949 224.986 240.168 221.816" stroke="#1A3447" stroke-width="0.598" stroke-linecap="round" stroke-linejoin="round"/>
</svg>
